<?xml version="1.0" encoding="UTF-8"?>
<svg width="148px" height="81px" viewBox="0 0 148 81" version="1.1" xmlns="http://www.w3.org/2000/svg" xmlns:xlink="http://www.w3.org/1999/xlink">
    <!-- Generator: Sketch 50.2 (55047) - http://www.bohemiancoding.com/sketch -->
    <title>Group 4</title>
    <desc>Created with Sketch.</desc>
    <defs></defs>
    <g id="3-person" stroke="none" stroke-width="1" fill="none" fill-rule="evenodd">
        <g id="Candidate" transform="translate(-487.000000, -676.000000)" stroke="#26578A" stroke-width="3">
            <g id="Group-18" transform="translate(390.000000, 678.000000)">
                <g id="Group-4" transform="translate(97.000000, 0.000000)">
                    <path d="M108.940559,34.7420912 L108.940559,91.1786547 L110.111766,91.1786547 C118.04928,91.1786547 124.704095,85.1822368 125.528033,77.2876023 L127.023321,62.960373 L125.528033,48.6331436 C124.704095,40.7385091 118.04928,34.7420912 110.111766,34.7420912 L108.940559,34.7420912 Z" id="Rectangle-7-Copy-2" fill="#E5F3FE" transform="translate(117.986014, 62.960373) rotate(-90.000000) translate(-117.986014, -62.960373) "></path>
                    <path d="M108.940559,46.2992008 L108.940559,51.15217 L116.363636,54.6942878 L123.786713,51.15217 L123.786713,46.2992008 L108.940559,46.2992008 Z" id="Rectangle-6-Copy" fill="#FFFFFF"></path>
                    <path d="M117.997758,48.1012321 C125.794982,48.1012321 132.31201,39.600439 132.31201,26.7182849 C136.429796,22.5604896 136.678562,14.7890757 130.207756,13.0071634 C130.644259,10.3626954 128.194224,6.52327924 124.664694,7.71122075 C124.664694,4.69157281 114.076102,3.55342546 112.014905,8.95335006 C108.193551,7.71122075 105.252276,13.0569575 100.546235,10.0871038 C96.4284495,14.8388698 104.075766,24.4018012 104.075766,26.7182849 C104.075766,40.4556056 110.200534,48.1012321 117.997758,48.1012321 Z" id="Oval-3-Copy-2" fill="#FFFFFF" stroke-linecap="round" transform="translate(117.295001, 26.638029) scale(-1, 1) translate(-117.295001, -26.638029) "></path>
                    <path d="M105.818182,24.987013 C107.533267,24.987013 109.201998,23.3359973 110.824376,20.033966 C113.095704,23.3359973 117.916484,24.780636 125.286713,24.3678821" id="Path-3-Copy-2" fill="#FFFFFF" stroke-linecap="round" stroke-linejoin="round"></path>
                    <path d="M133.398601,66.2624043 L133.398601,71.2154512" id="Path-5-Copy-5" fill="#FFFFFF" stroke-linecap="round"></path>
                    <path d="M117.575135,54.7552967 L110.832618,63.8034747 L105.26008,56.4749215 L113.573338,51.1786644 L117.575135,54.7552967 Z" id="Rectangle-6-Copy-8" fill="#E5F3FE" stroke-linecap="round" stroke-linejoin="round" transform="translate(111.496503, 57.181818) scale(-1, 1) translate(-111.496503, -57.181818) "></path>
                    <path d="M128.931778,54.7552967 L122.189262,63.8034747 L116.616723,56.4749215 L124.929982,51.1786644 L128.931778,54.7552967 Z" id="Rectangle-6-Copy-9" fill="#E5F3FE" stroke-linecap="round" stroke-linejoin="round"></path>
                    <path d="M18.2420814,33.8130869 L18.2420814,86.6663479 L21.7033533,86.6663479 C29.5295143,86.6663479 36.1279358,80.8322787 37.0866202,73.0650578 L38.669613,60.2397174 L37.0866202,47.414377 C36.1279358,39.6471562 29.5295143,33.8130869 21.7033533,33.8130869 L18.2420814,33.8130869 Z" id="Rectangle-7-Copy" fill="#E5F3FE" transform="translate(28.461538, 60.239717) rotate(-90.000000) translate(-28.461538, -60.239717) "></path>
                    <path d="M14.3559623,17.3856572 L7.37180775,32.6143104 C6.71560789,34.0451264 6.42523029,35.6165766 6.52677556,37.1874112 C6.86523793,42.4231879 11.3840515,46.3932456 16.6198283,46.0547832 L40.2531766,44.5270254 L40.4203061,44.5540352 C41.9096131,44.7947227 43.4368754,44.5552577 44.781047,43.8702987 C48.2783472,42.0881549 49.6687562,37.8083199 47.8866124,34.3110197 L39.2618365,17.3856572 L14.3559623,17.3856572 Z" id="Rectangle-6-Copy-4" fill="#FFFFFF"></path>
                    <path d="M21.0325063,42.0268018 L19.9477207,49.6130573 C21.1804869,53.5929995 23.6479392,55.4542315 27.6244344,55.4542315 C31.6009295,55.4542315 34.0683818,53.5929995 35.3011481,49.6130573 L34.2163625,42.0268018 L21.0325063,42.0268018 Z" id="Rectangle-6-Copy-3" fill="#FFFFFF"></path>
                    <path d="M26.7873303,46.6654729 C35.0408936,46.6654729 41.7317287,39.6483696 41.7317287,31.7254373 C41.7317287,23.802505 44.2265867,9.43524936 26.7873303,9.31538391 C9.3480739,9.19551846 11.8429319,24.5311633 11.8429319,31.7254373 C11.8429319,38.9197113 18.533767,46.6654729 26.7873303,46.6654729 Z" id="Oval-3-Copy" fill="#FFFFFF" stroke-linecap="round"></path>
                    <path d="M16.7420814,22.4566291 C20.4253394,22.4566291 23.1040724,20.8138861 24.7782805,17.5284002 C27.1221719,20.8138861 31.1402715,22.2512862 36.8325792,21.8406005" id="Path-3-Copy" fill="#FFFFFF" stroke-linecap="round" stroke-linejoin="round"></path>
                    <path d="M15.0678733,65.1679463 L15.0678733,70.0961753" id="Path-5-Copy-2" fill="#FFFFFF" stroke-linecap="round"></path>
                    <path d="M61.3254789,29.3578089 L61.3254789,100.099068 L66.9287351,100.099068 C74.8636243,100.099068 81.5171283,94.1064989 82.3442882,86.2148406 L84.596374,64.7284382 L82.3442882,43.2420359 C81.5171283,35.3503775 74.8636243,29.3578089 66.9287351,29.3578089 L61.3254789,29.3578089 Z" id="Rectangle-7-Copy-3" fill="#E5F3FE" transform="translate(72.965035, 64.728438) rotate(-90.000000) translate(-72.965035, -64.728438) "></path>
                    <path d="M62.9679234,44.1060606 L62.9679234,51.0010788 L72.1438127,55.6712101 L81.319702,51.0010788 L81.319702,44.1060606 L62.9679234,44.1060606 Z" id="Rectangle-6-Copy-2" fill="#FFFFFF"></path>
                    <path d="M72.6767991,49.1608392 C83.1398053,49.1608392 91.6217477,40.9360829 91.6217477,30.7903318 C91.6217477,28.818921 91.6217477,25.7571697 91.6217477,21.6050781 C92.3170736,15.616009 92.667926,11.2785281 92.6743048,8.59263543 C92.6838731,4.56379649 91.6217477,0.172819566 91.6217477,0.172819566 C77.4130362,3.23457079 49.2587977,-9.77787191 53.7318505,21.6050781 C53.7318505,24.6691189 53.7318505,27.4433169 53.7318505,30.7903318 C53.7318505,40.9360829 62.2137929,49.1608392 72.6767991,49.1608392 Z" id="Oval-3-Copy-3" fill="#FFFFFF" stroke-linecap="round"></path>
                    <path d="M59.8254789,16.3869464 C61.1731256,13.1095571 64.093027,11.4708625 68.5851829,11.4708625 C73.0773389,11.4708625 78.9171416,12.9047203 86.1045911,15.7724359" id="Path-3-Copy-3" fill="#FFFFFF" stroke-linecap="round"></path>
                    <path d="M52.4344786,67.1864802 L52.4344786,77.018648" id="Path-5-Copy-6" fill="#FFFFFF" stroke-linecap="round"></path>
                    <path d="M96.7804804,67.1864802 L96.7804804,77.018648" id="Path-5-Copy-7" fill="#FFFFFF" stroke-linecap="round"></path>
                    <path d="M71.5734307,54.521348 L64.9024456,65.053531 L59.4485695,56.6151376 L67.6900214,50.4379495 L71.5734307,54.521348 Z" id="Rectangle-6-Copy-10" fill="#E5F3FE" stroke-linecap="round" stroke-linejoin="round" transform="translate(65.574035, 57.354312) scale(-1, 1) translate(-65.574035, -57.354312) "></path>
                    <path d="M86.3554313,54.521348 L79.6844462,65.053531 L74.2305701,56.6151376 L82.472022,50.4379495 L86.3554313,54.521348 Z" id="Rectangle-6-Copy-11" fill="#E5F3FE" stroke-linecap="round" stroke-linejoin="round"></path>
                </g>
            </g>
        </g>
    </g>
</svg>