<?xml version="1.0" encoding="UTF-8"?>
<svg width="338px" height="384px" viewBox="0 0 338 384" version="1.1" xmlns="http://www.w3.org/2000/svg" xmlns:xlink="http://www.w3.org/1999/xlink">
    <!-- Generator: Sketch 50.2 (55047) - http://www.bohemiancoding.com/sketch -->
    <title>Group</title>
    <desc>Created with Sketch.</desc>
    <defs></defs>
    <g id="Desktop" stroke="none" stroke-width="1" fill="none" fill-rule="evenodd">
        <g id="Candidate" transform="translate(-386.000000, -137.000000)">
            <g id="Group-17" transform="translate(-232.000000, -1072.000000)">
                <g id="Group-5" transform="translate(618.000000, 1209.000000)">
                    <g id="Group">
                        <polygon id="Fill-1" fill="#86A3C1" points="221.22421 158.042077 204.80279 104.256318 242.295077 108.265871"></polygon>
                        <path d="M0.171762409,239.742563 C-0.73399242,244.799441 9.49053153,251.094708 21.9340129,248.381572 C41.3254003,244.154062 50.9749545,248.55707 50.9749545,248.55707 L60.5535248,243.764854 C54.8080863,233.291612 59.8777579,231.304527 53.5133395,221.51063 C47.8374652,219.912753 0.171762409,239.742563 0.171762409,239.742563" id="Fill-2" fill="#2C4259"></path>
                        <path d="M45.8746179,249.537733 L62.6183051,239.840078 C62.6183051,239.840078 106.026392,316.338618 160.810363,215.053877 L208.003313,234.59638 C152.907013,320.236362 81.2302891,302.743218 45.8746179,249.537733" id="Fill-5" fill="#4E7090"></path>
                        <path d="M104.059144,183.543713 L123.906248,178.772727 C123.906248,178.772727 125.97188,197.458972 127.331932,203.854726 C128.690564,210.249065 129.99241,217.569012 131.322648,218.580953 C132.654307,219.592895 140.561915,219.631108 141.510261,220.804394 C142.200224,221.657822 146.219334,228.022439 146.219334,228.022439 C146.219334,228.022439 147.492785,232.388649 146.741776,232.538671 C145.21988,232.842961 144.568248,229.259414 144.568248,229.259414 L139.118102,226.253311 C139.118102,226.253311 146.974603,247.175734 146.313033,248.803333 C145.650043,250.432346 129.972534,253.061979 128.339904,252.402448 C126.707274,251.742917 115.975925,234.491789 115.975925,234.491789 L119.699741,219.884447 L104.059144,183.543713 Z" id="Fill-7" fill="#FEFEFE"></path>
                        <path d="M331.783086,72.2724526 L313.861066,71.7572823 C313.861066,71.7572823 319.839332,57.1499404 315.867072,44.2423774 C313.88804,37.8112407 305.656744,34.4895247 306.16215,32.6651991 C306.465961,31.5711699 312.333492,31.2088524 315.756337,34.5150001 C315.07773,27.2955397 315.008166,14.7531248 315.008166,14.7531248 C314.644728,10.4293743 316.284457,5.86643752 320.171536,9.95807839 C319.441822,3.73357596 325.089303,3.57081612 326.244921,10.7916918 C326.753166,8.56825088 330.980968,4.73985636 332.419102,14.6115945 C333.259552,12.600449 336.159955,11.2983703 336.906706,18.8079678 C337.559758,25.3792195 337.782647,27.0181403 337.920356,32.1783349 C338.130468,39.9936379 332.051405,48.4741332 331.783086,72.2724526" id="Fill-9" fill="#FEFEFE"></path>
                        <path d="M199.858334,94.5718245 C199.858334,94.5718245 209.713741,107.666208 215.858109,109.07868 C221.999638,110.492568 234.055547,103.104686 234.055547,103.104686 L234.105236,87.5094627 C234.105236,87.5094627 252.795302,96.67638 254.714708,89.949445 C259.327243,73.7682863 271.212791,39.9255618 259.69352,26.8708073 C238.63685,3.00172279 211.467044,15.0558581 208.133639,38.4720457 C204.798815,61.8882332 199.858334,94.5718245 199.858334,94.5718245" id="Fill-11" fill="#FEFEFE"></path>
                        <path d="M22.3888778,381.640555 C25.0479355,386.040732 36.9008306,384.0678 44.4733953,373.857804 C56.2751819,357.945553 66.4429188,354.923881 66.4429188,354.923881 L70.4875826,345.029498 C59.2465689,340.920874 61.7480422,336.096106 50.4899924,332.903182 C45.163359,335.428083 22.3888778,381.640555 22.3888778,381.640555" id="Fill-13" fill="#2C4259"></path>
                        <path d="M62.3173333,358.145677 L67.7334064,343.103837 C96.6664526,351.948065 148.003444,343.718078 165.349075,316.32489 C189.049186,278.897203 142.757732,260.801139 156.433494,219.921528 L223.000795,244.423253 C213.923372,398.654478 62.3173333,358.145677 62.3173333,358.145677" id="Fill-15" fill="#5E85AA"></path>
                        <path d="M250.69645,141.676928 C250.69645,141.676928 252.517897,204.503642 226.965105,265.987234 C226.965105,265.987234 157.647887,251.549728 148.648546,224.339113 C148.648546,224.339113 175.95606,176.023501 170.530049,132.192983 C108.216104,140.827747 132.570688,210.302139 132.570688,210.302139 L113.88772,216.726199 C113.88772,216.726199 77.240141,148.55247 130.08767,111.256407 C157.839544,91.6714442 181.302569,87.4566719 201.601131,89.5555662 C201.601131,89.5555662 216.17555,128.265518 222.072894,145.636946 C235.409353,128.1622 233.276996,97.5647657 233.276996,97.5647657 C255.401264,105.791922 273.275015,116.001917 289.338677,108.476752 C312.970644,97.4062518 314.087931,59.0204048 314.087931,59.0204048 L335.056581,58.8123553 C332.63177,161.205279 250.69645,141.676928 250.69645,141.676928" id="Fill-17" fill="#24558B"></path>
                        <path d="M221.730325,113.264438 C222.820638,107.413576 220.242502,104.032417 220.242502,104.032417 C220.242502,104.032417 216.781326,105.21278 214.372132,107.99385 C213.570014,108.922289 221.730325,113.264438 221.730325,113.264438" id="Fill-19" fill="#6B829B"></path>
                        <path d="M202.159774,85.5389364 C206.23851,96.6448188 220.022168,103.943536 220.022168,103.943536 C220.022168,103.943536 213.866443,106.041015 212.262206,111.239423 C200.572574,107.238361 194.935031,90.1740536 194.935031,90.1740536 C196.787711,84.4038634 202.159774,85.5389364 202.159774,85.5389364" id="Fill-21" fill="#86A3C1"></path>
                        <path d="M224.1107,113.739273 C224.1107,113.739273 223.224821,102.690002 228.168141,104.185978 C228.168141,104.185978 230.632703,107.008092 230.523387,110.696371 L224.1107,113.739273 Z" id="Fill-23" fill="#6B829B"></path>
                        <path d="M233.420525,95.3761412 C233.420525,95.3761412 234.06364,102.878662 228.120866,103.860882 C228.120866,103.860882 232.524708,108.905022 229.290681,114.322802 L236.692884,107.976583 C240.01919,99.6503561 233.420525,95.3761412 233.420525,95.3761412" id="Fill-25" fill="#86A3C1"></path>
                        <path d="M201.657918,65.8206525 C201.657918,65.8206525 203.696576,45.506809 201.268926,31.9722668 C194.913026,-3.44710516 220.254286,9.45196605 220.254286,9.45196605 C220.254286,9.45196605 225.734244,0.667180556 231.574801,0.221360123 C256.267268,-1.66240812 262.354849,22.2632885 284.591272,16.1973 C286.906768,56.087614 246.433156,31.6609001 225.693074,16.9205198 C224.066122,46.9419262 201.657918,65.8206525 201.657918,65.8206525" id="Fill-27" fill="#2C4259"></path>
                        <path d="M148.648688,224.33883 C177.55334,169.038698 170.530191,132.1927 170.530191,132.1927 L182.780596,130.911851 C182.780596,130.911851 185.435395,204.835955 148.648688,224.33883" id="Fill-52" fill="#18406C"></path>
                        <path d="M234.105378,87.5090381 L234.132352,91.7620235 C234.132352,91.7620235 224.611989,89.4494185 216.887518,77.2721518 C221.622146,82.6616255 234.105378,87.5090381 234.105378,87.5090381" id="Fill-56" fill="#86A3C1"></path>
                    </g>
                </g>
            </g>
        </g>
    </g>
</svg>