<?xml version="1.0" encoding="UTF-8"?>
<svg width="32px" height="32px" viewBox="0 0 32 32" version="1.1" xmlns="http://www.w3.org/2000/svg" xmlns:xlink="http://www.w3.org/1999/xlink">
    <!-- Generator: Sketch 50.1 (55044) - http://www.bohemiancoding.com/sketch -->
    <title>Combined Shape</title>
    <desc>Created with Sketch.</desc>
    <defs></defs>
    <g id="facebook" stroke="none" stroke-width="1" fill="none" fill-rule="evenodd">
        <g id="Footer" transform="translate(-1451.000000, -114.000000)" fill="#FFFFFF">
            <path d="M1451,130 C1451,121.163444 1458.16344,114 1467,114 C1475.83656,114 1483,121.163444 1483,130 C1483,138.836556 1475.83656,146 1467,146 C1458.16344,146 1451,138.836556 1451,130 Z M1468.13437,138.874318 L1468.13437,130.169473 L1470.53729,130.169473 L1470.85573,127.169735 L1468.13437,127.169735 L1468.13845,125.668338 C1468.13845,124.88596 1468.21279,124.466744 1469.33651,124.466744 L1470.83872,124.466744 L1470.83872,121.466667 L1468.43546,121.466667 C1465.54876,121.466667 1464.53271,122.921862 1464.53271,125.369043 L1464.53271,127.170075 L1462.73333,127.170075 L1462.73333,130.169813 L1464.53271,130.169813 L1464.53271,138.874318 L1468.13437,138.874318 Z" id="Combined-Shape"></path>
        </g>
    </g>
</svg>