<?xml version="1.0" encoding="UTF-8"?>
<svg width="250px" height="444px" viewBox="0 0 250 444" version="1.1" xmlns="http://www.w3.org/2000/svg" xmlns:xlink="http://www.w3.org/1999/xlink">
    <!-- Generator: Sketch 50.2 (55047) - http://www.bohemiancoding.com/sketch -->
    <title>Group 2</title>
    <desc>Created with Sketch.</desc>
    <defs></defs>
    <g id="Desktop" stroke="none" stroke-width="1" fill="none" fill-rule="evenodd">
        <g id="Candidate" transform="translate(-726.000000, -154.000000)">
            <g id="Group-17" transform="translate(-232.000000, -1072.000000)">
                <g id="Group-5" transform="translate(618.000000, 1209.000000)">
                    <g id="Group-2" transform="translate(340.000000, 17.000000)">
                        <path d="M148.667011,141.861688 C146.732153,139.349471 140.685013,136.871298 134.796747,144.057573 C128.907063,151.243848 134.115859,160.746583 135.805313,162.132487 C140.245273,165.772436 152.204793,146.454889 148.667011,141.861688" id="Fill-30" fill="#18406C"></path>
                        <path d="M245.773182,338.332965 C239.788457,320.258051 216.519097,300.65538 216.519097,300.65538 C216.519097,300.65538 216.249579,294.028006 225.435898,291.632109 C229.541087,291.77538 233.793802,298.719086 233.793802,298.719086 L231.749719,301.801553 C243.036862,307.925348 256.501429,322.872403 245.773182,338.332965" id="Fill-32" fill="#2C4259"></path>
                        <path d="M222.215154,300.496647 C220.2959,298.617094 217.244669,298.588723 215.297044,300.438487 C203.385753,311.748429 162.143777,342.51919 132.60457,260.776378 L103.842711,263.237528 C139.94398,343.533439 184.901053,346.116583 222.318706,307.52972 C224.225193,305.563637 224.171289,302.4145 222.215154,300.496647" id="Fill-34" fill="#E5F3FE"></path>
                        <path d="M153.471104,443.68381 C167.869056,428.589228 174.848161,395.989982 174.848161,395.989982 C174.848161,395.989982 181.120846,392.315988 188.16804,399.96896 C190.142616,404.01319 185.616127,411.700206 185.616127,411.700206 L181.581864,411.312947 C181.469801,425.38335 173.947403,446.100985 153.471104,443.68381" id="Fill-36" fill="#2C4259"></path>
                        <path d="M178.997467,403.399675 C179.767722,400.771139 178.644256,397.955356 176.27675,396.582219 C136.922821,373.767995 104.769286,348.97634 111.335604,248.147203 L70.3404497,276.209988 C103.076995,385.892174 155.464262,404.442295 172.235394,407.578666 C175.22421,408.138985 178.140682,406.317592 178.997467,403.399675" id="Fill-38" fill="#E5F3FE"></path>
                        <path d="M161.123438,266.005932 C142.179137,327.860948 70.4773366,318.597945 70.4773366,318.597945 C38.3904722,257.450776 54.1374342,196.082316 54.1374342,196.082316 L104.049389,191.337332 C104.049389,191.337332 118.128174,249.704181 161.123438,266.005932" id="Fill-40" fill="#2C4259"></path>
                        <path d="M137.347951,133.297879 L132.452647,149.567003 C181.490795,195.785559 143.545453,229.989163 142.27588,230.762262 C141.00347,231.535361 134.010179,230.830351 133.06261,231.782185 C132.37321,232.474428 128.224047,237.74285 128.224047,237.74285 C128.224047,237.74285 126.690629,241.494863 127.338892,241.697712 C128.656694,242.110505 129.568801,238.993994 129.568801,238.993994 L134.665534,236.837827 C134.665534,236.837827 125.764337,254.65315 126.196985,256.159629 C126.629633,257.663272 136.62167,260.315923 138.128135,259.883272 C139.631764,259.449201 147.671921,246.407233 147.671921,246.407233 L152.426791,233.00354 C152.426791,233.00354 202.236612,185.180626 137.347951,133.297879" id="Fill-42" fill="#FEFEFE"></path>
                        <path d="M6.38446328,54.0852997 C6.38446328,54.0852997 -21.1361935,109.305849 38.3167093,123.434412 L43.2871944,109.590974 C-8.61352158,98.2313827 18.7652835,44.3924818 28.1884948,35.4004179 C32.5291581,31.2597278 39.6813231,30.310731 39.8104081,28.628354 C39.8898451,27.6197789 35.0966747,25.5416319 31.2326332,27.2779131 C33.9888126,21.430731 37.8528541,10.937862 37.8528541,10.937862 C39.4671269,7.42274377 39.4813121,3.10048179 34.9917044,5.35594505 C37.4897136,0.35846262 32.8185357,-1.48562684 29.6623344,4.21828371 C29.9119935,2.19971502 27.5416508,-2.28851502 23.3428392,5.55312077 C23.2520541,3.61257125 21.3200334,1.69329968 18.319869,7.71354249 C11.9436331,20.5101048 13.3791728,34.0513955 6.38446328,54.0852997" id="Fill-44" fill="#FEFEFE"></path>
                        <path d="M104.568282,111.874382 C105.473297,126.360414 106.944299,157.153871 75.2149011,155.593488 C43.0329961,154.010408 83.3203098,109.286983 83.3203098,109.286983 L83.3954912,96.3967974 C83.3954912,96.3967974 64.9959015,98.43097 65.4328049,92.2121329 C66.4853448,77.2508933 66.8186964,45.2843118 80.4052564,37.8228422 C105.244915,24.1808358 124.295604,42.5039923 119.977637,63.1421904 C115.661089,83.781807 103.390913,93.0249508 104.568282,111.874382" id="Fill-46" fill="#FEFEFE"></path>
                        <path d="M54.7123594,132.995873 C54.7123594,132.995873 42.9244795,157.763413 47.7587869,218.002723 C47.7587869,218.002723 98.7956257,228.63319 114.570958,208.542544 C114.570958,208.542544 105.14491,188.189471 122.974255,153.083682 C128.221351,155.851235 135.804746,162.132487 135.804746,162.132487 C131.637141,156.015784 141.810748,136.796116 148.666443,141.861688 C136.648764,125.450711 122.169956,116.25296 104.567573,111.873957 C104.567573,111.873957 100.276558,145.84634 78.929289,142.029075 C57.5820201,138.213228 83.0444081,108.686519 83.0444081,108.686519 C67.5442681,108.83972 49.2609969,109.673816 38.5682124,106.084934 C38.5682124,106.084934 31.9891286,110.139094 29.7464525,117.209049 C27.5051949,124.277586 31.899762,129.192794 31.899762,129.192794 C43.4479124,135.237151 54.7123594,132.995873 54.7123594,132.995873" id="Fill-48" fill="#24558B"></path>
                        <path d="M118.642671,90.0214965 C118.642671,90.0214965 118.610045,74.5254709 127.687138,59.7699182 C133.952729,49.5848703 123.821678,40.3020077 123.821678,40.3020077 C149.841543,25.2272856 172.265467,82.5600268 195.757534,89.0341994 C185.713012,78.7314134 197.388829,51.1055348 169.645465,29.7126786 C141.902101,8.31840383 118.6526,35.1470684 118.6526,35.1470684 C114.757351,5.89980958 53.4192389,11.8193367 63.5829163,51.5750684 C85.7798771,35.2619693 101.041706,56.1540843 110.88338,50.5579821 C100.407629,81.2521419 118.642671,90.0214965 118.642671,90.0214965" id="Fill-50" fill="#2C4259"></path>
                        <path d="M114.571384,208.54297 C105.316976,184.681871 123.03284,153.166382 123.03284,153.166382 L112.189693,147.344734 C112.189693,147.344734 100.981987,179.864542 114.571384,208.54297" id="Fill-54" fill="#18406C"></path>
                        <path d="M83.3847105,96.3931093 L83.3577586,100.655793 C83.3577586,100.655793 93.9852913,100.210374 100.622534,90.2522914 C95.8917787,95.654055 83.3847105,96.3931093 83.3847105,96.3931093" id="Fill-58" fill="#86A3C1"></path>
                    </g>
                </g>
            </g>
        </g>
    </g>
</svg>