<?xml version="1.0" encoding="UTF-8"?>
<svg width="143px" height="140px" viewBox="0 0 143 140" version="1.1" xmlns="http://www.w3.org/2000/svg" xmlns:xlink="http://www.w3.org/1999/xlink">
    <!-- Generator: Sketch 50.2 (55047) - http://www.bohemiancoding.com/sketch -->
    <title>Group 7</title>
    <desc>Created with Sketch.</desc>
    <defs>
        <circle id="path-1" cx="34.5" cy="34.5" r="34.5"></circle>
    </defs>
    <g id="Desktop" stroke="none" stroke-width="1" fill="none" fill-rule="evenodd">
        <g id="Hire" transform="translate(-698.000000, -1475.000000)">
            <g id="Group-6" transform="translate(692.000000, 1475.000000)">
                <g id="Group-7" transform="translate(6.000000, 0.000000)">
                    <rect id="Rectangle-12" stroke="#26578A" stroke-width="3" fill="#FFFFFF" x="1.5" y="1.5" width="111" height="137" rx="11"></rect>
                    <rect id="Rectangle-12" stroke="#26578A" stroke-width="3" fill="#FFFFFF" x="8.5" y="12.5" width="97" height="110" rx="6"></rect>
                    <g id="Group-19" transform="translate(19.000000, 23.000000)">
                        <path d="M19.7971598,16.072008 C19.7971598,16.072008 19.7971598,16.072008 19.7971598,16.072008 C16.8265804,13.2033475 13.0485349,14.9300693 13.0485349,12.3109275 C14.4657172,11.3854502 15.4006008,9.79693617 15.4006008,7.99263998 C15.4006008,7.4375862 15.4006008,6.5755454 15.4006008,5.40651758 C15.4261041,3.60266099 15.1152747,1.82877739 14.4681127,0.0848667848 C12.1842354,1.22680544 7.29759715,-1.81836431 6.85518836,1.98809788 C4.93282978,1.98809788 4.93282978,3.43033306 4.93282978,5.40651758 C4.93282978,6.26920299 4.93282978,7.05028274 4.93282978,7.99263998 C4.93282978,9.80232104 5.87330193,11.39493 7.29759715,12.3191959 C7.29759715,15.3107155 3.31809793,13.2479005 0.764848861,16.072008 C0.764848861,16.072008 0.764848861,16.072008 0.764848861,16.072008 L0.764848861,16.072008 C-0.332211349,17.2854485 -0.237866464,19.1584794 0.975574061,20.2555396 C1.52006528,20.747809 2.22794742,21.0203651 2.96197729,21.0203651 L17.7978484,21.0204707 C19.3873897,21.0204707 20.6759675,19.7318929 20.6759675,18.1423517 C20.6759675,17.361606 20.3587807,16.61436 19.7971598,16.072008 Z" id="Combined-Shape" fill="#26578A"></path>
                        <path d="M0,30 L18,30" id="Path-6-Copy-4" stroke="#26578A" stroke-width="3" stroke-linecap="round" stroke-linejoin="round"></path>
                        <path d="M0,36 L12,36" id="Path-6-Copy-4" stroke="#26578A" stroke-width="3" stroke-linecap="round" stroke-linejoin="round"></path>
                    </g>
                    <g id="Group-19-Copy" transform="translate(48.000000, 23.000000)">
                        <path d="M19.7971598,16.072008 C19.7971598,16.072008 19.7971598,16.072008 19.7971598,16.072008 C16.8265804,13.2033475 13.0485349,14.9300693 13.0485349,12.3109275 C14.4657172,11.3854502 15.4006008,9.79693617 15.4006008,7.99263998 C15.4006008,7.4375862 15.4006008,6.5755454 15.4006008,5.40651758 C15.4261041,3.60266099 15.1152747,1.82877739 14.4681127,0.0848667848 C12.1842354,1.22680544 7.29759715,-1.81836431 6.85518836,1.98809788 C4.93282978,1.98809788 4.93282978,3.43033306 4.93282978,5.40651758 C4.93282978,6.26920299 4.93282978,7.05028274 4.93282978,7.99263998 C4.93282978,9.80232104 5.87330193,11.39493 7.29759715,12.3191959 C7.29759715,15.3107155 3.31809793,13.2479005 0.764848861,16.072008 C0.764848861,16.072008 0.764848861,16.072008 0.764848861,16.072008 L0.764848861,16.072008 C-0.332211349,17.2854485 -0.237866464,19.1584794 0.975574061,20.2555396 C1.52006528,20.747809 2.22794742,21.0203651 2.96197729,21.0203651 L17.7978484,21.0204707 C19.3873897,21.0204707 20.6759675,19.7318929 20.6759675,18.1423517 C20.6759675,17.361606 20.3587807,16.61436 19.7971598,16.072008 Z" id="Combined-Shape" fill="#26578A"></path>
                        <path d="M0,30 L18,30" id="Path-6-Copy-4" stroke="#26578A" stroke-width="3" stroke-linecap="round" stroke-linejoin="round"></path>
                        <path d="M0,36 L12,36" id="Path-6-Copy-4" stroke="#26578A" stroke-width="3" stroke-linecap="round" stroke-linejoin="round"></path>
                    </g>
                    <g id="Group-19-Copy-2" transform="translate(75.000000, 23.000000)">
                        <path d="M19.7971598,16.072008 C19.7971598,16.072008 19.7971598,16.072008 19.7971598,16.072008 C16.8265804,13.2033475 13.0485349,14.9300693 13.0485349,12.3109275 C14.4657172,11.3854502 15.4006008,9.79693617 15.4006008,7.99263998 C15.4006008,7.4375862 15.4006008,6.5755454 15.4006008,5.40651758 C15.4261041,3.60266099 15.1152747,1.82877739 14.4681127,0.0848667848 C12.1842354,1.22680544 7.29759715,-1.81836431 6.85518836,1.98809788 C4.93282978,1.98809788 4.93282978,3.43033306 4.93282978,5.40651758 C4.93282978,6.26920299 4.93282978,7.05028274 4.93282978,7.99263998 C4.93282978,9.80232104 5.87330193,11.39493 7.29759715,12.3191959 C7.29759715,15.3107155 3.31809793,13.2479005 0.764848861,16.072008 C0.764848861,16.072008 0.764848861,16.072008 0.764848861,16.072008 L0.764848861,16.072008 C-0.332211349,17.2854485 -0.237866464,19.1584794 0.975574061,20.2555396 C1.52006528,20.747809 2.22794742,21.0203651 2.96197729,21.0203651 L17.7978484,21.0204707 C19.3873897,21.0204707 20.6759675,19.7318929 20.6759675,18.1423517 C20.6759675,17.361606 20.3587807,16.61436 19.7971598,16.072008 Z" id="Combined-Shape" fill="#26578A"></path>
                        <path d="M0,30 L18,30" id="Path-6-Copy-4" stroke="#26578A" stroke-width="3" stroke-linecap="round" stroke-linejoin="round"></path>
                        <path d="M0,36 L12,36" id="Path-6-Copy-4" stroke="#26578A" stroke-width="3" stroke-linecap="round" stroke-linejoin="round"></path>
                    </g>
                    <g id="Group-19" transform="translate(19.000000, 73.000000)">
                        <path d="M19.7971598,16.072008 C19.7971598,16.072008 19.7971598,16.072008 19.7971598,16.072008 C16.8265804,13.2033475 13.0485349,14.9300693 13.0485349,12.3109275 C14.4657172,11.3854502 15.4006008,9.79693617 15.4006008,7.99263998 C15.4006008,7.4375862 15.4006008,6.5755454 15.4006008,5.40651758 C15.4261041,3.60266099 15.1152747,1.82877739 14.4681127,0.0848667848 C12.1842354,1.22680544 7.29759715,-1.81836431 6.85518836,1.98809788 C4.93282978,1.98809788 4.93282978,3.43033306 4.93282978,5.40651758 C4.93282978,6.26920299 4.93282978,7.05028274 4.93282978,7.99263998 C4.93282978,9.80232104 5.87330193,11.39493 7.29759715,12.3191959 C7.29759715,15.3107155 3.31809793,13.2479005 0.764848861,16.072008 C0.764848861,16.072008 0.764848861,16.072008 0.764848861,16.072008 L0.764848861,16.072008 C-0.332211349,17.2854485 -0.237866464,19.1584794 0.975574061,20.2555396 C1.52006528,20.747809 2.22794742,21.0203651 2.96197729,21.0203651 L17.7978484,21.0204707 C19.3873897,21.0204707 20.6759675,19.7318929 20.6759675,18.1423517 C20.6759675,17.361606 20.3587807,16.61436 19.7971598,16.072008 Z" id="Combined-Shape" fill="#26578A"></path>
                        <path d="M0,30 L18,30" id="Path-6-Copy-4" stroke="#26578A" stroke-width="3" stroke-linecap="round" stroke-linejoin="round"></path>
                        <path d="M0,36 L12,36" id="Path-6-Copy-4" stroke="#26578A" stroke-width="3" stroke-linecap="round" stroke-linejoin="round"></path>
                    </g>
                    <g id="Group-14" transform="translate(48.000000, 73.000000)">
                        <path d="M19.7971598,16.072008 C19.7971598,16.072008 19.7971598,16.072008 19.7971598,16.072008 C16.8265804,13.2033475 13.0485349,14.9300693 13.0485349,12.3109275 C14.4657172,11.3854502 15.4006008,9.79693617 15.4006008,7.99263998 C15.4006008,7.4375862 15.4006008,6.5755454 15.4006008,5.40651758 C15.4261041,3.60266099 15.1152747,1.82877739 14.4681127,0.0848667848 C12.1842354,1.22680544 7.29759715,-1.81836431 6.85518836,1.98809788 C4.93282978,1.98809788 4.93282978,3.43033306 4.93282978,5.40651758 C4.93282978,6.26920299 4.93282978,7.05028274 4.93282978,7.99263998 C4.93282978,9.80232104 5.87330193,11.39493 7.29759715,12.3191959 C7.29759715,15.3107155 3.31809793,13.2479005 0.764848861,16.072008 C0.764848861,16.072008 0.764848861,16.072008 0.764848861,16.072008 L0.764848861,16.072008 C-0.332211349,17.2854485 -0.237866464,19.1584794 0.975574061,20.2555396 C1.52006528,20.747809 2.22794742,21.0203651 2.96197729,21.0203651 L17.7978484,21.0204707 C19.3873897,21.0204707 20.6759675,19.7318929 20.6759675,18.1423517 C20.6759675,17.361606 20.3587807,16.61436 19.7971598,16.072008 Z" id="Combined-Shape" fill="#26578A"></path>
                        <path d="M0,30 L18,30" id="Path-6-Copy-4" stroke="#26578A" stroke-width="3" stroke-linecap="round" stroke-linejoin="round"></path>
                        <path d="M0,36 L12,36" id="Path-6-Copy-4" stroke="#26578A" stroke-width="3" stroke-linecap="round" stroke-linejoin="round"></path>
                    </g>
                    <g id="Group-14-Copy" transform="translate(75.000000, 73.000000)">
                        <path d="M19.7971598,16.072008 C19.7971598,16.072008 19.7971598,16.072008 19.7971598,16.072008 C16.8265804,13.2033475 13.0485349,14.9300693 13.0485349,12.3109275 C14.4657172,11.3854502 15.4006008,9.79693617 15.4006008,7.99263998 C15.4006008,7.4375862 15.4006008,6.5755454 15.4006008,5.40651758 C15.4261041,3.60266099 15.1152747,1.82877739 14.4681127,0.0848667848 C12.1842354,1.22680544 7.29759715,-1.81836431 6.85518836,1.98809788 C4.93282978,1.98809788 4.93282978,3.43033306 4.93282978,5.40651758 C4.93282978,6.26920299 4.93282978,7.05028274 4.93282978,7.99263998 C4.93282978,9.80232104 5.87330193,11.39493 7.29759715,12.3191959 C7.29759715,15.3107155 3.31809793,13.2479005 0.764848861,16.072008 C0.764848861,16.072008 0.764848861,16.072008 0.764848861,16.072008 L0.764848861,16.072008 C-0.332211349,17.2854485 -0.237866464,19.1584794 0.975574061,20.2555396 C1.52006528,20.747809 2.22794742,21.0203651 2.96197729,21.0203651 L17.7978484,21.0204707 C19.3873897,21.0204707 20.6759675,19.7318929 20.6759675,18.1423517 C20.6759675,17.361606 20.3587807,16.61436 19.7971598,16.072008 Z" id="Combined-Shape" fill="#26578A"></path>
                        <path d="M0,30 L18,30" id="Path-6-Copy-4" stroke="#26578A" stroke-width="3" stroke-linecap="round" stroke-linejoin="round"></path>
                        <path d="M0,36 L12,36" id="Path-6-Copy-4" stroke="#26578A" stroke-width="3" stroke-linecap="round" stroke-linejoin="round"></path>
                    </g>
                    <g id="Group-9" transform="translate(46.000000, 43.000000)">
                        <g id="Group-6-Copy">
                            <mask id="mask-2" fill="white">
                                <use xlink:href="#path-1"></use>
                            </mask>
                            <g id="Mask">
                                <circle stroke="#FFFFFF" stroke-width="8" fill="#E5F3FE" fill-rule="evenodd" cx="34.5" cy="34.5" r="38.5"></circle>
                                <circle stroke="#26578A" stroke-width="4" cx="34.5" cy="34.5" r="36.5"></circle>
                            </g>
                            <g mask="url(#mask-2)" id="Group-3-Copy">
                                <g transform="translate(8.000000, 7.000000)">
                                    <g>
                                        <path d="M14.2604167,26.8820945 L14.2604167,78.2343467 L24.0727559,78.2343467 C32.0041646,78.2343467 38.6559293,72.2468803 39.4873577,64.3591703 L40.7312732,52.5582206 L39.4873577,40.7572709 C38.6559293,32.8695609 32.0041646,26.8820945 24.0727559,26.8820945 L14.2604167,26.8820945 Z" id="Rectangle-7-Copy-3" stroke="#26578A" stroke-width="3" fill="#E5F3FE" transform="translate(27.500000, 52.558221) rotate(-90.000000) translate(-27.500000, -52.558221) "></path>
                                        <path d="M20.40625,33.7716497 L20.40625,38.1337289 L26.9270833,41.3557468 L33.4479167,38.1337289 L33.4479167,33.7716497 L20.40625,33.7716497 Z" id="Rectangle-6-Copy-2" stroke="#26578A" stroke-width="3" fill="#FFFFFF"></path>
                                        <path d="M26.69975,36.3626637 C34.2936653,36.3626637 40.44975,30.2790807 40.44975,22.7746007 C40.44975,21.3164126 40.44975,19.0517354 40.44975,15.9805692 C40.9544086,11.5506507 41.2090528,8.34235807 41.2136824,6.3556912 C41.2206269,3.37569089 40.44975,0.127828976 40.44975,0.127828976 C30.13725,2.39250615 9.70326576,-7.23237183 12.94975,15.9805692 C12.94975,18.2469398 12.94975,20.2989233 12.94975,22.7746007 C12.94975,30.2790807 19.1058347,36.3626637 26.69975,36.3626637 Z" id="Oval-3-Copy-3" stroke="#26578A" stroke-width="3" fill="#FFFFFF" stroke-linecap="round"></path>
                                        <path d="M17.1875,12.4557244 C18.215812,10.1910473 20.4438212,9.05870869 23.8715278,9.05870869 C27.2992343,9.05870869 31.7552528,10.049505 37.2395833,12.0310975" id="Path-3-Copy-3" stroke="#26578A" stroke-width="3" fill="#FFFFFF" stroke-linecap="round"></path>
                                        <path d="M11.5,55.425882 L11.5,66.1830986" id="Path-5-Copy-6" stroke="#26578A" stroke-width="3" fill="#FFFFFF" stroke-linecap="round"></path>
                                        <path d="M43.5,55.425882 L43.5,66.1830986" id="Path-5-Copy-7" stroke="#26578A" stroke-width="3" fill="#FFFFFF" stroke-linecap="round"></path>
                                        <path d="M23.7207348,40.2692456 L23.2295932,40.9626132 L23.2446585,40.9767782 L24.0391669,40.4442852 L24.0241168,40.2942016 L23.7207348,40.2692456 Z M27.1870735,40.5657649 L21.2102388,49.0035423 L16.2072749,42.0818824 L23.5590696,37.1545842 L27.1870735,40.5657649 Z" id="Rectangle-6-Copy-10" stroke="#26578A" stroke-width="3" fill="#FFFFFF" stroke-linecap="round" stroke-linejoin="round" transform="translate(21.770833, 42.745782) scale(-1, 1) translate(-21.770833, -42.745782) "></path>
                                        <path d="M34.0332348,40.2692456 L33.5420932,40.9626132 L33.5571585,40.9767782 L34.3516669,40.4442852 L34.3366168,40.2942016 L34.0332348,40.2692456 Z M37.4995735,40.5657649 L31.5227388,49.0035423 L26.5197749,42.0818824 L33.8715696,37.1545842 L37.4995735,40.5657649 Z" id="Rectangle-6-Copy-11" stroke="#26578A" stroke-width="3" fill="#FFFFFF" stroke-linecap="round" stroke-linejoin="round"></path>
                                    </g>
                                </g>
                            </g>
                        </g>
                        <rect id="Rectangle-11-Copy" stroke="#FFFFFF" stroke-width="2" fill="#26578A" transform="translate(78.000000, 76.500000) rotate(-45.000000) translate(-78.000000, -76.500000) " x="69" y="55" width="18" height="43" rx="9"></rect>
                        <rect id="Rectangle-11" fill="#26578A" transform="translate(66.500000, 64.500000) rotate(-45.000000) translate(-66.500000, -64.500000) " x="62" y="57" width="9" height="15"></rect>
                        <g id="Group-11" transform="translate(73.000000, 67.000000)" stroke="#FFFFFF" stroke-linecap="round" stroke-width="2">
                            <path d="M0,0 L11,11" id="Path-7"></path>
                            <path d="M14,14 L16,16" id="Path-7-Copy"></path>
                        </g>
                    </g>
                    <circle id="Oval-9" stroke="#26578A" stroke-width="3" fill="#FFFFFF" cx="56" cy="130" r="3"></circle>
                    <circle id="Oval-9-Copy" fill="#26578A" cx="56" cy="7" r="2"></circle>
                </g>
            </g>
        </g>
    </g>
</svg>