<?xml version="1.0" encoding="UTF-8"?>
<svg width="114px" height="140px" viewBox="0 0 114 140" version="1.1" xmlns="http://www.w3.org/2000/svg" xmlns:xlink="http://www.w3.org/1999/xlink">
    <!-- Generator: Sketch 50.2 (55047) - http://www.bohemiancoding.com/sketch -->
    <title>Group 8</title>
    <desc>Created with Sketch.</desc>
    <defs></defs>
    <g id="Desktop" stroke="none" stroke-width="1" fill="none" fill-rule="evenodd">
        <g id="Hire" transform="translate(-1074.000000, -1475.000000)">
            <g id="Group-10" transform="translate(1073.000000, 1475.000000)">
                <g id="Group-8" transform="translate(1.000000, 0.000000)">
                    <rect id="Rectangle-12-Copy" stroke="#26578A" stroke-width="3" fill="#FFFFFF" x="1.5" y="1.5" width="111" height="137" rx="11"></rect>
                    <rect id="Rectangle-12-Copy-2" stroke="#26578A" stroke-width="3" fill="#FFFFFF" x="8.5" y="12.5" width="97" height="110" rx="6"></rect>
                    <path d="M12,14 L102,14 C103.104569,14 104,14.8954305 104,16 L104,46 L10,33 L10,16 C10,14.8954305 10.8954305,14 12,14 Z" id="Rectangle" fill="#E5F3FE"></path>
                    <g id="Group-10-Copy-3" transform="translate(24.000000, 74.000000)" stroke="#26578A" stroke-linecap="round" stroke-linejoin="round" stroke-width="3">
                        <path d="M0,1 L39,1" id="Path-6"></path>
                        <path d="M0,17.5 L46,17.5" id="Path-6-Copy-4"></path>
                        <path d="M46,1 L66,1" id="Path-6-Copy"></path>
                        <path d="M56,17.5 L65,17.5" id="Path-6-Copy-5"></path>
                        <path d="M0,9.5 L21,9.5" id="Path-6-Copy-2"></path>
                        <path d="M29,9.5 L65,9.5" id="Path-6-Copy-3"></path>
                    </g>
                    <circle id="Oval-9-Copy-2" stroke="#26578A" stroke-width="3" fill="#FFFFFF" cx="56" cy="130" r="3"></circle>
                    <circle id="Oval-9-Copy-3" fill="#26578A" cx="56" cy="7" r="2"></circle>
                    <g id="Group-3" transform="translate(18.000000, 24.000000)" stroke="#26578A" stroke-width="2">
                        <g id="Group-20" transform="translate(48.000000, 3.000000)">
                            <path d="M11.7027027,16.4306249 L11.7027027,46.9027084 C16.3608058,46.4376821 20.1305539,42.7583169 20.6274324,38.0125061 L21.2918314,31.6666667 L20.6274324,25.3208272 C20.1305539,20.5750164 16.3608058,16.8956512 11.7027027,16.4306249 Z" id="Rectangle-7-Copy-2" fill="#E5F3FE" transform="translate(16.500000, 31.666667) rotate(-90.000000) translate(-16.500000, -31.666667) "></path>
                            <path d="M11.7027027,22.7142857 L11.7027027,25.0825862 L15.6081081,26.9402537 L19.5135135,25.0825862 L19.5135135,22.7142857 L11.7027027,22.7142857 Z" id="Rectangle-6-Copy" fill="#FFFFFF"></path>
                            <path d="M16.5064562,23.5238095 C20.7929308,23.5238095 24.3756262,18.8653474 24.3756262,11.8058855 C26.6393529,9.52740023 26.7761107,5.26864029 23.2188258,4.29214662 C23.4587908,2.84296964 22.1118994,0.738957178 20.1715622,1.38995296 C20.1715622,-0.264823853 14.3505506,-0.888532276 13.2174205,2.07064383 C11.1166552,1.38995296 9.49970756,4.31943397 6.91259128,2.69194452 C4.64886453,5.29592765 8.85292849,10.5364449 8.85292849,11.8058855 C8.85292849,19.3339815 12.2199816,23.5238095 16.5064562,23.5238095 Z" id="Oval-3-Copy-2" fill="#FFFFFF" stroke-linecap="round" transform="translate(16.120120, 11.761905) scale(-1, 1) translate(-16.120120, -11.761905) "></path>
                            <path d="M9.81081081,10.8571429 C10.753668,10.8571429 11.6710425,9.95238095 12.5629344,8.14285714 C13.811583,9.95238095 16.4617761,10.7440476 20.5135135,10.5178571" id="Path-3-Copy-2" fill="#FFFFFF" stroke-linecap="round" stroke-linejoin="round"></path>
                            <path d="M24.972973,33.4761905 L24.972973,36.1904762" id="Path-5-Copy-5" fill="#FFFFFF" stroke-linecap="round"></path>
                            <path d="M14.0895062,27.0467838 L13.8117942,27.4182819 L13.889025,27.4870889 L14.4089947,27.1568725 L14.4004344,27.0720199 L14.0895062,27.0467838 Z M16.5125301,27.1458207 L12.5688718,32.4212915 L9.24669107,28.0660598 L14.0917715,24.9891015 L16.5125301,27.1458207 Z" id="Rectangle-6-Copy-8" fill="#E5F3FE" stroke-linecap="round" stroke-linejoin="round" transform="translate(12.932432, 28.500000) scale(-1, 1) translate(-12.932432, -28.500000) "></path>
                            <path d="M20.3327495,27.0467838 L20.0550374,27.4182819 L20.1322683,27.4870889 L20.652238,27.1568725 L20.6436777,27.0720199 L20.3327495,27.0467838 Z M22.7557734,27.1458207 L18.812115,32.4212915 L15.4899343,28.0660598 L20.3350148,24.9891015 L22.7557734,27.1458207 Z" id="Rectangle-6-Copy-9" fill="#E5F3FE" stroke-linecap="round" stroke-linejoin="round"></path>
                        </g>
                        <g id="Group-17" transform="translate(0.000000, 5.000000)">
                            <path d="M10.1176471,13.5701057 L10.1176471,41.9035785 C15.3836008,41.4405224 19.6878031,37.3547286 20.3462571,32.0193187 L20.8747664,27.7368421 L20.3462571,23.4543655 C19.6878031,18.1189556 15.3836008,14.0331618 10.1176471,13.5701057 Z" id="Rectangle-7-Copy" fill="#E5F3FE" transform="translate(15.500000, 27.736842) rotate(-90.000000) translate(-15.500000, -27.736842) "></path>
                            <path d="M7.93568133,4.57894737 L7.67869053,5.1393725 C6.98807618,6.64540947 6.68248415,8.29944381 6.78937847,9.95282493 C7.14569743,15.4641661 11.9023758,19.6431373 17.4137169,19.2868183 L21.9304794,18.9948008 L22.0419121,19.0128116 C22.8146103,19.1377028 23.6070058,19.0134877 24.3044227,18.6581429 C26.1190672,17.7335533 26.8405992,15.5129654 25.9160096,13.6983209 L21.2695468,4.57894737 L7.93568133,4.57894737 Z" id="Rectangle-6-Copy-4" fill="#FFFFFF"></path>
                            <path d="M11.6129914,18 L11.0505397,21.9338807 C11.7019701,23.9989934 12.9733921,24.9473684 15.0441176,24.9473684 C17.1148431,24.9473684 18.3862652,23.9989934 19.0376956,21.9338807 L18.4752439,18 L11.6129914,18 Z" id="Rectangle-6-Copy-3" fill="#FFFFFF"></path>
                            <path d="M14.5882353,20.3434903 C19.0830813,20.3434903 22.7268739,16.5215529 22.7268739,12.2062464 C22.7268739,7.89093988 24.0855601,0.0656664461 14.5882353,0.000380497402 C5.09091051,-0.0649054513 6.44959671,8.2878111 6.44959671,12.2062464 C6.44959671,16.1246817 10.0933893,20.3434903 14.5882353,20.3434903 Z" id="Oval-3-Copy" fill="#FFFFFF" stroke-linecap="round"></path>
                            <path d="M9.11764706,7.15789474 C11.1235294,7.15789474 12.5823529,6.26315789 13.4941176,4.47368421 C14.7705882,6.26315789 16.9588235,7.04605263 20.0588235,6.82236842" id="Path-3-Copy" fill="#FFFFFF" stroke-linecap="round" stroke-linejoin="round"></path>
                            <path d="M8.20588235,30.4210526 L8.20588235,33.1052632" id="Path-5-Copy-2" fill="#FFFFFF" stroke-linecap="round"></path>
                        </g>
                        <g id="Group-21" transform="translate(19.000000, 0.000000)">
                            <path d="M14.3695652,16.2687612 L14.3695652,54.5020722 C20.320686,54.0291061 25.1698838,49.3710206 25.7974104,43.3398062 L26.6250365,35.3854167 L25.7974104,27.4310271 C25.1698838,21.3998128 20.320686,16.7417272 14.3695652,16.2687612 Z" id="Rectangle-7-Copy-3" fill="#E5F3FE" transform="translate(20.500000, 35.385417) rotate(-90.000000) translate(-20.500000, -35.385417) "></path>
                            <path d="M15.2608696,24.2916667 L15.2608696,27.7727083 L20.0543478,30.2303895 L24.8478261,27.7727083 L24.8478261,24.2916667 L15.2608696,24.2916667 Z" id="Rectangle-6-Copy-2" fill="#FFFFFF"></path>
                            <path d="M20.3435832,26.875 C26.0215363,26.875 30.6244268,22.3787316 30.6244268,16.8323035 C30.6244268,15.7545826 30.6244268,14.0807998 30.6244268,11.8109553 C31.0017589,8.53688115 31.1921557,6.16568893 31.1956173,4.69737867 C31.2008097,2.49491328 30.6244268,0.0944761299 30.6244268,0.0944761299 C22.9137941,1.76825887 7.63535086,-5.34531778 10.0627397,11.8109553 C10.0627397,13.4859897 10.0627397,15.0025743 10.0627397,16.8323035 C10.0627397,22.3787316 14.6656301,26.875 20.3435832,26.875 Z" id="Oval-3-Copy-3" fill="#FFFFFF" stroke-linecap="round"></path>
                            <path d="M13.3695652,8.95833333 C14.1008919,7.16666667 15.6854329,6.27083333 18.1231884,6.27083333 C20.5609439,6.27083333 23.730026,7.0546875 27.6304348,8.62239583" id="Path-3-Copy-3" fill="#FFFFFF" stroke-linecap="round"></path>
                            <path d="M9.35869565,36.7291667 L9.35869565,42.1041667" id="Path-5-Copy-6" fill="#FFFFFF" stroke-linecap="round"></path>
                            <path d="M33.423913,36.7291667 L33.423913,42.1041667" id="Path-5-Copy-7" fill="#FFFFFF" stroke-linecap="round"></path>
                            <path d="M17.8310398,29.4380448 L17.511739,29.9458793 L17.8981901,29.6540859 L17.8774035,29.4419353 L17.8310398,29.4380448 Z M19.9761785,29.7837145 L16.1262802,35.9068171 L12.9189102,30.9076525 L17.6586604,27.3288609 L19.9761785,29.7837145 Z" id="Rectangle-6-Copy-10" fill="#E5F3FE" stroke-linecap="round" stroke-linejoin="round" transform="translate(16.489130, 31.354167) scale(-1, 1) translate(-16.489130, -31.354167) "></path>
                            <path d="M25.8527789,29.4380448 L25.5334782,29.9458793 L25.9199292,29.6540859 L25.8991426,29.4419353 L25.8527789,29.4380448 Z M27.9979176,29.7837145 L24.1480194,35.9068171 L20.9406493,30.9076525 L25.6803995,27.3288609 L27.9979176,29.7837145 Z" id="Rectangle-6-Copy-11" fill="#E5F3FE" stroke-linecap="round" stroke-linejoin="round"></path>
                        </g>
                    </g>
                    <rect id="Rectangle-13" fill="#26578A" x="34" y="100" width="45" height="14" rx="7"></rect>
                    <path d="M50.212,104.4 L50.212,110 L48.916,110 L48.916,107.704 L46.372,107.704 L46.372,110 L45.076,110 L45.076,104.4 L46.372,104.4 L46.372,106.608 L48.916,106.608 L48.916,104.4 L50.212,104.4 Z M52.5,104.4 L53.796,104.4 L53.796,110 L52.5,110 L52.5,104.4 Z M59.652,110 L58.572,108.44 L57.38,108.44 L57.38,110 L56.084,110 L56.084,104.4 L58.508,104.4 C59.0040025,104.4 59.4346648,104.482666 59.8,104.648 C60.1653352,104.813334 60.4466657,105.047998 60.644,105.352 C60.8413343,105.656002 60.94,106.015998 60.94,106.432 C60.94,106.848002 60.840001,107.206665 60.64,107.508 C60.439999,107.809335 60.1560018,108.039999 59.788,108.2 L61.044,110 L59.652,110 Z M59.324,105.708 C59.1213323,105.539999 58.8253353,105.456 58.436,105.456 L57.38,105.456 L57.38,107.408 L58.436,107.408 C58.8253353,107.408 59.1213323,107.322668 59.324,107.152 C59.5266677,106.981332 59.628,106.741335 59.628,106.432 C59.628,106.117332 59.5266677,105.876001 59.324,105.708 Z M67.26,108.96 L67.26,110 L62.924,110 L62.924,104.4 L67.156,104.4 L67.156,105.44 L64.212,105.44 L64.212,106.656 L66.812,106.656 L66.812,107.664 L64.212,107.664 L64.212,108.96 L67.26,108.96 Z" id="HIRE" fill="#FFFFFF"></path>
                </g>
            </g>
        </g>
    </g>
</svg>