<?xml version="1.0" encoding="UTF-8"?>
<svg width="32px" height="32px" viewBox="0 0 32 32" version="1.1" xmlns="http://www.w3.org/2000/svg" xmlns:xlink="http://www.w3.org/1999/xlink">
    <!-- Generator: Sketch 50.1 (55044) - http://www.bohemiancoding.com/sketch -->
    <title>Combined Shape</title>
    <desc>Created with Sketch.</desc>
    <defs></defs>
    <g id="instagram" stroke="none" stroke-width="1" fill="none" fill-rule="evenodd">
        <g id="Footer" transform="translate(-1575.000000, -115.000000)" fill="#FFFFFF">
            <path d="M1575,131 C1575,122.163444 1582.16344,115 1591,115 C1599.83656,115 1607,122.163444 1607,131 C1607,139.836556 1599.83656,147 1591,147 C1582.16344,147 1575,139.836556 1575,131 Z M1591.0008,122.466667 C1588.68326,122.466667 1588.39242,122.4768 1587.48219,122.518223 C1586.57373,122.559823 1585.95364,122.703647 1585.41105,122.914671 C1584.8498,123.132629 1584.37371,123.424188 1583.89939,123.898682 C1583.42472,124.372998 1583.13316,124.849091 1582.91449,125.410164 C1582.70294,125.952925 1582.55893,126.573198 1582.51804,127.481297 C1582.47733,128.391528 1582.46667,128.682554 1582.46667,131.000089 C1582.46667,133.317624 1582.47698,133.607583 1582.51822,134.517814 C1582.56,135.426268 1582.70382,136.046364 1582.91467,136.588947 C1583.13281,137.150197 1583.42437,137.626291 1583.89886,138.100607 C1584.373,138.575279 1584.84909,138.867549 1585.40999,139.085506 C1585.95293,139.296531 1586.5732,139.440355 1587.48147,139.481955 C1588.39171,139.523378 1588.68238,139.533511 1590.99973,139.533511 C1593.31745,139.533511 1593.6074,139.523378 1594.51764,139.481955 C1595.42609,139.440355 1596.0469,139.296531 1596.58984,139.085506 C1597.15091,138.867549 1597.62629,138.575279 1598.10043,138.100607 C1598.5751,137.626291 1598.86666,137.150197 1599.08533,136.589125 C1599.29511,136.046364 1599.43911,135.426091 1599.48178,134.517992 C1599.52267,133.60776 1599.53333,133.317624 1599.53333,131.000089 C1599.53333,128.682554 1599.52267,128.391706 1599.48178,127.481474 C1599.43911,126.573021 1599.29511,125.952925 1599.08533,125.410342 C1598.86666,124.849091 1598.5751,124.372998 1598.10043,123.898682 C1597.62576,123.42401 1597.15109,123.132451 1596.5893,122.914671 C1596.0453,122.703647 1595.42485,122.559823 1594.51639,122.518223 C1593.60616,122.4768 1593.31638,122.466667 1590.99813,122.466667 L1591.0008,122.466667 Z M1590.23528,124.00446 C1590.46248,124.004105 1590.716,124.00446 1591.0008,124.00446 C1593.27922,124.00446 1593.54927,124.012638 1594.44901,124.053528 C1595.28102,124.091572 1595.73258,124.230596 1596.03339,124.347397 C1596.43161,124.502066 1596.71553,124.686956 1597.01402,124.985626 C1597.31269,125.284296 1597.49758,125.568743 1597.6526,125.96697 C1597.7694,126.267417 1597.90861,126.718978 1597.94647,127.550986 C1597.98736,128.450551 1597.99625,128.720776 1597.99625,130.998133 C1597.99625,133.27549 1597.98736,133.545715 1597.94647,134.44528 C1597.90843,135.277289 1597.7694,135.728849 1597.6526,136.029297 C1597.49793,136.427523 1597.31269,136.711082 1597.01402,137.009574 C1596.71535,137.308243 1596.43179,137.493134 1596.03339,137.647803 C1595.73294,137.765137 1595.28102,137.903805 1594.44901,137.94185 C1593.54945,137.982739 1593.27922,137.991628 1591.0008,137.991628 C1588.7222,137.991628 1588.45215,137.982739 1587.55259,137.94185 C1586.72058,137.90345 1586.26902,137.764426 1585.96804,137.647625 C1585.56981,137.492957 1585.28536,137.308066 1584.98669,137.009396 C1584.68802,136.710726 1584.50313,136.42699 1584.34811,136.028586 C1584.23131,135.728138 1584.09211,135.276578 1584.05424,134.444569 C1584.01335,133.545004 1584.00517,133.274779 1584.00517,130.996 C1584.00517,128.717221 1584.01335,128.448418 1584.05424,127.548853 C1584.09228,126.716844 1584.23131,126.265284 1584.34811,125.964481 C1584.50278,125.566255 1584.68802,125.281807 1584.98669,124.983137 C1585.28536,124.684468 1585.56981,124.499577 1585.96804,124.344553 C1586.26884,124.227218 1586.72058,124.08855 1587.55259,124.050328 C1588.33979,124.014772 1588.64486,124.004105 1590.23528,124.002327 L1590.23528,124.00446 Z M1595.55587,125.421364 C1594.99053,125.421364 1594.53186,125.879502 1594.53186,126.445019 C1594.53186,127.010358 1594.99053,127.46903 1595.55587,127.46903 C1596.12121,127.46903 1596.57988,127.010358 1596.57988,126.445019 C1596.57988,125.87968 1596.12121,125.421009 1595.55587,125.421009 L1595.55587,125.421364 Z M1591.0008,126.617821 C1588.58069,126.617821 1586.61853,128.579975 1586.61853,131.000089 C1586.61853,133.420203 1588.58069,135.381468 1591.0008,135.381468 C1593.42091,135.381468 1595.38236,133.420203 1595.38236,131.000089 C1595.38236,128.579975 1593.42074,126.617821 1591.00062,126.617821 L1591.0008,126.617821 Z M1591.0008,128.155615 C1592.57166,128.155615 1593.84527,129.42905 1593.84527,131.000089 C1593.84527,132.57095 1592.57166,133.844563 1591.0008,133.844563 C1589.42976,133.844563 1588.15633,132.57095 1588.15633,131.000089 C1588.15633,129.42905 1589.42976,128.155615 1591.0008,128.155615 Z" id="Combined-Shape"></path>
        </g>
    </g>
</svg>