<?xml version="1.0" encoding="UTF-8"?>
<svg width="170px" height="109px" viewBox="0 0 170 109" version="1.1" xmlns="http://www.w3.org/2000/svg" xmlns:xlink="http://www.w3.org/1999/xlink">
    <!-- Generator: Sketch 50.1 (55044) - http://www.bohemiancoding.com/sketch -->
    <title>Group 8</title>
    <desc>Created with Sketch.</desc>
    <defs></defs>
    <g id="jb-footer-logo" stroke="none" stroke-width="1" fill="none" fill-rule="evenodd" opacity="0.604166667">
        <g id="Footer" transform="translate(-375.000000, -76.000000)" fill="#FFFFFF">
            <g id="Group-8" transform="translate(375.000000, 76.000000)">
                <path d="M8.39278803,89.8834541 L8.39278803,73.1390344 L13.9624894,73.1390344 L13.9624894,89.8834541 C13.9624894,91.4267919 13.6709404,92.8746656 13.0862492,94.2302571 C12.501558,95.5842576 11.7065692,96.7648315 10.7012827,97.7703877 C9.69440303,98.7743528 8.51386849,99.5682967 7.15808592,100.152219 C5.80071018,100.734551 4.34933776,101.025717 2.80396867,101.025717 C1.87037455,101.025717 0.935187276,100.909569 0,100.677272 L0,94.6868942 C0.415815808,94.93351 0.863494896,95.1212563 1.34463043,95.251724 C1.8241728,95.3806007 2.31168098,95.4458345 2.80396867,95.4458345 C3.57187372,95.4458345 4.29517018,95.2994561 4.97545122,95.0082903 C5.65732541,94.7171245 6.25157559,94.317766 6.75820175,93.8118057 C7.26323474,93.3058455 7.66311891,92.7171496 7.95626109,92.042536 C8.2478101,91.3679224 8.39278803,90.6487588 8.39278803,89.8834541 Z M40.6795313,101.025717 L40.6795313,80.1986116 L46.0341556,80.1986116 L46.0341556,101.025717 L40.6795313,101.025717 Z M45.8990553,72.0405597 C46.2224675,72.3587737 46.478967,72.7342662 46.6669603,73.1686283 C46.8565468,73.6029904 46.9489503,74.0596274 46.9489503,74.5385395 C46.9489503,75.0317712 46.8565468,75.4915904 46.6669603,75.9195882 C46.478967,76.347586 46.2224675,76.7198963 45.8990553,77.0381103 C45.5740498,77.3563243 45.1948768,77.6093044 44.7583498,77.7970507 C44.3250092,77.9847969 43.8598053,78.07867 43.3675176,78.07867 C42.8736368,78.07867 42.4100261,77.9847969 41.9750923,77.7970507 C41.5401585,77.6093044 41.1625786,77.3563243 40.845539,77.0381103 C40.5269062,76.7198963 40.2735931,76.347586 40.0871929,75.9195882 C39.8960132,75.4915904 39.8036097,75.0317712 39.8036097,74.5385395 C39.8036097,74.0596274 39.8960132,73.6029904 40.0871929,73.1686283 C40.2735931,72.7342662 40.5269062,72.3587737 40.845539,72.0405597 C41.1625786,71.7223457 41.5401585,71.4709567 41.9750923,71.2816194 C42.4100261,71.0938731 42.8736368,71 43.3675176,71 C43.8598053,71 44.3250092,71.0938731 44.7583498,71.2816194 C45.1948768,71.4709567 45.5740498,71.7223457 45.8990553,72.0405597 Z M31.3133201,91.7114343 L31.3133201,80.1984525 L36.6297084,80.1984525 L36.6297084,101.025558 L35.344025,101.025558 L33.5915446,98.5959939 C33.1629835,98.9842149 32.7057454,99.3517521 32.2182372,99.6954232 C31.7323222,100.037503 31.2225097,100.336624 30.6903929,100.589604 C30.156683,100.842585 29.6102277,101.043059 29.0446545,101.191029 C28.4806745,101.340589 27.9055422,101.41537 27.320851,101.41537 C26.0351677,101.41537 24.8291425,101.189438 23.6995892,100.734392 C22.570036,100.280937 21.5806811,99.6365536 20.7283384,98.7996508 C19.8791819,97.9643391 19.2100531,96.9460544 18.724138,95.7463876 C18.2366298,94.548312 17.9944689,93.2022669 17.9944689,91.7114343 L17.9944689,80.1984525 L23.2901461,80.1984525 L23.2901461,91.7114343 C23.2901461,92.4115051 23.3968881,93.0367956 23.6119652,93.5888968 C23.8270424,94.139407 24.1138119,94.6024084 24.4786464,94.9794919 C24.8418878,95.3549844 25.2672626,95.639786 25.7547708,95.8338965 C26.2406858,96.028007 26.7632436,96.1250623 27.320851,96.1250623 C27.8673063,96.1250623 28.3818983,95.9993678 28.8694065,95.7463876 C29.3553215,95.4934075 29.7806963,95.1592828 30.1455308,94.7456047 C30.5071791,94.3303354 30.7939486,93.8609698 31.0026531,93.3359167 C31.2097644,92.8092726 31.3133201,92.2698999 31.3133201,91.7114343 Z M115.436841,84.6715864 C115.177155,85.1775467 114.866488,85.6373659 114.501654,86.0526351 C114.136819,86.4679044 113.736935,86.8099844 113.294035,87.0820573 C113.748087,87.3302642 114.15753,87.6627979 114.522365,88.0844314 C114.884013,88.5060649 115.196273,88.9690663 115.455959,89.4750265 C115.715645,89.9809867 115.913197,90.5092219 116.050209,91.0597321 C116.187221,91.6118334 116.255727,92.1464329 116.255727,92.6651217 C116.255727,93.8186473 116.034277,94.9005749 115.592971,95.9124953 C115.150071,96.9228247 114.549449,97.8090507 113.791102,98.5664 C113.031163,99.3253403 112.145364,99.9251737 111.133705,100.3659 C110.120453,100.806626 109.035508,101.026194 107.882057,101.026194 L93.9195677,101.026194 L93.9195677,73.1395117 L107.882057,73.1395117 C109.035508,73.1395117 110.120453,73.3590794 111.133705,73.7998057 C112.145364,74.2421232 113.031163,74.8403654 113.791102,75.5993058 C114.549449,76.3582461 115.150071,77.242881 115.592971,78.2548015 C116.034277,79.2651309 116.255727,80.3470584 116.255727,81.5021752 C116.255727,82.020864 116.184035,82.5522813 116.04065,83.0964272 C115.897265,83.6405731 115.696527,84.1656262 115.436841,84.6715864 Z M110.451831,82.6000134 C110.593622,82.2563423 110.665315,81.8903962 110.665315,81.5021752 C110.665315,81.112363 110.593622,80.7495991 110.451831,80.4122923 C110.308446,80.0749855 110.110894,79.7806375 109.857581,79.5276574 C109.604267,79.2746773 109.307939,79.0773846 108.970188,78.9341883 C108.632437,78.790992 108.270789,78.720985 107.882057,78.720985 L99.5083871,78.720985 L99.5083871,84.3024582 L107.882057,84.3024582 C108.270789,84.3024582 108.632437,84.2308601 108.970188,84.0876638 C109.307939,83.9460585 109.604267,83.7471748 109.857581,83.4941947 C110.110894,83.2412146 110.308446,82.9436845 110.451831,82.6000134 Z M110.451831,93.7534135 C110.593622,93.4161067 110.665315,93.0533427 110.665315,92.6651217 C110.665315,92.2753095 110.593622,91.9125456 110.451831,91.5752388 C110.308446,91.2379319 110.110894,90.943584 109.857581,90.6906039 C109.604267,90.4376238 109.307939,90.2403311 108.970188,90.0971348 C108.632437,89.9555296 108.270789,89.8839315 107.882057,89.8839315 L99.5083871,89.8839315 L99.5083871,95.4447208 L107.882057,95.4447208 C108.270789,95.4447208 108.632437,95.3747137 108.970188,95.2315174 C109.307939,95.0899122 109.604267,94.8910285 109.857581,94.6380483 C110.110894,94.3850682 110.308446,94.0907203 110.451831,93.7534135 Z M168.285756,82.0356609 C168.935766,82.6004907 169.506119,83.2321455 170,83.9322162 L160.02998,95.9320655 C160.237091,95.9972994 160.445795,96.0386672 160.651314,96.05776 C160.860018,96.0768529 161.067129,96.0863993 161.275834,96.0863993 C161.795205,96.0863993 162.295459,96.0163922 162.775001,95.8731959 C163.254544,95.7315907 163.705409,95.5263427 164.129191,95.260634 C164.551379,94.9949253 164.927366,94.6703471 165.257151,94.2884903 C165.588529,93.9066335 165.857774,93.4818178 166.066478,93.0140433 L169.960171,96.9233021 C169.467883,97.6233728 168.899124,98.2534365 168.257079,98.810311 C167.615033,99.3671854 166.918821,99.8413243 166.17322,100.229545 C165.426026,100.617766 164.640596,100.913705 163.81693,101.11418 C162.991672,101.314655 162.145701,101.414892 161.275834,101.414892 C159.80853,101.414892 158.42885,101.144411 157.136794,100.598674 C155.846331,100.054528 154.716778,99.2955873 153.748134,98.3234436 C152.782676,97.3512999 152.017958,96.194592 151.461944,94.851729 C150.902743,93.5104571 150.623939,92.0355353 150.623939,90.4285547 C150.623939,88.7817973 150.902743,87.2782363 151.461944,85.9162804 C152.017958,84.5543246 152.782676,83.3944346 153.748134,82.4350194 C154.716778,81.4756043 155.846331,80.7293925 157.136794,80.1979752 C158.42885,79.6665578 159.80853,79.4008491 161.275834,79.4008491 C162.145701,79.4008491 162.994858,79.5042687 163.828083,79.7126988 C164.656528,79.9195379 165.445144,80.2186591 166.192338,80.6068801 C166.939532,80.9951012 167.635745,81.4724222 168.285756,82.0356609 Z M156.563255,93.189061 L162.755883,84.9823224 C162.508943,84.8916314 162.265189,84.8343529 162.026214,84.8073047 C161.784053,84.7818476 161.53552,84.769119 161.275834,84.769119 C160.549351,84.769119 159.864291,84.9027689 159.220652,85.1668865 C158.578607,85.4325952 158.021,85.8128609 157.546237,86.3045015 C157.071474,86.7977331 156.700267,87.3912022 156.426243,88.0849087 C156.153812,88.7786152 156.018393,89.5598305 156.018393,90.4285547 C156.018393,90.6226652 156.027952,90.8422329 156.04707,91.0888487 C156.066188,91.3354645 156.099644,91.5852625 156.144253,91.8382426 C156.190454,92.0912227 156.244622,92.3330654 156.309942,92.5669526 C156.375261,92.8008399 156.459699,93.007679 156.563255,93.189061 Z M142.368004,91.7114343 L142.368004,80.1984525 L147.684392,80.1984525 L147.684392,101.025558 L146.398709,101.025558 L144.646229,98.5959939 C144.217667,98.9842149 143.760429,99.3517521 143.272921,99.6954232 C142.787006,100.037503 142.275601,100.336624 141.743484,100.589604 C141.211367,100.842585 140.664912,101.043059 140.099338,101.191029 C139.535358,101.340589 138.958633,101.41537 138.375535,101.41537 C137.089852,101.41537 135.883826,101.189438 134.754273,100.734392 C133.62472,100.280937 132.635365,99.6365536 131.783022,98.7996508 C130.933866,97.9643391 130.264737,96.9460544 129.778822,95.7463876 C129.291314,94.548312 129.049153,93.2022669 129.049153,91.7114343 L129.049153,80.1984525 L134.34483,80.1984525 L134.34483,91.7114343 C134.34483,92.4115051 134.451572,93.0367956 134.666649,93.5888968 C134.880133,94.139407 135.168496,94.6024084 135.53333,94.9794919 C135.896572,95.3549844 136.320353,95.639786 136.807862,95.8338965 C137.293777,96.028007 137.817928,96.1250623 138.375535,96.1250623 C138.920397,96.1250623 139.436582,95.9993678 139.92409,95.7463876 C140.410005,95.4934075 140.83538,95.1592828 141.200215,94.7456047 C141.561863,94.3303354 141.848633,93.8609698 142.055744,93.3359167 C142.264448,92.8092726 142.368004,92.2698999 142.368004,91.7114343 Z M119.915544,101.025717 L119.915544,71.9139106 L125.268575,71.9139106 L125.268575,101.025717 L119.915544,101.025717 Z M83.9482728,91.7114343 L83.9482728,80.1984525 L89.302897,80.1984525 L89.302897,98.4018833 C89.2917449,99.8656676 89.0049754,101.240352 88.4457748,102.524345 C87.8897605,103.808339 87.1250418,104.930043 86.1595844,105.889458 C85.1909407,106.847282 84.0645737,107.606223 82.7804836,108.163097 C81.4948002,108.721563 80.1198996,109 78.6525956,109 L75.926692,108.961814 L75.926692,103.612637 L78.8851975,103.652414 C79.404569,103.652414 79.9048225,103.568087 80.385958,103.399434 C80.8639072,103.230781 81.3099932,102.996893 81.7194363,102.699363 C82.1272863,102.400242 82.4873414,102.048616 82.7996015,101.639711 C83.1118617,101.230806 83.3651747,100.786897 83.5595408,100.306394 C82.9748496,100.554601 82.3821925,100.799626 81.7783834,101.046242 C81.1745742,101.291266 80.5675787,101.41537 79.9558038,101.41537 C78.6701204,101.41537 77.4640952,101.189438 76.334542,100.734392 C75.2049887,100.280937 74.2156338,99.6365536 73.3648842,98.7996508 C72.5141346,97.9643391 71.8450058,96.9460544 71.3606839,95.7463876 C70.8731757,94.548312 70.6294216,93.2022669 70.6294216,91.7114343 L70.6294216,80.1984525 L75.926692,80.1984525 L75.926692,91.7114343 C75.926692,92.4496908 76.0318408,93.0956652 76.2469179,93.6461754 C76.4619951,94.1966856 76.7487646,94.6580958 77.1135992,95.027224 C77.4768405,95.3963523 77.9022153,95.6716074 78.3897235,95.8545804 C78.8756386,96.0359624 79.3981964,96.1250623 79.9558038,96.1250623 C80.502259,96.1250623 81.0184442,95.9993678 81.5043592,95.7463876 C81.9902742,95.4934075 82.415649,95.1592828 82.7804836,94.7456047 C83.1437249,94.3303354 83.4289013,93.8609698 83.6376058,93.3359167 C83.8447171,92.8092726 83.9482728,92.2698999 83.9482728,91.7114343 Z M55.8595167,86.4706092 C55.3847538,87.0083908 55.0119534,87.6464098 54.7395224,88.3862573 C54.4670913,89.1245138 54.3300792,89.9423237 54.3300792,90.836505 C54.3300792,91.5620329 54.4670913,92.2430108 54.7395224,92.8778477 C55.0119534,93.5142757 55.3847538,94.0711501 55.8595167,94.5516532 C56.3326864,95.0305653 56.8902938,95.4060578 57.5339321,95.6797218 C58.1759771,95.9502037 58.8610377,96.0870357 59.5891136,96.0870357 C60.1068919,96.0870357 60.6055523,96.0170286 61.0866878,95.8738323 C61.5678233,95.7306361 62.0186888,95.5269791 62.4408772,95.2596794 C62.8630657,94.9955618 63.2390524,94.6709835 63.5704305,94.2891267 C63.9018086,93.9056789 64.1710533,93.4808632 64.3781647,93.0146797 L68.2734507,96.9239385 C67.7779767,97.6240092 67.2124034,98.2524819 66.5687652,98.8093563 C65.9267201,99.3678219 65.2321006,99.8403696 64.4849066,100.228591 C63.7377127,100.618403 62.953876,100.914342 62.1302102,101.114817 C61.3049513,101.315291 60.457388,101.415529 59.5891136,101.415529 C58.1202164,101.415529 56.7421295,101.140274 55.4500735,100.589764 C54.1580175,100.037662 53.0284642,99.2834952 52.0614137,98.32408 C51.0943631,97.3646648 50.3312375,96.2429606 49.7736301,94.9589671 C49.2144296,93.6749737 48.9356259,92.3018804 48.9356259,90.836505 C48.9356259,89.242253 49.2144296,87.7514204 49.7736301,86.3640075 C50.3312375,84.9765945 51.0943631,83.7673814 52.0614137,82.7363681 C53.0284642,81.7053548 54.1580175,80.8923181 55.4500735,80.2956668 C56.7421295,79.7006067 58.1202164,79.4014856 59.5891136,79.4014856 C60.457388,79.4014856 61.3113239,79.5112694 62.147735,79.7324281 C62.9873325,79.9519957 63.7855076,80.2733919 64.5438537,80.6950254 C65.3037929,81.1166589 66.0047851,81.6305745 66.6468302,82.2399543 C67.2904685,82.8509251 67.8432964,83.5509959 68.3116866,84.3417576 L64.4179938,88.2494253 C64.2220346,87.7052794 63.9559762,87.216821 63.6182254,86.7808678 C63.2804747,86.3480968 62.9013016,85.9805596 62.4791132,85.6830296 C62.0585179,85.3839084 61.6012798,85.1579765 61.1073989,85.0020516 C60.6119249,84.8461268 60.1068919,84.7697554 59.5891136,84.7697554 C58.8610377,84.7697554 58.1759771,84.9177249 57.5339321,85.215255 C56.8902938,85.5143762 56.3326864,85.9328275 55.8595167,86.4706092 Z" id="Combined-Shape"></path>
                <path d="M68.346913,-1.42108547e-14 L68.3488034,-1.42108547e-14 L70.9650628,1.47340363 L55.5605123,27.500461 L70.9650628,53.5265964 L68.3478582,55 L58.7514414,38.7944041 L41.5160765,38.7944041 L41.5160765,35.8485189 L57.0056932,35.8485189 L52.9338559,28.9729426 L32,28.9729426 L32,26.0270574 L52.9338559,26.0270574 L57.0056932,19.1514811 L41.5160765,19.1514811 L41.5160765,16.2046739 L58.7514414,16.2046739 L68.346913,-1.42108547e-14 Z M102.627567,-1.42108547e-14 L102.629457,-1.42108547e-14 L112.224929,16.2046739 L129.460294,16.2046739 L129.460294,19.1514811 L113.969732,19.1514811 L118.041569,26.0270574 L139,26.0270574 L139,28.9729426 L118.041569,28.9729426 L113.969732,35.8485189 L129.460294,35.8485189 L129.460294,38.7944041 L112.224929,38.7944041 L102.629457,55 L100.011308,53.5265964 L115.414913,27.500461 L100.011308,1.47340363 L102.627567,-1.42108547e-14 Z M90.3814315,17.5748101 L90.3814315,29.5482892 C90.3814315,30.6519589 90.1668756,31.6883204 89.7405992,32.6564517 C89.3114873,33.625505 88.7292562,34.4691623 87.994851,35.1892676 C87.2566651,35.9066068 86.391825,36.4736551 85.3993855,36.8922566 C84.4060009,37.3080921 83.3436181,37.5173928 82.2122372,37.5173928 C81.5288717,37.5173928 80.8445611,37.4353322 80.1602505,37.2675228 L80.1602505,32.9837723 C80.4645986,33.1589579 80.791631,33.2935743 81.1432381,33.3876213 C81.4957904,33.4798243 81.8511783,33.5250038 82.2122372,33.5250038 C82.7727292,33.5250038 83.3048657,33.4217364 83.8020306,33.2124357 C84.3010859,33.0031349 84.7358689,32.7191497 85.1073248,32.356792 C85.4778355,31.9972004 85.7698963,31.5749107 85.9844522,31.0936112 C86.1971178,30.6095455 86.3058136,30.0959749 86.3058136,29.5482892 L86.3058136,17.5748101 L90.3814315,17.5748101 Z" id="Combined-Shape-Copy-2"></path>
            </g>
        </g>
    </g>
</svg>