<?xml version="1.0" encoding="UTF-8"?>
<svg width="181px" height="37px" viewBox="0 0 181 37" version="1.1" xmlns="http://www.w3.org/2000/svg" xmlns:xlink="http://www.w3.org/1999/xlink">
    <!-- Generator: Sketch 50 (54983) - http://www.bohemiancoding.com/sketch -->
    <title>Group 3</title>
    <desc>Created with Sketch.</desc>
    <defs></defs>
    <g id="jb-logo" stroke="none" stroke-width="1" fill="none" fill-rule="evenodd">
        <g id="Landing-Page" transform="translate(-375.000000, -53.000000)" fill="#FFFFFF">
            <g id="Group-3" transform="translate(375.000000, 53.000000)">
                <path d="M86.8875648,19.9325261 L86.8875648,10.2383883 L90.1310968,10.2383883 L90.1310968,19.9325261 C90.1310968,20.8260374 89.9613124,21.6642801 89.6208157,22.4490962 C89.2803191,23.2329913 88.817355,23.9164814 88.2319234,24.4986455 C87.6455641,25.0798885 86.9580764,25.5395402 86.1685324,25.8776007 C85.3780606,26.21474 84.5328496,26.3833097 83.6328994,26.3833097 C83.0892181,26.3833097 82.5446091,26.316066 82,26.1815788 L82,22.7134651 C82.2421516,22.8562426 82.5028588,22.9649378 82.7830495,23.0404718 C83.0623124,23.1150846 83.3462142,23.1528516 83.6328994,23.1528516 C84.0800912,23.1528516 84.501305,23.0681062 84.8974686,22.8995365 C85.2945601,22.7309668 85.6406234,22.4997592 85.9356587,22.2068349 C86.2297661,21.9139106 86.4626398,21.5730866 86.633352,21.1825208 C86.8031365,20.791955 86.8875648,20.3755972 86.8875648,19.9325261 Z M105.689845,26.3833097 L105.689845,14.325512 L108.808126,14.325512 L108.808126,26.3833097 L105.689845,26.3833097 Z M108.72945,9.60242931 C108.91779,9.78665846 109.067163,10.0040489 109.176642,10.2555216 C109.287048,10.5069944 109.340859,10.7713633 109.340859,11.0486281 C109.340859,11.3341833 109.287048,11.6003944 109.176642,11.8481826 C109.067163,12.0959708 108.91779,12.3115189 108.72945,12.4957481 C108.540182,12.6799772 108.319369,12.8264394 108.065157,12.9351346 C107.812799,13.0438298 107.541887,13.0981774 107.255201,13.0981774 C106.967588,13.0981774 106.697603,13.0438298 106.444318,12.9351346 C106.191033,12.8264394 105.971149,12.6799772 105.78652,12.4957481 C105.600963,12.3115189 105.453445,12.0959708 105.344895,11.8481826 C105.233561,11.6003944 105.179749,11.3341833 105.179749,11.0486281 C105.179749,10.7713633 105.233561,10.5069944 105.344895,10.2555216 C105.453445,10.0040489 105.600963,9.78665846 105.78652,9.60242931 C105.971149,9.41820016 106.191033,9.27265914 106.444318,9.1630428 C106.697603,9.0543476 106.967588,9 107.255201,9 C107.541887,9 107.812799,9.0543476 108.065157,9.1630428 C108.319369,9.27265914 108.540182,9.41820016 108.72945,9.60242931 Z M100.235404,20.9908304 L100.235404,14.3254199 L103.331418,14.3254199 L103.331418,26.3832176 L102.582697,26.3832176 L101.562135,24.976628 C101.312561,25.2013876 101.046287,25.4141722 100.762385,25.6131397 C100.479411,25.8111861 100.18252,25.9843615 99.8726406,26.1308236 C99.561833,26.2772858 99.2436032,26.3933502 98.91424,26.4790167 C98.5858045,26.5656044 98.2508746,26.6088983 97.910378,26.6088983 C97.1616565,26.6088983 96.4593242,26.4780956 95.8015255,26.2146479 C95.1437268,25.9521214 94.5675731,25.5790573 94.0712088,25.0945347 C93.5767001,24.6109332 93.1870309,24.0213999 92.9040569,23.326856 C92.620155,22.6332333 92.4791319,21.853944 92.4791319,20.9908304 L92.4791319,14.3254199 L95.5630851,14.3254199 L95.5630851,20.9908304 C95.5630851,21.3961345 95.6252466,21.7581448 95.7504974,22.0777824 C95.8757482,22.3964988 96.0427493,22.6645522 96.2552118,22.8828638 C96.4667464,23.1002542 96.7144647,23.2651392 96.9983665,23.377519 C97.2813406,23.4898988 97.5856537,23.5460887 97.910378,23.5460887 C98.2286078,23.5460887 98.5282819,23.4733182 98.8121838,23.326856 C99.0951578,23.1803938 99.3428761,22.9869532 99.5553386,22.7474553 C99.7659455,22.5070363 99.9329465,22.2352983 100.054486,21.9313202 C100.175098,21.626421 100.235404,21.3141526 100.235404,20.9908304 Z M149.224984,16.915129 C149.073755,17.2080533 148.892837,17.4742644 148.680375,17.7146835 C148.467912,17.9551025 148.235039,18.1531489 147.977115,18.3106648 C148.241533,18.4543635 148.479973,18.646883 148.692436,18.8909866 C148.903043,19.1350902 149.084888,19.4031436 149.236117,19.696068 C149.387346,19.9889923 149.502391,20.2948127 149.582181,20.6135291 C149.66197,20.9331667 149.701865,21.2426717 149.701865,21.5429652 C149.701865,22.2107958 149.572903,22.8371749 149.315907,23.4230236 C149.057983,24.0079512 148.708208,24.5210293 148.266583,24.9594947 C147.82403,25.3988812 147.308183,25.7461532 146.71904,26.0013105 C146.128969,26.2564679 145.497149,26.383586 144.825433,26.383586 L136.694336,26.383586 L136.694336,10.2386647 L144.825433,10.2386647 C145.497149,10.2386647 146.128969,10.3657828 146.71904,10.6209402 C147.308183,10.8770187 147.82403,11.2233695 148.266583,11.662756 C148.708208,12.1021425 149.057983,12.6142995 149.315907,13.2001482 C149.572903,13.7850758 149.701865,14.4114549 149.701865,15.0802067 C149.701865,15.3805002 149.660114,15.6881629 149.576614,16.0031947 C149.493113,16.3182265 149.376213,16.6222046 149.224984,16.915129 Z M146.321948,15.7157972 C146.404521,15.5168298 146.446271,15.3049662 146.446271,15.0802067 C146.446271,14.854526 146.404521,14.6445047 146.321948,14.4492218 C146.238448,14.2539389 146.123403,14.083527 145.975885,13.9370648 C145.828368,13.7906026 145.6558,13.6763806 145.45911,13.5934775 C145.262419,13.5105743 145.051813,13.4700439 144.825433,13.4700439 L139.949002,13.4700439 L139.949002,16.7014232 L144.825433,16.7014232 C145.051813,16.7014232 145.262419,16.6599716 145.45911,16.5770685 C145.6558,16.4950865 145.828368,16.3799433 145.975885,16.2334811 C146.123403,16.087019 146.238448,15.9147647 146.321948,15.7157972 Z M146.321948,22.1730289 C146.404521,21.977746 146.446271,21.7677247 146.446271,21.5429652 C146.446271,21.3172845 146.404521,21.1072632 146.321948,20.9119803 C146.238448,20.7166974 146.123403,20.5462855 145.975885,20.3998233 C145.828368,20.2533611 145.6558,20.1391391 145.45911,20.0562359 C145.262419,19.974254 145.051813,19.9328024 144.825433,19.9328024 L139.949002,19.9328024 L139.949002,23.1522068 L144.825433,23.1522068 C145.051813,23.1522068 145.262419,23.1116764 145.45911,23.0287732 C145.6558,22.9467913 145.828368,22.8316481 145.975885,22.6851859 C146.123403,22.5387237 146.238448,22.3683117 146.321948,22.1730289 Z M180.001705,15.3890668 C180.38024,15.7160736 180.712387,16.0817684 181,16.4870726 L175.193929,23.4343537 C175.314541,23.4721207 175.436081,23.4960705 175.555765,23.5071242 C175.677305,23.518178 175.797917,23.5237048 175.919456,23.5237048 C176.221914,23.5237048 176.513238,23.4831744 176.792501,23.4002713 C177.071764,23.3182893 177.334326,23.1994615 177.581117,23.0456302 C177.82698,22.8917989 178.045937,22.7038851 178.237988,22.4828102 C178.430967,22.2617352 178.587762,22.0157893 178.709302,21.7449724 L180.976805,24.0082275 C180.69012,24.4135316 180.358901,24.7783053 179.985005,25.1007064 C179.611108,25.4231074 179.205666,25.6976088 178.771463,25.9223683 C178.336333,26.1471279 177.878935,26.318461 177.399271,26.4345254 C176.918679,26.5505897 176.426026,26.6086219 175.919456,26.6086219 C175.064967,26.6086219 174.261507,26.4520271 173.509074,26.1360742 C172.757569,25.8210423 172.09977,25.3816558 171.535678,24.8188358 C170.973441,24.2560157 170.528105,23.5863428 170.204308,22.8088958 C169.878656,22.0323699 169.716294,21.1784678 169.716294,20.2481106 C169.716294,19.2947248 169.878656,18.424242 170.204308,17.6357413 C170.528105,16.8472405 170.973441,16.1757253 171.535678,15.6202744 C172.09977,15.0648235 172.757569,14.6328062 173.509074,14.3251435 C174.261507,14.0174808 175.064967,13.8636495 175.919456,13.8636495 C176.426026,13.8636495 176.920535,13.923524 177.405766,14.0441941 C177.888213,14.163943 178.347466,14.3371184 178.782597,14.561878 C179.217727,14.7866375 179.623169,15.0629812 180.001705,15.3890668 Z M173.175072,21.8462985 L176.781367,17.0950287 C176.637561,17.0425234 176.49561,17.0093622 176.356442,16.9937027 C176.215419,16.9789644 176.070685,16.9715952 175.919456,16.9715952 C175.496387,16.9715952 175.09744,17.0489715 174.722615,17.2018816 C174.348718,17.355713 174.023994,17.5758668 173.747514,17.8605009 C173.471035,18.146056 173.254861,18.4896434 173.095282,18.8912629 C172.936631,19.2928825 172.85777,19.745165 172.85777,20.2481106 C172.85777,20.3604904 172.863337,20.4876085 172.87447,20.6303861 C172.885603,20.7731637 172.905087,20.9177836 172.931065,21.0642457 C172.95797,21.2107079 172.989515,21.3507221 173.027554,21.4861305 C173.065593,21.6215389 173.114766,21.7412878 173.175072,21.8462985 Z M164.908426,20.9908304 L164.908426,14.3254199 L168.00444,14.3254199 L168.00444,26.3832176 L167.255719,26.3832176 L166.235157,24.976628 C165.985583,25.2013876 165.719309,25.4141722 165.435407,25.6131397 C165.152433,25.8111861 164.854614,25.9843615 164.544735,26.1308236 C164.234855,26.2772858 163.916625,26.3933502 163.587262,26.4790167 C163.258826,26.5656044 162.922969,26.6088983 162.5834,26.6088983 C161.834678,26.6088983 161.132346,26.4780956 160.474547,26.2146479 C159.816749,25.9521214 159.240595,25.5790573 158.744231,25.0945347 C158.249722,24.6109332 157.860053,24.0213999 157.577079,23.326856 C157.293177,22.6332333 157.152154,21.853944 157.152154,20.9908304 L157.152154,14.3254199 L160.236107,14.3254199 L160.236107,20.9908304 C160.236107,21.3961345 160.298268,21.7581448 160.423519,22.0777824 C160.547842,22.3964988 160.715771,22.6645522 160.928234,22.8828638 C161.139768,23.1002542 161.386559,23.2651392 161.670461,23.377519 C161.953435,23.4898988 162.258675,23.5460887 162.5834,23.5460887 C162.900702,23.5460887 163.201304,23.4733182 163.485206,23.326856 C163.76818,23.1803938 164.015898,22.9869532 164.22836,22.7474553 C164.438967,22.5070363 164.605968,22.2352983 164.72658,21.9313202 C164.84812,21.626421 164.908426,21.3141526 164.908426,20.9908304 Z M151.833169,26.3833097 L151.833169,9.52910611 L154.950523,9.52910611 L154.950523,26.3833097 L151.833169,26.3833097 Z M130.887524,20.9908304 L130.887524,14.3254199 L134.005805,14.3254199 L134.005805,24.8642482 C133.99931,25.7117023 133.832309,26.5075722 133.506657,27.2509368 C133.182861,27.9943015 132.737524,28.6437092 132.175287,29.1991601 C131.611195,29.7536898 130.955252,30.1930763 130.207458,30.5154773 C129.458737,30.8387995 128.658059,31 127.80357,31 L126.216132,30.9778925 L126.216132,27.8810005 L127.939027,27.9040292 C128.241484,27.9040292 128.532808,27.8552085 128.812999,27.757567 C129.091334,27.6599256 129.351114,27.5245171 129.589554,27.3522629 C129.827067,27.1790875 130.036746,26.9755143 130.218591,26.7387798 C130.400437,26.5020454 130.547955,26.2450457 130.661144,25.9668597 C130.320648,26.1105584 129.975512,26.2524149 129.623882,26.3951925 C129.272252,26.5370489 128.918766,26.6088983 128.562497,26.6088983 C127.813776,26.6088983 127.111444,26.4780956 126.453645,26.2146479 C125.795846,25.9521214 125.219693,25.5790573 124.724256,25.0945347 C124.22882,24.6109332 123.83915,24.0213999 123.557104,23.326856 C123.273202,22.6332333 123.131251,21.853944 123.131251,20.9908304 L123.131251,14.3254199 L126.216132,14.3254199 L126.216132,20.9908304 C126.216132,21.418242 126.277366,21.7922272 126.402617,22.1109436 C126.527868,22.4296601 126.694869,22.6967923 126.907331,22.9104981 C127.118866,23.1242039 127.366584,23.2835622 127.650486,23.3894939 C127.93346,23.4945045 128.237773,23.5460887 128.562497,23.5460887 C128.880727,23.5460887 129.181329,23.4733182 129.464303,23.326856 C129.747277,23.1803938 129.994996,22.9869532 130.207458,22.7474553 C130.418993,22.5070363 130.585066,22.2352983 130.706606,21.9313202 C130.827218,21.626421 130.887524,21.3141526 130.887524,20.9908304 Z M114.529954,17.9566685 C114.253474,18.2680157 114.036373,18.6373952 113.877722,19.0657279 C113.719071,19.4931396 113.639281,19.9666085 113.639281,20.4842924 C113.639281,20.9043348 113.719071,21.2985852 113.877722,21.6661224 C114.036373,22.0345806 114.253474,22.3569817 114.529954,22.6351677 C114.805506,22.9124325 115.13023,23.1298229 115.505055,23.28826 C115.878951,23.4448548 116.277898,23.5240733 116.701896,23.5240733 C117.003425,23.5240733 117.293822,23.4835429 117.574012,23.4006398 C117.854203,23.3177367 118.116766,23.19983 118.362628,23.0450775 C118.608491,22.8921673 118.827448,22.7042536 119.020427,22.4831786 C119.213406,22.2611825 119.370202,22.0152366 119.490814,21.7453409 L121.759245,24.008596 C121.470704,24.4139001 121.141341,24.7777527 120.766516,25.1001537 C120.392619,25.4234758 119.988106,25.6970561 119.552975,25.9218157 C119.117844,26.1474964 118.661375,26.3188295 118.181711,26.4348938 C117.701119,26.5509582 117.207538,26.6089904 116.701896,26.6089904 C115.846479,26.6089904 115.043946,26.4496322 114.291513,26.1309157 C113.539081,25.8112782 112.881282,25.3746551 112.318117,24.8192042 C111.754953,24.2637533 111.310544,23.6143456 110.98582,22.870981 C110.660168,22.1276164 110.497806,21.3326676 110.497806,20.4842924 C110.497806,19.5613043 110.660168,18.6981908 110.98582,17.8949517 C111.310544,17.0917126 111.754953,16.3916419 112.318117,15.7947394 C112.881282,15.197837 113.539081,14.7271315 114.291513,14.3817019 C115.043946,14.0371934 115.846479,13.864018 116.701896,13.864018 C117.207538,13.864018 117.70483,13.927577 118.191916,14.0556163 C118.680858,14.1827344 119.145678,14.3688058 119.587303,14.6129094 C120.029856,14.8570131 120.438081,15.1545431 120.811978,15.507342 C121.186802,15.8610619 121.508743,16.266366 121.781512,16.7241755 L119.514008,18.9865094 C119.399891,18.6714776 119.244951,18.3886858 119.048261,18.1362919 C118.851571,17.8857402 118.630758,17.6729556 118.384895,17.5007013 C118.13996,17.3275259 117.873686,17.1967232 117.586073,17.106451 C117.297533,17.0161787 117.003425,16.9719637 116.701896,16.9719637 C116.277898,16.9719637 115.878951,17.0576302 115.505055,17.2298845 C115.13023,17.4030599 114.805506,17.6453212 114.529954,17.9566685 Z" id="Combined-Shape"></path>
                <path d="M24.1180451,-1.42108547e-14 L24.1192994,-1.42108547e-14 L25.855322,0.991198806 L15.633611,18.5003101 L25.855322,36.0088012 L24.1186723,37 L17.7509564,26.0980537 L6.31440587,26.0980537 L6.31440587,24.1162763 L16.5925628,24.1162763 L13.8906894,19.4908887 L0,19.4908887 L0,17.5091113 L13.8906894,17.5091113 L16.5925628,12.8837237 L6.31440587,12.8837237 L6.31440587,10.901326 L17.7509564,10.901326 L24.1180451,-1.42108547e-14 Z M46.8650212,-1.42108547e-14 L46.8662755,-1.42108547e-14 L53.2333642,10.901326 L64.6699147,10.901326 L64.6699147,12.8837237 L54.3911307,12.8837237 L57.093004,17.5091113 L71,17.5091113 L71,19.4908887 L57.093004,19.4908887 L54.3911307,24.1162763 L64.6699147,24.1162763 L64.6699147,26.0980537 L53.2333642,26.0980537 L46.8662755,37 L45.1289986,36.0088012 L55.3500825,18.5003101 L45.1289986,0.991198806 L46.8650212,-1.42108547e-14 Z M38.7390807,11.8230541 L38.7390807,19.87794 C38.7390807,20.6204087 38.5967118,21.3175974 38.3138555,21.9688857 C38.0291177,22.6207943 37.6427775,23.1883455 37.1554619,23.67278 C36.6656376,24.1553536 36.0917717,24.5368225 35.4332371,24.8184272 C34.7740754,25.098171 34.0691298,25.2389734 33.3184004,25.2389734 C32.8649523,25.2389734 32.410877,25.1837689 31.9568017,25.0708789 L31.9568017,22.1890832 C32.1587523,22.3069353 32.3757552,22.3974954 32.6090645,22.4607634 C32.8430011,22.5227909 33.0788192,22.5531844 33.3184004,22.5531844 C33.6903156,22.5531844 34.0434156,22.4837136 34.37331,22.3429113 C34.7044589,22.2021089 34.9929597,22.0110644 35.2394398,21.7672964 C35.4852927,21.5253893 35.67909,21.2413036 35.821459,20.9175202 C35.9625735,20.5918761 36.0346987,20.2463831 36.0346987,19.87794 L36.0346987,11.8230541 L38.7390807,11.8230541 Z" id="Combined-Shape-Copy-2"></path>
            </g>
        </g>
    </g>
</svg>