<?xml version="1.0" encoding="UTF-8"?>
<svg width="116px" height="60px" viewBox="0 0 116 60" version="1.1" xmlns="http://www.w3.org/2000/svg" xmlns:xlink="http://www.w3.org/1999/xlink">
    <!-- Generator: Sketch 50.1 (55044) - http://www.bohemiancoding.com/sketch -->
    <title>Group 3</title>
    <desc>Created with Sketch.</desc>
    <defs></defs>
    <g id="jb-mobile-logo" stroke="none" stroke-width="1" fill="none" fill-rule="evenodd">
        <g id="Menu" transform="translate(-131.000000, -87.000000)" fill="#FFFFFF">
            <g id="Group-3" transform="translate(131.000000, 87.000000)">
                <path d="M39.40413,-1.42108547e-14 L39.4061794,-1.42108547e-14 L42.242498,1.60734942 L25.5422376,30.0005029 L42.242498,58.3926506 L39.4051547,60 L29.0015626,42.3211681 L10.3164941,42.3211681 L10.3164941,39.1074751 L27.1089758,39.1074751 L22.6946475,31.6068465 L0,31.6068465 L0,28.3931535 L22.6946475,28.3931535 L27.1089758,20.8925249 L10.3164941,20.8925249 L10.3164941,17.677826 L29.0015626,17.677826 L39.40413,-1.42108547e-14 Z M76.5682036,-1.42108547e-14 L76.570253,-1.42108547e-14 L86.9728203,17.677826 L105.657889,17.677826 L105.657889,20.8925249 L88.8643825,20.8925249 L93.2787107,28.3931535 L116,28.3931535 L116,31.6068465 L93.2787107,31.6068465 L88.8643825,39.1074751 L105.657889,39.1074751 L105.657889,42.3211681 L86.9728203,42.3211681 L76.570253,60 L73.731885,58.3926506 L90.4311206,30.0005029 L73.731885,1.60734942 L76.5682036,-1.42108547e-14 Z M63.2920192,19.1725202 L63.2920192,32.2344973 C63.2920192,33.4385006 63.0594165,34.5690768 62.5972851,35.62522 C62.1320797,36.6823691 61.5008758,37.6027225 60.7046983,38.3882919 C59.9044219,39.1708437 58.9668383,39.7894419 57.8909226,40.2460981 C56.8139823,40.6997368 55.6622402,40.9280649 54.4356964,40.9280649 C53.6948516,40.9280649 52.9529821,40.8385442 52.2111127,40.6554794 L52.2111127,35.982297 C52.5410601,36.1734087 52.8956,36.3202629 53.2767815,36.4228596 C53.6589877,36.5234447 54.044268,36.5727314 54.4356964,36.5727314 C55.0433325,36.5727314 55.6202283,36.4600761 56.1592108,36.231748 C56.7002427,36.0034199 57.1715962,35.6936179 57.574296,35.2983186 C57.9759712,34.9060368 58.2925978,34.4453572 58.5252005,33.9203031 C58.7557539,33.3922315 58.8735923,32.8319726 58.8735923,32.2344973 L58.8735923,19.1725202 L63.2920192,19.1725202 Z" id="Combined-Shape-Copy-2"></path>
            </g>
        </g>
    </g>
</svg>