<?xml version="1.0" encoding="UTF-8"?>
<svg width="71px" height="37px" viewBox="0 0 71 37" version="1.1" xmlns="http://www.w3.org/2000/svg" xmlns:xlink="http://www.w3.org/1999/xlink">
    <!-- Generator: Sketch 50.2 (55047) - http://www.bohemiancoding.com/sketch -->
    <title>Combined Shape Copy 2</title>
    <desc>Created with Sketch.</desc>
    <defs></defs>
    <g id="jb-small-logo" stroke="none" stroke-width="1" fill="none" fill-rule="evenodd">
        <g id="Career-at-JuicyBlue" transform="translate(-11.000000, -12.000000)" fill="#E5F3FE">
            <g id="Group-3" transform="translate(11.000000, 12.000000)">
                <path d="M24.1180451,-1.42108547e-14 L24.1192994,-1.42108547e-14 L25.855322,0.991198806 L15.633611,18.5003101 L25.855322,36.0088012 L24.1186723,37 L17.7509564,26.0980537 L6.31440587,26.0980537 L6.31440587,24.1162763 L16.5925628,24.1162763 L13.8906894,19.4908887 L0,19.4908887 L0,17.5091113 L13.8906894,17.5091113 L16.5925628,12.8837237 L6.31440587,12.8837237 L6.31440587,10.901326 L17.7509564,10.901326 L24.1180451,-1.42108547e-14 Z M46.8650212,-1.42108547e-14 L46.8662755,-1.42108547e-14 L53.2333642,10.901326 L64.6699147,10.901326 L64.6699147,12.8837237 L54.3911307,12.8837237 L57.093004,17.5091113 L71,17.5091113 L71,19.4908887 L57.093004,19.4908887 L54.3911307,24.1162763 L64.6699147,24.1162763 L64.6699147,26.0980537 L53.2333642,26.0980537 L46.8662755,37 L45.1289986,36.0088012 L55.3500825,18.5003101 L45.1289986,0.991198806 L46.8650212,-1.42108547e-14 Z M38.7390807,11.8230541 L38.7390807,19.87794 C38.7390807,20.6204087 38.5967118,21.3175974 38.3138555,21.9688857 C38.0291177,22.6207943 37.6427775,23.1883455 37.1554619,23.67278 C36.6656376,24.1553536 36.0917717,24.5368225 35.4332371,24.8184272 C34.7740754,25.098171 34.0691298,25.2389734 33.3184004,25.2389734 C32.8649523,25.2389734 32.410877,25.1837689 31.9568017,25.0708789 L31.9568017,22.1890832 C32.1587523,22.3069353 32.3757552,22.3974954 32.6090645,22.4607634 C32.8430011,22.5227909 33.0788192,22.5531844 33.3184004,22.5531844 C33.6903156,22.5531844 34.0434156,22.4837136 34.37331,22.3429113 C34.7044589,22.2021089 34.9929597,22.0110644 35.2394398,21.7672964 C35.4852927,21.5253893 35.67909,21.2413036 35.821459,20.9175202 C35.9625735,20.5918761 36.0346987,20.2463831 36.0346987,19.87794 L36.0346987,11.8230541 L38.7390807,11.8230541 Z" id="Combined-Shape-Copy-2"></path>
            </g>
        </g>
    </g>
</svg>