<?xml version="1.0" encoding="UTF-8"?>
<svg width="134px" height="141px" viewBox="0 0 134 141" version="1.1" xmlns="http://www.w3.org/2000/svg" xmlns:xlink="http://www.w3.org/1999/xlink">
    <!-- Generator: Sketch 50.2 (55047) - http://www.bohemiancoding.com/sketch -->
    <title>Group 16</title>
    <desc>Created with Sketch.</desc>
    <defs>
        <circle id="path-1" cx="34.5" cy="34.5" r="34.5"></circle>
    </defs>
    <g id="Desktop" stroke="none" stroke-width="1" fill="none" fill-rule="evenodd">
        <g id="Candidate" transform="translate(-1075.000000, -1393.000000)">
            <g id="Group-16" transform="translate(1077.000000, 1395.000000)">
                <path d="M35,7 L100,7 C103.865993,7 107,10.1340068 107,14 L107,132 C107,135.865993 103.865993,139 100,139 L15,139 C11.1340068,139 8,135.865993 8,132 L8,35 L35,7 Z" id="Rectangle-9-Copy-3" fill="#E5F3FE"></path>
                <path d="M27,0 L92,0 C95.8659932,-7.10171439e-16 99,3.13400675 99,7 L99,125 C99,128.865993 95.8659932,132 92,132 L7,132 C3.13400675,132 4.73447626e-16,128.865993 0,125 L0,28 L27,0 Z" id="Rectangle-9-Copy-4" stroke="#26578A" stroke-width="4" fill="#FFFFFF"></path>
                <polygon id="Rectangle-9-Copy-5" stroke="#26578A" stroke-width="4" fill="#E5F3FE" stroke-linejoin="round" points="28 27 28 0 1 27"></polygon>
                <g id="Group-10" transform="translate(17.000000, 99.000000)" stroke="#26578A" stroke-linecap="round" stroke-linejoin="round" stroke-width="3">
                    <path d="M0,1 L39,1" id="Path-6"></path>
                    <path d="M0,17.5 L46,17.5" id="Path-6-Copy-4"></path>
                    <path d="M46,1 L66,1" id="Path-6-Copy"></path>
                    <path d="M56,17.5 L65,17.5" id="Path-6-Copy-5"></path>
                    <path d="M0,9.5 L21,9.5" id="Path-6-Copy-2"></path>
                    <path d="M29,9.5 L65,9.5" id="Path-6-Copy-3"></path>
                </g>
                <g id="Group-10-Copy-2" transform="translate(17.000000, 48.000000)" stroke="#26578A" stroke-linecap="round" stroke-linejoin="round" stroke-width="3">
                    <path d="M0,1 L39,1" id="Path-6"></path>
                    <path d="M0,17.5 L46,17.5" id="Path-6-Copy-4"></path>
                    <path d="M46,1 L66,1" id="Path-6-Copy"></path>
                    <path d="M56,17.5 L65,17.5" id="Path-6-Copy-5"></path>
                    <path d="M0,9.5 L21,9.5" id="Path-6-Copy-2"></path>
                    <path d="M29,9.5 L65,9.5" id="Path-6-Copy-3"></path>
                </g>
                <g id="Group-10-Copy" transform="translate(17.000000, 74.000000)" stroke="#26578A" stroke-linecap="round" stroke-linejoin="round" stroke-width="3">
                    <path d="M0,1 L39,1" id="Path-6"></path>
                    <path d="M0,17.5 L46,17.5" id="Path-6-Copy-4"></path>
                    <path d="M46,1 L66,1" id="Path-6-Copy"></path>
                    <path d="M56,17.5 L65,17.5" id="Path-6-Copy-5"></path>
                    <path d="M0,9.5 L21,9.5" id="Path-6-Copy-2"></path>
                    <path d="M29,9.5 L65,9.5" id="Path-6-Copy-3"></path>
                </g>
                <g id="Group-12" transform="translate(35.000000, 23.000000)">
                    <g id="Oval-7">
                        <circle stroke="#FFFFFF" stroke-width="8" fill="#FFFFFF" fill-rule="evenodd" cx="34.5" cy="34.5" r="38.5"></circle>
                        <circle stroke="#26578A" stroke-width="4" cx="34.5" cy="34.5" r="36.5"></circle>
                    </g>
                    <path d="M16,14 C11.0648993,18.8177706 8,25.5501929 8,33" id="Oval-8" stroke="#26578A" stroke-width="4" stroke-linecap="round"></path>
                    <path d="M33,7 C29.4648886,7 26.0897394,7.71001741 23,9" id="Oval-8" stroke="#26578A" stroke-width="4" stroke-linecap="round"></path>
                    <rect id="Rectangle-11-Copy" stroke="#FFFFFF" stroke-width="2" fill="#26578A" transform="translate(78.000000, 76.500000) rotate(-45.000000) translate(-78.000000, -76.500000) " x="69" y="55" width="18" height="43" rx="9"></rect>
                    <rect id="Rectangle-11" fill="#26578A" transform="translate(66.500000, 64.500000) rotate(-45.000000) translate(-66.500000, -64.500000) " x="62" y="57" width="9" height="15"></rect>
                    <g id="Group-11" transform="translate(73.000000, 67.000000)" stroke="#FFFFFF" stroke-linecap="round" stroke-width="2">
                        <path d="M0,0 L11,11" id="Path-7"></path>
                        <path d="M14,14 L16,16" id="Path-7-Copy"></path>
                    </g>
                </g>
                <path d="M51.13,64.71 C50.3366627,64.3566649 49.6866692,63.8533366 49.18,63.2 L50.98,61.04 C51.7400038,62.0666718 52.6066618,62.58 53.58,62.58 C54.9000066,62.58 55.56,61.8066744 55.56,60.26 L55.56,53.6 L50.64,53.6 L50.64,51 L58.78,51 L58.78,60.08 C58.78,61.8000086 58.3533376,63.0899957 57.5,63.95 C56.6466624,64.8100043 55.3933416,65.24 53.74,65.24 C52.7933286,65.24 51.9233373,65.0633351 51.13,64.71 Z M64.83,64.3 C63.6633275,63.6733302 62.7500033,62.8100055 62.09,61.71 C61.4299967,60.6099945 61.1,59.3733402 61.1,58 C61.1,56.6266598 61.4299967,55.3900055 62.09,54.29 C62.7500033,53.1899945 63.6633275,52.3266698 64.83,51.7 C65.9966725,51.0733302 67.3066594,50.76 68.76,50.76 C70.2133406,50.76 71.5199942,51.0733302 72.68,51.7 C73.8400058,52.3266698 74.75333,53.1899945 75.42,54.29 C76.08667,55.3900055 76.42,56.6266598 76.42,58 C76.42,59.3733402 76.08667,60.6099945 75.42,61.71 C74.75333,62.8100055 73.8400058,63.6733302 72.68,64.3 C71.5199942,64.9266698 70.2133406,65.24 68.76,65.24 C67.3066594,65.24 65.9966725,64.9266698 64.83,64.3 Z M71,61.91 C71.66667,61.5299981 72.1899981,61.0000034 72.57,60.32 C72.9500019,59.6399966 73.14,58.866671 73.14,58 C73.14,57.133329 72.9500019,56.3600034 72.57,55.68 C72.1899981,54.9999966 71.66667,54.4700019 71,54.09 C70.33333,53.7099981 69.5866708,53.52 68.76,53.52 C67.9333292,53.52 67.18667,53.7099981 66.52,54.09 C65.85333,54.4700019 65.3300019,54.9999966 64.95,55.68 C64.5699981,56.3600034 64.38,57.133329 64.38,58 C64.38,58.866671 64.5699981,59.6399966 64.95,60.32 C65.3300019,61.0000034 65.85333,61.5299981 66.52,61.91 C67.18667,62.2900019 67.9333292,62.48 68.76,62.48 C69.5866708,62.48 70.33333,62.2900019 71,61.91 Z M91.02,58.99 C91.4733356,59.5833363 91.7,60.313329 91.7,61.18 C91.7,62.4066728 91.2233381,63.3499967 90.27,64.01 C89.3166619,64.6700033 87.9266758,65 86.1,65 L78.86,65 L78.86,51 L85.7,51 C87.4066752,51 88.7166621,51.3266634 89.63,51.98 C90.5433379,52.6333366 91,53.5199944 91,54.64 C91,55.3200034 90.8366683,55.926664 90.51,56.46 C90.1833317,56.993336 89.7266696,57.4133318 89.14,57.72 C89.940004,57.9733346 90.5666644,58.3966637 91.02,58.99 Z M82.08,53.44 L82.08,56.74 L85.3,56.74 C86.100004,56.74 86.7066646,56.6000014 87.12,56.32 C87.5333354,56.0399986 87.74,55.6266694 87.74,55.08 C87.74,54.5333306 87.5333354,54.1233347 87.12,53.85 C86.7066646,53.5766653 86.100004,53.44 85.3,53.44 L82.08,53.44 Z M87.79,62.14 C88.2233355,61.8599986 88.44,61.4266696 88.44,60.84 C88.44,59.6799942 87.5800086,59.1 85.86,59.1 L82.08,59.1 L82.08,62.56 L85.86,62.56 C86.7133376,62.56 87.3566645,62.4200014 87.79,62.14 Z" id="JOB" fill="#26578A"></path>
            </g>
        </g>
    </g>
</svg>