<?xml version="1.0" encoding="UTF-8"?>
<svg width="32px" height="32px" viewBox="0 0 32 32" version="1.1" xmlns="http://www.w3.org/2000/svg" xmlns:xlink="http://www.w3.org/1999/xlink">
    <!-- Generator: Sketch 50.1 (55044) - http://www.bohemiancoding.com/sketch -->
    <title>Combined Shape</title>
    <desc>Created with Sketch.</desc>
    <defs></defs>
    <g id="linkedin" stroke="none" stroke-width="1" fill="none" fill-rule="evenodd">
        <g id="Footer" transform="translate(-1513.000000, -114.000000)" fill="#FFFFFF">
            <path d="M1513,130 C1513,121.163444 1520.16344,114 1529,114 C1537.83656,114 1545,121.163444 1545,130 C1545,138.836556 1537.83656,146 1529,146 C1520.16344,146 1513,138.836556 1513,130 Z M1524.30703,126.251899 L1520.68108,126.251899 L1520.68108,137.146373 L1524.30703,137.146373 L1524.30703,126.251899 Z M1524.54584,122.881798 C1524.52231,121.813602 1523.75844,121 1522.51802,121 C1521.27761,121 1520.46667,121.813602 1520.46667,122.881798 C1520.46667,123.927869 1521.25364,124.764898 1522.47095,124.764898 L1522.49413,124.764898 C1523.75844,124.764898 1524.54584,123.927869 1524.54584,122.881798 Z M1537.38359,130.899815 C1537.38359,127.553503 1535.5948,125.996076 1533.20876,125.996076 C1531.28362,125.996076 1530.4217,127.053498 1529.94045,127.795299 L1529.94045,126.252188 L1526.31407,126.252188 C1526.36186,127.274469 1526.31407,137.146662 1526.31407,137.146662 L1529.94045,137.146662 L1529.94045,131.062289 C1529.94045,130.736689 1529.96398,130.411885 1530.05986,130.178766 C1530.32192,129.528289 1530.91859,128.854818 1531.92034,128.854818 C1533.23294,128.854818 1533.75764,129.853817 1533.75764,131.317823 L1533.75764,137.146373 L1537.38345,137.146373 L1537.38359,130.899815 Z" id="Combined-Shape"></path>
        </g>
    </g>
</svg>