<?xml version="1.0" encoding="UTF-8"?>
<svg width="276px" height="430px" viewBox="0 0 276 430" version="1.1" xmlns="http://www.w3.org/2000/svg" xmlns:xlink="http://www.w3.org/1999/xlink">
    <!-- Generator: Sketch 50 (54983) - http://www.bohemiancoding.com/sketch -->
    <title>Group</title>
    <desc>Created with Sketch.</desc>
    <defs>
        <polygon id="mp-person" points="0.0427573171 0.680053254 86.3347683 0.680053254 86.3347683 37.3306722 0.0427573171 37.3306722"></polygon>
    </defs>
    <g id="Desktop" stroke="none" stroke-width="1" fill="none" fill-rule="evenodd">
        <g id="Landing-Page" transform="translate(-421.000000, -196.000000)">
            <g id="Group" transform="translate(421.000000, 196.000000)">
                <polygon id="Fill-1" fill="#86A3C1" points="175.470677 180 132 104.525289 184 102"></polygon>
                <path d="M170.51165,35.7437632 C168.532428,31.5059251 169.902172,24.393235 169.141906,22.7282951 C168.380586,21.0633553 162.59687,18.1874548 162.59687,18.1874548 C162.59687,18.1874548 141.24088,6.82958748 129.520551,17.7261365 C117.800222,28.6237339 123.279199,39.369306 123.279199,39.369306 C123.279199,39.369306 124.548769,42.1864932 128.455546,52.2337971 C140.904507,84.2555808 136.544313,97.38533 136.544313,97.38533 C136.544313,97.38533 161.351552,119.311581 170.882821,114.238128 C180.414089,109.164675 175.226144,94.7925112 175.226144,94.7925112 L171.148545,86.1690035 C171.78333,85.9708463 172.418115,85.7611562 173.055009,85.530497 C189.187201,79.6644149 184.622442,67.5202095 183.709279,65.4012904 C182.796116,63.2823714 172.489818,39.9816012 170.51165,35.7437632 Z" id="Fill-2" fill="#FEFEFE"></path>
                <path d="M64.5914257,290.012677 L66.1938041,280.349095 L42.4451122,277.525366 L42.0202741,288.307179 L64.5914257,290.012677 Z M34.2571899,287.720592 L34.953686,269 L75,271.993569 L72.0031084,290.572711 L102.878712,292.905701 L92.3516918,358.862631 L-0.000420408163,350.321363 L2.39275306,285.312885 L34.2571899,287.720592 Z" id="Combined-Shape" fill="#2C4259"></path>
                <path d="M243.992688,387.281915 C243.797646,383.473195 241.403369,379.792658 239.161963,380.009098 C236.920557,380.226589 237.914746,390.761771 234.165715,394.29101 C223.447872,404.377551 213.124331,399.012772 213.124331,399.012772 L207,404.077056 C212.915583,410.692146 209.58194,412.976327 215.832785,418.997782 C220.207005,419.204766 236.804586,404.861915 238.617953,402.861418 C240.43132,400.85987 244.187731,391.090634 243.992688,387.281915" id="Fill-6" fill="#2C4259"></path>
                <path d="M103.939933,428.485247 C104.263091,426.249012 93.5642256,420.582188 88.7229762,422.377953 C81.7521479,409.463482 91.6782894,401.469365 91.6782894,401.469365 L88.3529249,394.260894 C80.7357812,398.400894 79.3707711,394.593365 72.2337765,399.2056 C71.0094471,403.415482 77.3094937,418.067482 76.9639086,427.766306 C76.8670632,430.482188 103.616776,430.721482 103.939933,428.485247" id="Fill-8" fill="#2C4259"></path>
                <path d="M48.0643152,229 L64,231.631101 C64,231.631101 59.728218,245.937068 58.7427393,251.034182 C57.7572607,256.132327 56.4429455,261.887732 57.1006185,263.039226 C57.7572607,264.189688 63.5072607,266.656732 63.8360972,267.807194 C64.1649337,268.959719 63.3474812,271.255484 63.3474812,271.255484 L60.4085694,271.056346 C60.4085694,271.056346 60.7136967,281.785047 59.728218,282.771452 C58.7427393,283.757857 43.4647275,281.291845 42.4792488,280.30544 C41.4927393,279.319035 41,269.946124 41,269.946124 L48.2292488,260.407093 L48.0643152,229 Z" id="Fill-11" fill="#FEFEFE"></path>
                <path d="M190,239 C190,239 178.335921,312.081698 149.676685,352.156577 C118.119171,396.282534 90.9169014,403 90.9169014,403 L87,392.786997 C87,392.786997 117.680829,368.321357 126.009332,331.621336 C134.336792,294.922355 140.034198,268.708946 140.034198,268.708946" id="Fill-13" fill="#24558B"></path>
                <path d="M139.060435,209 C139.060435,209 103.533492,245.387068 135.014504,314.967892 C160.763254,371.880865 208.136732,407 208.136732,407 L217,400.42762 C217,400.42762 189.966979,367.995668 179.49758,330.744527 C171.616774,302.703901 169.464009,278.593346 169.464009,278.593346" id="Fill-15" fill="#24558B"></path>
                <path d="M174.32673,205 L168,193.426259 C173.733154,157.566893 169.099539,116.718827 169.099539,116.718827 L172.433201,116 C172.433201,116 183.026669,150.546772 180.653461,194.564401 L174.32673,205 Z" id="Fill-17" fill="#231F20"></path>
                <path d="M187,243.30379 L124.963305,241 L123,249.446554 C123,249.446554 145.773711,261.350313 167.760444,263.655115 C189.748212,265.957892 184.644242,255.97514 184.644242,255.97514 L187,243.30379 Z" id="Fill-19" fill="#1B4371"></path>
                <path d="M131.62635,104 C131.62635,104 182.353834,134.191426 172.802652,211.757541 C170.942535,226.857417 163.235741,258 163.235741,258 C146.693919,255.947832 118.199751,247.399908 118.199751,247.399908 C130.830505,186.51442 118.69676,159.065115 118.69676,159.065115 C118.69676,159.065115 76.9500508,182.690021 61.1673745,254.431601 L42,251.010974 C42,251.010974 55.9477252,185.135555 70.2005765,157.366769 C84.1577385,130.175546 101.617036,109.439493 131.62635,104" id="Fill-21" fill="#24558B"></path>
                <path d="M172.407718,211.689115 C170.565998,226.900295 164,258.652885 164,258.652885 C188.488752,260.504097 191.974828,254.347715 191.974828,254.347715 C206.796886,206.683714 208.669769,146.815966 208.669769,146.815966 C208.669769,146.815966 256.463087,167.161482 263,144.294921 L181.08032,100 C181.08032,100 181.870816,133.556631 172.407718,211.689115" id="Fill-23" fill="#24558B"></path>
                <path d="M165.415237,253.818358 C165.415237,253.818358 166.940422,248.901129 168.973644,235.132473 C171.006867,221.362778 172.022941,205.625984 172.022941,205.625984 L192.627978,138.357007 L187.458459,136.224684 L193.220867,132.33309 C193.220867,132.33309 192.246681,113.841526 187.206052,102.080496 L181.362015,100.056243" id="Fill-25" fill="#24558B"></path>
                <path d="M165.415237,253.818358 C165.415237,253.818358 166.940422,248.901129 168.973644,235.132473 C171.006867,221.362778 172.022941,205.625984 172.022941,205.625984 L192.627978,138.357007 L187.458459,136.224684 L193.220867,132.33309 C193.220867,132.33309 192.246681,113.841526 187.206052,102.080496 L181.362015,100.056243" id="Stroke-27" stroke="#1A4270"></path>
                <g id="Group-32" transform="translate(126.000000, 99.000000)">
                    <path d="M46.8418711,95.2273582 C41.37316,65.1508747 23.6228267,46.7674022 23.6228267,46.7674022 L28.8126711,40.9430505 L20.1625822,40.9430505 L0.268004444,5.12133626 L6.32264889,0.171534066" id="Fill-29" fill="#24558B"></path>
                    <path d="M46.8418711,95.2273582 C41.37316,65.1508747 23.6228267,46.7674022 23.6228267,46.7674022 L28.8126711,40.9430505 L20.1625822,40.9430505 L0.268004444,5.12133626 L6.32264889,0.171534066" id="Stroke-31" stroke="#1A4270" stroke-linecap="round"></path>
                </g>
                <path d="M169,116 C167.668713,109.448835 163.521877,107 163.521877,107 C163.521877,107 160.372473,109.671359 159.014312,113.573524 C158.561591,114.873536 169,116 169,116" id="Fill-33" fill="#26578A"></path>
                <path d="M171.913558,116 C171.913558,116 167.243706,105.278014 172.494289,105 C172.494289,105 175.829897,106.934149 177,110.660184 L171.913558,116 Z" id="Fill-35" fill="#26578A"></path>
                <path d="M176.637565,105 L178,108.385023 C178,108.385023 175.138886,113.656285 169.688098,114.784279 C164.236262,115.913315 155,112.242908 155,112.242908 L155.681218,108.857885 C155.681218,108.857885 164.662809,111.69193 169.204958,110.563937 C173.748155,109.434901 176.637565,105 176.637565,105" id="Fill-37" fill="#231F20"></path>
                <path d="M137.624173,95 C146.545846,105.050556 164,106.949465 164,106.949465 C164,106.949465 158.45404,111.783443 158.961012,117.976571 C145.078189,118.687578 132.028029,102.979316 132.028029,102.979316 C131.538468,96.074097 137.624173,95 137.624173,95" id="Fill-39" fill="#86A3C1"></path>
                <path d="M174.441378,95 C174.441378,95 178.105088,101.762318 172,104.660743 C172,104.660743 178.802781,107.881664 177.407395,114 L182.990034,105.627221 C183.338333,96.7712036 174.441378,95 174.441378,95" id="Fill-41" fill="#86A3C1"></path>
                <path d="M168.085917,116.002302 L165.639245,113.10967 C164.296659,111.522906 165.179723,109.12234 167.255282,108.715937 L170.632306,108.055532 C172.659548,107.65909 174.419507,109.449056 173.911669,111.392419 L172.981316,114.945456 C172.414881,117.10995 169.546724,117.729515 168.085917,116.002302" id="Fill-43" fill="#231F20"></path>
                <path d="M178.777702,136.255673 C178.777702,136.255673 166.080539,122.45571 161.215291,126.871616 C160.444714,127.570166 159.531166,128.528354 158.6439,129.575148 C157.854401,128.591202 156.762138,127.625803 155.89905,128.372777 C154.943451,129.199085 155.671977,131.227764 156.354247,132.638257 C155.296676,134.303237 154.686943,135.827065 155.165268,136.608039 C156.243865,138.369868 166.07318,144.596028 168.829593,144.948393 C171.586007,145.300759 172.185227,143.891296 171.226475,142.834199 C170.267722,141.776071 168.589905,140.836429 168.589905,140.836429 L172.425967,136.608039 C172.425967,136.608039 172.665655,140.366608 175.062536,141.424735 C177.459417,142.481833 180.242112,142.389105 180.242112,142.389105 L192.082495,150 L194,137.430226 L178.777702,136.255673 Z" id="Fill-45" fill="#FEFEFE"></path>
                <polygon id="Fill-47" fill="#86A3C1" points="186 147.706196 194.374022 151 197 137 189.448189 137"></polygon>
                <g id="Group-51" transform="translate(189.000000, 137.000000)">
                    <mask id="mask-2" fill="white">
                        <use xlink:href="#path-1"></use>
                    </mask>
                    <g id="Clip-50"></g>
                    <path d="M50.2237207,33.2108389 C50.2237207,33.2108389 64.1087085,37.3306722 68.2496963,37.3306722 C72.3906841,37.3306722 85.057672,33.9370611 86.0327085,28.6065056 C87.0056232,23.2738389 85.7175988,15.3096722 80.9294159,11.2563389 C66.787672,-0.718938889 4.42776951,0.735616667 4.42776951,0.735616667 L0.0427573171,15.5186722 L50.2237207,33.2108389 Z" id="Fill-49" fill="#24558B" mask="url(#mask-2)"></path>
                </g>
                <path d="M148,57.1750709 C148,57.1750709 155.308823,61.6830128 164.303912,56 C164.303912,56 169.217997,69.0140679 162.317174,69.9158665 C152.423682,71.2086547 148,57.1750709 148,57.1750709 Z" id="Fill-52" fill="#86A3C1"></path>
                <path d="M135.652157,55.8664595 L126.900894,57 C126.900894,57 126.162409,45.1790897 120.357787,36.2430817 C105.165637,12.8554743 127.108463,14.4703528 127.108463,14.4703528 C127.108463,14.4703528 128.369521,6.55328094 132.397814,4.48519466 C149.428876,-4.26223725 160.970321,10.9968013 174.99216,0 C188.652056,27.7904953 152.452704,22.4801499 133.234347,18.1720709 C121.351822,28.2280753 135.652157,55.8664595 135.652157,55.8664595" id="Fill-54" fill="#2C4259"></path>
                <path d="M135.996914,60.2734023 C136.075165,63.3508422 134.661208,65.9819438 132.215854,66.7692929 C128.954297,67.8183964 125.094986,65.1904233 123.596256,60.8991101 C122.096439,56.6088398 123.523439,52.2789413 126.784997,51.2308806 C128.935821,50.5384306 131.347482,51.4467498 133.170086,53.3770586" id="Fill-58" fill="#FEFEFE"></path>
                <path d="M149.12434,34.6922021 C141.95922,35.7407958 137,40 137,40 C137.413268,32.2029499 150.393355,31 150.393355,31 C150.393355,31 152.395868,34.2136977 149.12434,34.6922021" id="Fill-60" fill="#86A3C1"></path>
                <path d="M158.708117,46.0885668 C157.670984,44.3216713 153.00818,33.5641487 156.809928,32.4616729 C163.158342,30.6203707 169,32.2017737 169,32.2017737 C165.381844,25.7902274 155.759911,28.1942953 154.214947,29.844865 C152.669984,31.4954347 151.477174,36.0352874 158.004885,46.9898303 L158.234644,47.3597675 L158.649067,47.2099063 C160.288511,46.6188451 161.484542,47.0799567 162.056791,47.7087451 C162.588241,48.2924704 162.684868,49.0574964 162.323053,49.7606915 C160.877937,52.565088 153.981968,52.8868181 153.981968,52.8868181 C154.8033,52.9643687 155.553773,53 156.2409,53 C161.242974,53 162.816926,51.1262104 163.279663,50.2354267 C163.844396,49.1507666 163.68335,47.9162453 162.858797,47.0118379 C162.105104,46.1860291 160.641737,45.5446648 158.708117,46.0885668" id="Fill-62" fill="#86A3C1"></path>
                <path d="M179.984446,203.071345 C179.866247,204.727564 179.104772,206.038081 178.285334,205.999155 C177.464759,205.960229 176.896495,204.585761 177.01583,202.929542 C177.134029,201.27425 177.895504,199.962806 178.714942,200.000805 C179.53438,200.040658 180.102645,201.415126 179.984446,203.071345" id="Fill-67" fill="#1B4371"></path>
                <path d="M178.984451,222.070438 C178.866285,223.726646 178.105029,225.038081 177.284689,224.999155 C176.465486,224.959303 175.897384,223.585771 176.015549,221.929562 C176.134851,220.273354 176.894971,218.961919 177.715311,219.000845 C178.534514,219.039771 179.102616,220.415156 178.984451,222.070438" id="Fill-69" fill="#1B4371"></path>
                <path d="M170.884051,86 L174,92.7553217 C174,92.7553217 159.226329,94.7606481 142,87.2895036 C151.031899,89.6210406 170.884051,86 170.884051,86" id="Fill-71" fill="#86A3C1"></path>
            </g>
        </g>
    </g>
</svg>