<?xml version="1.0" encoding="UTF-8"?>
<svg width="483px" height="543px" viewBox="0 0 483 543" version="1.1" xmlns="http://www.w3.org/2000/svg" xmlns:xlink="http://www.w3.org/1999/xlink">
    <!-- Generator: Sketch 50 (54983) - http://www.bohemiancoding.com/sketch -->
    <title>Path</title>
    <desc>Created with Sketch.</desc>
    <defs></defs>
    <g id="mp-person-shadow" stroke="none" stroke-width="1" fill="none" fill-rule="evenodd" opacity="0.296875">
        <g id="Landing-Page" transform="translate(-390.000000, -74.000000)" fill="#26578A">
            <g id="Path" transform="translate(-234.000000, -1075.000000)">
                <path d="M1013.92385,1299.75887 C1008.11984,1295.89421 1001.27066,1292.2133 992.911676,1289.29082 C990.375422,1283.25156 983.97217,1281.84474 983.97217,1281.84474 C983.97217,1281.84474 985.120331,1284.16681 985.224496,1286.90554 C984.717714,1283.92571 983.97217,1281.84474 983.97217,1281.84474 L979.037768,1271.34977 C979.80555,1271.1075 980.574502,1270.85352 981.343454,1270.57263 C1000.86688,1263.43203 995.343765,1248.65223 994.237738,1246.07267 C993.134052,1243.49428 980.661111,1215.13552 978.266475,1209.97757 C975.871839,1204.81962 977.530294,1196.16218 976.60802,1194.13622 C976.357555,1193.58262 975.645952,1192.91901 974.755279,1192.2472 C984.924874,1190.24815 990.185817,1171.39186 984.993928,1155.63712 C982.912959,1149.32399 972.284567,1145.69458 967.878015,1153.21322 C975.81449,1149.96771 983.603494,1157.86088 981.18545,1162.02633 C974.777516,1173.06319 948.976073,1163.34069 932.00529,1172.06718 C927.07674,1174.60109 925.534154,1184.29668 925.534154,1184.29668 C925.534154,1184.29668 898.688716,1182.31987 917.27465,1210.96539 C921.190804,1217.00113 923.220276,1224.10545 924.254909,1229.27042 C920.902886,1230.916 919.519475,1235.8902 921.174419,1240.82577 C922.934699,1246.07735 927.465313,1249.29244 931.294858,1248.00851 C931.9772,1247.78028 932.585808,1247.41512 933.125361,1246.95398 C936.362685,1258.11373 937.592774,1266.55582 937.936871,1272.63604 C850.030554,1301.0147 811.541987,1252.35537 759.779927,1260.95312 C708.016697,1269.55087 694.32186,1309.8044 624.000785,1303.52638 C624.000785,1303.52638 622.744947,1429.09847 720.690946,1459.23507 C720.690946,1459.23507 738.804039,1389.92288 850.836958,1346.79954 C819.899805,1414.84653 830.385409,1484.57772 830.385409,1484.57772 L822.326042,1495.20026 L812.19624,1494.42897 L811.396858,1516.31894 L772.220097,1513.33325 L769.313996,1592.92622 L881.440548,1603.38374 L894.222474,1522.62973 L856.883239,1519.78449 L860.314848,1498.09583 L849.328314,1497.25899 C849.601017,1496.3215 849.982567,1494.70284 849.705183,1493.72907 C849.297884,1492.30586 841.367261,1487.83143 841.367261,1487.83143 C846.062902,1408.87866 901.188688,1379.48526 901.188688,1379.48526 C901.188688,1379.48526 930.995236,1394.49329 915.624387,1469.15186 C915.624387,1469.15186 917.331999,1469.66918 920.201817,1470.49665 C918.21448,1489.02055 920.26853,1512.58536 931.494996,1541.03191 C929.415197,1550.34828 927.079081,1560.76015 924.543997,1571.97023 C914.362697,1616.98494 876.849073,1646.99514 876.849073,1646.99514 L877.482259,1648.65008 C868.954733,1652.6903 867.00836,1648.72733 858.450403,1654.0503 C856.917181,1659.12515 864.803328,1676.78296 864.37028,1688.47173 C864.249729,1691.74417 897.73367,1692.03326 898.138628,1689.33783 C898.542416,1686.6424 885.150712,1679.81429 879.089217,1681.97719 C872.403898,1670.052 878.134171,1661.61342 881.178379,1658.31758 C881.639516,1659.52192 914.89757,1651.28231 953.482109,1597.15722 C954.984901,1595.0505 956.445559,1592.86419 957.872275,1590.6182 C988.172731,1635.90912 1023.6838,1662.5357 1023.6838,1662.5357 L1024.93496,1661.59821 C1030.59384,1668.66507 1027.40216,1671.52904 1034.54745,1678.43673 C1039.8435,1678.68837 1059.93106,1661.27049 1062.12672,1658.83958 C1064.32122,1656.40983 1068.86705,1644.54432 1068.63063,1639.91774 C1068.39538,1635.29232 1065.49864,1630.8214 1062.78566,1631.08591 C1060.07267,1631.34808 1061.27584,1644.14405 1056.73587,1648.43005 C1047.17839,1657.45733 1037.88776,1656.29513 1033.65443,1655.05802 C1034.40115,1654.4974 1001.71308,1614.84194 989.051701,1569.29119 C986.037924,1558.44861 983.719363,1548.09058 981.954402,1538.98956 C992.528956,1480.90969 1023.32683,1418.18216 1031.60623,1369.16001 L1055.1687,1376.26667 C1055.1687,1376.26667 1074.78927,1381.24789 1080.64126,1381.24789 C1086.49209,1381.24789 1104.39217,1377.14564 1105.76973,1370.70025 C1107.14729,1364.25369 1105.3238,1354.62599 1098.5589,1349.72553 C1078.57668,1335.25004 1013.92385,1299.75887 1013.92385,1299.75887 Z"></path>
            </g>
        </g>
    </g>
</svg>