<?xml version="1.0" encoding="UTF-8"?>
<svg width="30px" height="39px" viewBox="0 0 30 39" version="1.1" xmlns="http://www.w3.org/2000/svg" xmlns:xlink="http://www.w3.org/1999/xlink">
    <!-- Generator: Sketch 50.2 (55047) - http://www.bohemiancoding.com/sketch -->
    <title>Artboard</title>
    <desc>Created with Sketch.</desc>
    <defs></defs>
    <g id="Artboard" stroke="none" stroke-width="1" fill="none" fill-rule="evenodd">
        <g id="map-point" transform="translate(1.000000, 2.000000)" fill="#26578A" fill-rule="nonzero">
            <path d="M13.4994371,0 C6.05620804,0 0,5.94571803 0,13.253889 C0,15.1601441 0.397417543,16.9801867 1.18061907,18.6639103 C4.55585361,25.9149746 11.0271172,33.5705748 12.9305183,35.7439414 C13.0731233,35.9064189 13.2810263,36 13.4998124,36 C13.7185984,36 13.9265015,35.9064189 14.0691064,35.7439414 C15.971757,33.5709432 22.4430206,25.9157115 25.8193809,18.6639103 C26.6029577,16.9801867 27,15.1601441 27,13.253889 C26.9992494,5.94571803 20.9430414,0 13.4994371,0 Z M13.4994371,20.1379974 C9.63296593,20.1379974 6.48702517,17.0494514 6.48702517,13.2535206 C6.48702517,9.45722122 9.63296593,6.36867529 13.4994371,6.36867529 C17.3659082,6.36867529 20.511849,9.45722122 20.511849,13.2535206 C20.5122243,17.0494514 17.3662835,20.1379974 13.4994371,20.1379974 Z" id="Shape"></path>
        </g>
    </g>
</svg>