<?xml version="1.0" encoding="UTF-8"?>
<svg width="107px" height="94px" viewBox="0 0 107 94" version="1.1" xmlns="http://www.w3.org/2000/svg" xmlns:xlink="http://www.w3.org/1999/xlink">
    <!-- Generator: Sketch 50.2 (55047) - http://www.bohemiancoding.com/sketch -->
    <title>Group 25</title>
    <desc>Created with Sketch.</desc>
    <defs></defs>
    <g id="opportunites" stroke="none" stroke-width="1" fill="none" fill-rule="evenodd">
        <g id="Candidate" transform="translate(-1308.000000, -671.000000)" stroke="#26578A" stroke-width="3">
            <g id="Group-20" transform="translate(1224.000000, 671.000000)">
                <g id="Group-25" transform="translate(87.000000, 0.000000)">
                    <rect id="Combined-Shape-Copy-2" fill="#E5F3FE" x="32.5" y="18.5" width="36" height="34"></rect>
                    <path d="M33.9210526,30.4090909 L36.7105263,30.4090909 C39.8647866,30.4090909 42.5,32.6989194 42.5,35.6363636 C42.5,38.5738079 39.8647866,40.8636364 36.7105263,40.8636364 L33.9210526,40.8636364 L33.9210526,53.5 L-1.5,53.5 L-1.5,25.8181818 C-1.5,21.7720407 1.81509389,18.5 5.89473684,18.5 L33.9210526,18.5 L33.9210526,30.4090909 Z" id="Combined-Shape-Copy" fill="#FFFFFF"></path>
                    <path d="M9.75,52.0789474 L9.75,48.875 C9.75,45.3541847 12.6041847,42.5 16.125,42.5 C19.6458153,42.5 22.5,45.3541847 22.5,48.875 L22.5,52.0789474 L34.5,52.0789474 L34.5,87.5 L8,87.5 C2.75329488,87.5 -1.5,83.2467051 -1.5,78 L-1.5,52.0789474 L9.75,52.0789474 Z" id="Combined-Shape" fill="#E5F3FE"></path>
                    <path d="M33.0789474,64.1315789 L33.0789474,52.0789474 L45.1315789,52.0789474 L45.1315789,48.7894737 C45.1315789,45.868178 47.499757,43.5 50.4210526,43.5 C53.3423483,43.5 55.7105263,45.868178 55.7105263,48.7894737 L55.7105263,52.0789474 L68.5,52.0789474 L68.5,87.5 L33.0789474,87.5 L33.0789474,75.7105263 L30.2894737,75.7105263 C27.0920357,75.7105263 24.5,73.1184907 24.5,69.9210526 C24.5,66.7236146 27.0920357,64.1315789 30.2894737,64.1315789 L33.0789474,64.1315789 Z" id="Combined-Shape-Copy-4" fill="#FFFFFF"></path>
                    <path d="M67.2857143,75.1363636 L64.7589286,75.1363636 C61.3391921,75.1363636 58.5,72.6143592 58.5,69.4090909 C58.5,66.2038227 61.3391921,63.6818182 64.7589286,63.6818182 L67.2857143,63.6818182 L67.2857143,52.5 L102.5,52.5 L102.5,80.1818182 C102.5,84.2257877 99.2038622,87.5 95.1428571,87.5 L67.2857143,87.5 L67.2857143,75.1363636 Z" id="Combined-Shape-Copy-5" fill="#E5F3FE"></path>
                    <path d="M67.0789474,30.5536961 L67.0789474,18.5 L95.1052632,18.5 C99.1892959,18.5 102.5,21.811023 102.5,25.8953046 L102.5,53.187262 L89.9776325,53.187262 L89.9776325,55.210065 C89.9776325,58.6492673 87.4247496,61.5 84.1881588,61.5 C80.951568,61.5 78.3986851,58.6492673 78.3986851,55.210065 L78.3986851,53.187262 L67.0789474,53.187262 L67.0789474,41.133566 L64.7894737,41.133566 C61.3827984,41.133566 58.5,38.8523929 58.5,35.843631 C58.5,32.8348691 61.3827984,30.5536961 64.7894737,30.5536961 L67.0789474,30.5536961 Z" id="Combined-Shape-Copy-3" fill="#FFFFFF"></path>
                    <g id="Group-5" transform="translate(86.000000, 25.000000)" fill="#FFFFFF" stroke-linecap="round" stroke-linejoin="round">
                        <path d="M0,0 L7,0 C8.65685425,-3.04359188e-16 10,1.34314575 10,3 L10,7" id="Path-8"></path>
                        <path d="M10,14 L10,15" id="Path-8-Copy"></path>
                    </g>
                    <path d="M6,25 L20,25 C21.6568542,25 23,26.3431458 23,28 L23,32" id="Path-8" fill="#FFFFFF" stroke-linecap="round" stroke-linejoin="round" transform="translate(14.500000, 28.500000) scale(-1, 1) translate(-14.500000, -28.500000) "></path>
                    <path d="M79,75 L93,75 C94.6568542,75 96,76.3431458 96,78 L96,82" id="Path-8-Copy-2" stroke-linecap="round" stroke-linejoin="round" transform="translate(87.500000, 78.500000) scale(1, -1) translate(-87.500000, -78.500000) "></path>
                    <g id="Group-5-Copy" transform="translate(10.500000, 73.500000) scale(-1, -1) translate(-10.500000, -73.500000) translate(5.000000, 66.000000)" fill="#FFFFFF" stroke-linecap="round" stroke-linejoin="round">
                        <path d="M0,0 L7,0 C8.65685425,-3.04359188e-16 10,1.34314575 10,3 L10,7" id="Path-8"></path>
                        <path d="M10,14 L10,15" id="Path-8-Copy"></path>
                    </g>
                    <path d="M41,81.5 L52,81.5" id="Path-9" stroke-linecap="round"></path>
                    <g id="Group-7" transform="translate(29.000000, 0.000000)">
                        <path d="M13.5,-10.5 L13.5,29.5 L19,29.5 C24.7989899,29.5 29.5,24.7989899 29.5,19 L29.5,-3.55271368e-15 C29.5,-5.79898987 24.7989899,-10.5 19,-10.5 L13.5,-10.5 Z" id="Rectangle-14" transform="translate(21.500000, 9.500000) rotate(-90.000000) translate(-21.500000, -9.500000) "></path>
                        <path d="M16.5,-2.5 L16.5,26.5 L22,26.5 C24.4852814,26.5 26.5,24.4852814 26.5,22 L26.5,2 C26.5,-0.485281374 24.4852814,-2.5 22,-2.5 L16.5,-2.5 Z" id="Rectangle-14-Copy" transform="translate(21.500000, 12.000000) rotate(-90.000000) translate(-21.500000, -12.000000) "></path>
                    </g>
                    <path d="M18.5,83.7560586 L18.5,98.2439414 C20.2477886,97.6261868 21.5,95.9593282 21.5,94 L21.5,88 C21.5,86.0406718 20.2477886,84.3738132 18.5,83.7560586 Z" id="Rectangle-14" transform="translate(20.000000, 91.000000) scale(1, -1) rotate(-90.000000) translate(-20.000000, -91.000000) "></path>
                    <path d="M84.5,83.7560586 L84.5,98.2439414 C86.2477886,97.6261868 87.5,95.9593282 87.5,94 L87.5,88 C87.5,86.0406718 86.2477886,84.3738132 84.5,83.7560586 Z" id="Rectangle-14-Copy-2" transform="translate(86.000000, 91.000000) scale(1, -1) rotate(-90.000000) translate(-86.000000, -91.000000) "></path>
                </g>
            </g>
        </g>
    </g>
</svg>