<?xml version="1.0" encoding="UTF-8"?>
<svg width="43px" height="43px" viewBox="0 0 43 43" version="1.1" xmlns="http://www.w3.org/2000/svg" xmlns:xlink="http://www.w3.org/1999/xlink">
    <!-- Generator: Sketch 50.2 (55047) - http://www.bohemiancoding.com/sketch -->
    <title>Group 10</title>
    <desc>Created with Sketch.</desc>
    <defs></defs>
    <g id="Desktop" stroke="none" stroke-width="1" fill="none" fill-rule="evenodd">
        <g id="Contacts" transform="translate(-936.000000, -647.000000)" stroke="#26578A" stroke-width="2">
            <g id="Group-13" transform="translate(872.000000, 648.000000)">
                <g id="Group-10" transform="translate(57.000000, 0.000000)">
                    <path d="M25.4064052,4.48631703 C21.0997168,6.9387336 17.9470355,11.0053402 16.6451955,15.7872985 L16.2233453,17.3368518 C14.5909979,23.3328401 14.5909979,29.6561643 16.2233453,35.6521526 L16.7427105,37.559901 C17.9600705,42.031545 21.1060263,45.7285349 25.3252571,47.6457352 C25.8468005,47.8827223 26.4130269,48.0053354 26.9858886,48.0053354 C29.2028665,48.0053354 31.0000822,46.2081197 31.0000822,43.9911417 L31.0000822,39.6475893 C31.0000822,37.1709446 28.9923649,35.1632273 26.5157202,35.1632273 C22.9345059,35.1632273 20.0313582,32.2600796 20.0313582,28.6788653 L20.0313582,24.1156961 C20.0313582,20.5344819 22.9345059,17.6313341 26.5157202,17.6313341 C28.9923649,17.6313341 31.0000822,15.6236169 31.0000822,13.1469721 L31.0000822,7.73805532 C31.0000822,7.08874707 30.8311278,6.45061273 30.5098254,5.88637348 C29.4871697,4.09048802 27.2022907,3.4636614 25.4064052,4.48631703 Z" id="Rectangle-3" transform="translate(22.999583, 26.000289) rotate(-45.000000) translate(-22.999583, -26.000289) "></path>
                    <path d="M39,23 C39,16.372583 33.627417,11 27,11" id="Oval-4" stroke-linecap="round"></path>
                    <path d="M44,22 C44,12.6111593 36.3888407,5 27,5" id="Oval-4" stroke-linecap="round"></path>
                    <path d="M49,22 C49,9.8497355 39.1502645,0 27,0" id="Oval-4" stroke-linecap="round"></path>
                </g>
            </g>
        </g>
    </g>
</svg>