<?xml version="1.0" encoding="UTF-8"?>
<svg width="16px" height="16px" viewBox="0 0 16 16" version="1.1" xmlns="http://www.w3.org/2000/svg" xmlns:xlink="http://www.w3.org/1999/xlink">
    <!-- Generator: Sketch 50.2 (55047) - http://www.bohemiancoding.com/sketch -->
    <title>Combined Shape</title>
    <desc>Created with Sketch.</desc>
    <defs></defs>
    <g id="romb-blog-icon" stroke="none" stroke-width="1" fill="none" fill-rule="evenodd">
        <g id="Blog-Article" transform="translate(-1247.000000, -531.000000)" fill="#26578A">
            <path d="M1254.99792,531.004135 C1255.20256,530.986704 1255.39178,531.031055 1255.57643,531.115866 C1257.14302,531.835317 1258.71085,532.552238 1260.27835,533.26976 C1261.01822,533.608433 1261.75836,533.946727 1262.49824,534.285432 C1262.59072,534.327758 1262.68321,534.370211 1262.7743,534.41529 C1262.88107,534.468118 1262.98884,534.52158 1262.99068,534.663363 C1262.99262,534.813593 1262.87866,534.868446 1262.76666,534.922699 C1262.6318,534.988054 1262.49556,535.050658 1262.35928,535.113103 C1260.12537,536.136684 1257.89029,537.157829 1255.65834,538.18549 C1255.2498,538.373586 1254.84423,538.411926 1254.43269,538.223767 C1252.06159,537.139576 1249.69211,536.052063 1247.32227,534.965278 C1247.25909,534.936301 1247.19492,534.907451 1247.13681,534.870123 C1246.95836,534.755513 1246.95733,534.57308 1247.14026,534.462772 C1247.25413,534.394095 1247.37883,534.342089 1247.50046,534.286381 C1249.54957,533.347675 1251.59894,532.409506 1253.64831,531.471305 C1253.90145,531.355398 1254.15639,531.243256 1254.40747,531.123268 C1254.5955,531.033396 1254.78976,530.985028 1254.99792,531.004135 Z M1249.04143,538.025564 C1249.28348,538.027241 1249.4749,538.066499 1249.6588,538.150867 C1251.25968,538.885281 1252.86097,539.618904 1254.46333,540.35025 C1254.81953,540.512817 1255.18228,540.512216 1255.53851,540.349586 C1257.14081,539.618082 1258.74175,538.883763 1260.34349,538.151183 C1260.71598,537.980802 1261.09311,537.979758 1261.46563,538.145331 C1261.90106,538.338867 1262.33249,538.541103 1262.76477,538.741346 C1262.87766,538.793669 1262.99098,538.849155 1262.99114,538.999068 C1262.99133,539.149077 1262.87815,539.205132 1262.76515,539.257012 C1261.32516,539.918225 1259.88462,540.578331 1258.44417,541.238627 C1257.51468,541.664705 1256.58277,542.08588 1255.6565,542.518633 C1255.21324,542.725709 1254.78664,542.72264 1254.3424,542.517968 C1251.98917,541.433872 1249.63262,540.356672 1247.27751,539.276467 C1247.21937,539.249799 1247.15991,539.22212 1247.10925,539.184349 C1246.9681,539.079102 1246.95766,538.892841 1247.11357,538.815433 C1247.67309,538.537718 1248.22564,538.242384 1248.8267,538.05413 C1248.90899,538.028348 1248.99545,538.022844 1249.04143,538.025564 Z M1255.00116,546.993626 C1254.76353,547.023108 1254.55047,546.946175 1254.33732,546.848204 C1252.06087,545.802132 1249.7828,544.759381 1247.50529,543.715523 C1247.39823,543.666459 1247.29078,543.617901 1247.18598,543.564471 C1247.08762,543.514331 1247.00465,543.451759 1247.00843,543.324496 C1247.01194,543.205425 1247.09017,543.143707 1247.18443,543.099515 C1247.56249,542.922396 1247.94501,542.754262 1248.32082,542.572777 C1248.57934,542.44795 1248.83906,542.344254 1249.13496,542.357888 C1249.30913,542.365891 1249.47513,542.399392 1249.63321,542.47177 C1251.22489,543.200522 1252.81735,543.927629 1254.40794,544.658753 C1254.80352,544.840586 1255.19109,544.842863 1255.58699,544.661031 C1257.17777,543.93035 1258.76972,543.202104 1260.36227,542.475187 C1260.72373,542.310184 1261.09312,542.312303 1261.45455,542.471232 C1261.88092,542.658759 1262.30155,542.858875 1262.7245,543.053899 C1262.76336,543.071772 1262.80222,543.090214 1262.83901,543.111852 C1263.05355,543.238135 1263.0559,543.437207 1262.83259,543.552197 C1262.57126,543.686768 1262.301,543.804889 1262.03338,543.927597 C1259.8972,544.90727 1257.76045,545.885709 1255.62485,546.86652 C1255.42627,546.957721 1255.22479,547.01966 1255.00116,546.993626 Z" id="Combined-Shape"></path>
        </g>
    </g>
</svg>