<?xml version="1.0" encoding="UTF-8"?>
<svg width="206px" height="127px" viewBox="0 0 206 127" version="1.1" xmlns="http://www.w3.org/2000/svg" xmlns:xlink="http://www.w3.org/1999/xlink">
    <!-- Generator: Sketch 50.2 (55047) - http://www.bohemiancoding.com/sketch -->
    <title>Group 12</title>
    <desc>Created with Sketch.</desc>
    <defs></defs>
    <g id="scale-team-icon" stroke="none" stroke-width="1" fill="none" fill-rule="evenodd">
        <g id="Hire" transform="translate(-863.000000, -666.000000)">
            <g id="Group-4" transform="translate(801.000000, 678.000000)">
                <g id="Group-12" transform="translate(74.000000, 0.000000)">
                    <path d="M90.5,34.4354839 L90.5,0" id="Line-Copy-2" stroke="#E5F3FE" stroke-width="6" stroke-linecap="square"></path>
                    <path id="Line-Copy-2-decoration-1" d="M93.5,10.8 L90.5,0 L87.5,10.8" stroke="#E5F3FE" stroke-width="6" stroke-linecap="square"></path>
                    <g id="Group-18" transform="translate(0.000000, 82.000000)" stroke="#E5F3FE" stroke-linecap="square" stroke-width="6">
                        <path d="M182.344026,7.80952381 L138.39375,1.14285714" id="Line-Copy" transform="translate(160.696875, 4.571429) scale(-1, 1) translate(-160.696875, -4.571429) "></path>
                        <path id="Line-Copy-decoration-1" d="M149.521519,-0.203526618 L138.39375,1.14285714 L148.621693,5.72861571"></path>
                        <path d="M43.9502757,5.55555556 L0,0" id="Line-Copy"></path>
                        <path id="Line-Copy-decoration-1" d="M11.09096,-1.62191445 L0,0 L10.3385147,4.33071742"></path>
                    </g>
                    <g id="Group-16-Copy" transform="translate(8.000000, 44.000000)" stroke="#E5F3FE" stroke-linecap="square" stroke-width="6">
                        <path d="M164,52 L82.5734266,1.28115942" id="Line-Copy-3" transform="translate(123.286713, 26.640580) scale(-1, 1) translate(-123.286713, -26.640580) "></path>
                        <path id="Line-Copy-3-decoration-1" d="M93.3266491,4.44473426 L82.5734266,1.28115942 L90.1544296,9.53757468"></path>
                        <path d="M81.4265734,52 L0,0" id="Line-Copy-3"></path>
                        <path id="Line-Copy-3-decoration-1" d="M10.7169332,3.28440918 L0,0 L7.4875913,8.34122153"></path>
                    </g>
                    <path d="M138,97 L89,17" id="Line-Copy-3" stroke="#E5F3FE" stroke-width="6" stroke-linecap="square" transform="translate(113.500000, 57.000000) scale(-1, 1) translate(-113.500000, -57.000000) "></path>
                    <path id="Line-Copy-3-decoration-1" d="M97.1992337,24.6428114 L89,17 L92.0827072,27.7766839" stroke="#E5F3FE" stroke-width="6" stroke-linecap="square"></path>
                    <path d="M90,97 L41,15" id="Line-Copy-3" stroke="#E5F3FE" stroke-width="6" stroke-linecap="square"></path>
                    <path id="Line-Copy-3-decoration-1" d="M49.1151645,22.7320182 L41,15 L43.9646731,25.8097508" stroke="#E5F3FE" stroke-width="6" stroke-linecap="square"></path>
                    <g id="Group-4-Copy" transform="translate(13.000000, 34.000000)" stroke="#26578A" stroke-width="3">
                        <path d="M111.800692,35.6270158 L111.800692,93.6458166 L113.450785,93.6458166 C121.388299,93.6458166 128.043114,87.6493987 128.867052,79.7547642 L130.444907,64.6364162 L128.867052,49.5180682 C128.043114,41.6234337 121.388299,35.6270158 113.450785,35.6270158 L111.800692,35.6270158 Z" id="Rectangle-7-Copy-2" fill="#E5F3FE" transform="translate(121.126873, 64.636416) rotate(-90.000000) translate(-121.126873, -64.636416) "></path>
                        <path d="M111.800692,47.4917827 L111.800692,52.5390617 L119.461307,56.1945269 L127.121921,52.5390617 L127.121921,47.4917827 L111.800692,47.4917827 Z" id="Rectangle-6-Copy" fill="#FFFFFF"></path>
                        <path d="M121.13893,49.381716 C129.14372,49.381716 135.834236,40.6546266 135.834236,27.4295418 C140.061639,23.1610635 140.317028,15.1827698 133.673965,13.353422 C134.122089,10.6385567 131.606832,6.69693288 127.983343,7.91649811 C127.983343,4.81646532 117.112877,3.6480198 114.99681,9.19169366 C111.073729,7.91649811 108.054155,13.4045417 103.222837,10.3556286 C98.9954332,15.2338895 106.846326,25.0513919 106.846326,27.4295418 C106.846326,41.5325583 113.134139,49.381716 121.13893,49.381716 Z" id="Oval-3-Copy-2" fill="#FFFFFF" stroke-linecap="round" transform="translate(120.417465, 27.347149) scale(-1, 1) translate(-120.417465, -27.347149) "></path>
                        <path d="M108.635126,25.6521824 C110.395867,25.6521824 112.109021,23.9572157 113.774588,20.5672823 C116.10638,23.9572157 121.055492,25.4403116 128.621921,25.0165699" id="Path-3-Copy-2" fill="#FFFFFF" stroke-linecap="round" stroke-linejoin="round"></path>
                        <path d="M136.949753,68.0263496 L136.949753,73.1112497" id="Path-5-Copy-5" fill="#FFFFFF" stroke-linecap="round"></path>
                        <path d="M120.651211,56.2183464 L113.782727,65.4355669 L108.120212,57.988684 L116.592673,52.5910015 L120.651211,56.2183464 Z" id="Rectangle-6-Copy-8" fill="#E5F3FE" stroke-linecap="round" stroke-linejoin="round" transform="translate(114.464608, 58.704033) scale(-1, 1) translate(-114.464608, -58.704033) "></path>
                        <path d="M132.310175,56.2183464 L125.441691,65.4355669 L119.779176,57.988684 L128.251637,52.5910015 L132.310175,56.2183464 Z" id="Rectangle-6-Copy-9" fill="#E5F3FE" stroke-linecap="round" stroke-linejoin="round"></path>
                        <path d="M18.6877658,34.6732809 L18.6877658,89.0133895 L22.6812372,89.0133895 C30.5073982,89.0133895 37.1058196,83.1793202 38.0645041,75.4120994 L39.7392554,61.8433352 L38.0645041,48.274571 C37.1058196,40.5073501 30.5073982,34.6732809 22.6812372,34.6732809 L18.6877658,34.6732809 Z" id="Rectangle-7-Copy" fill="#E5F3FE" transform="translate(29.219202, 61.843335) rotate(-90.000000) translate(-29.219202, -61.843335) "></path>
                        <path d="M14.7125098,17.808543 L7.32723931,33.9118124 C6.67103945,35.3426284 6.38066186,36.9140786 6.48220713,38.4849132 C6.8206695,43.7206899 11.3394831,47.6907476 16.5752598,47.3522853 L41.322819,45.7525002 L41.4899485,45.7795101 C43.0272693,46.0279571 44.603769,45.7807719 45.9912753,45.0737306 C49.6013249,43.2341323 51.0365593,38.8163197 49.1969609,35.2062701 L40.331479,17.808543 L14.7125098,17.808543 Z" id="Rectangle-6-Copy-4" fill="#FFFFFF"></path>
                        <path d="M21.5577771,43.1056498 L20.4379427,50.9370127 C21.7077903,55.045277 24.256761,56.9703876 28.3598136,56.9703876 C32.4628661,56.9703876 35.0118368,55.045277 36.2816844,50.9370127 L35.16185,43.1056498 L21.5577771,43.1056498 Z" id="Rectangle-6-Copy-3" fill="#FFFFFF"></path>
                        <path d="M27.5004253,47.907736 C35.9737034,47.907736 42.8426526,40.7038332 42.8426526,32.5699876 C42.8426526,24.4361421 45.4039253,9.68642141 27.5004253,9.56336507 C9.59692528,9.44030873 12.158198,25.1841977 12.158198,32.5699876 C12.158198,39.9557776 19.0271471,47.907736 27.5004253,47.907736 Z" id="Oval-3-Copy" fill="#FFFFFF" stroke-linecap="round"></path>
                        <path d="M17.1877658,23.0544382 C20.9690743,23.0544382 23.7191168,21.3679644 25.4378934,17.9950168 C27.8441806,21.3679644 31.9692444,22.8436289 37.8130847,22.4220105" id="Path-3-Copy" fill="#FFFFFF" stroke-linecap="round" stroke-linejoin="round"></path>
                        <path d="M15.4689892,66.9027565 L15.4689892,71.9621779" id="Path-5-Copy-2" fill="#FFFFFF" stroke-linecap="round"></path>
                        <path d="M62.9180693,30.0994006 L62.9180693,102.803696 L69.1180141,102.803696 C77.0529033,102.803696 83.7064073,96.8111276 84.5335673,88.9194693 L86.8885304,66.4515485 L84.5335673,43.9836276 C83.7064073,36.0919693 77.0529033,30.0994006 69.1180141,30.0994006 L62.9180693,30.0994006 Z" id="Rectangle-7-Copy-3" fill="#E5F3FE" transform="translate(74.907408, 66.451548) rotate(-90.000000) translate(-74.907408, -66.451548) "></path>
                        <path d="M64.6042367,45.2402597 L64.6042367,52.3832405 L74.0643247,57.1980166 L83.5244127,52.3832405 L83.5244127,45.2402597 L64.6042367,45.2402597 Z" id="Rectangle-6-Copy-2" fill="#FFFFFF"></path>
                        <path d="M74.6114995,50.4695305 C85.3530372,50.4695305 94.0607741,42.0258262 94.0607741,31.6099891 C94.0607741,29.5860981 94.0607741,26.4428412 94.0607741,22.1802184 C94.7746101,16.0317166 95.1348023,11.5787693 95.141351,8.82137659 C95.1511739,4.68528751 94.0607741,0.177420127 94.0607741,0.177420127 C79.4738181,3.32067702 50.5700967,-10.0381648 55.1622249,22.1802184 C55.1622249,25.3258258 55.1622249,28.1738746 55.1622249,31.6099891 C55.1622249,42.0258262 63.8699617,50.4695305 74.6114995,50.4695305 Z" id="Oval-3-Copy-3" fill="#FFFFFF" stroke-linecap="round"></path>
                        <path d="M61.4180693,16.8231768 C62.8015913,13.4585415 65.7992222,11.7762238 70.410962,11.7762238 C75.0227019,11.7762238 81.0179637,13.2482517 88.3967474,16.1923077" id="Path-3-Copy-3" fill="#FFFFFF" stroke-linecap="round"></path>
                        <path d="M53.8303161,68.975025 L53.8303161,79.0689311" id="Path-5-Copy-6" fill="#FFFFFF" stroke-linecap="round"></path>
                        <path d="M99.3568354,68.975025 L99.3568354,79.0689311" id="Path-5-Copy-7" fill="#FFFFFF" stroke-linecap="round"></path>
                        <path d="M73.4283584,55.9776865 L66.6298482,66.7112067 L61.0848828,58.1318773 L69.4875062,51.8338869 L73.4283584,55.9776865 Z" id="Rectangle-6-Copy-10" fill="#E5F3FE" stroke-linecap="round" stroke-linejoin="round" transform="translate(67.319655, 58.881119) scale(-1, 1) translate(-67.319655, -58.881119) "></path>
                        <path d="M88.6038648,55.9776865 L81.8053546,66.7112067 L76.2603892,58.1318773 L84.6630126,51.8338869 L88.6038648,55.9776865 Z" id="Rectangle-6-Copy-11" fill="#E5F3FE" stroke-linecap="round" stroke-linejoin="round"></path>
                    </g>
                </g>
            </g>
        </g>
    </g>
</svg>