<?xml version="1.0" encoding="UTF-8"?>
<svg width="30px" height="30px" viewBox="0 0 30 30" version="1.1" xmlns="http://www.w3.org/2000/svg" xmlns:xlink="http://www.w3.org/1999/xlink">
    <!-- Generator: Sketch 50.2 (55047) - http://www.bohemiancoding.com/sketch -->
    <title>Combined Shape Copy</title>
    <desc>Created with Sketch.</desc>
    <defs></defs>
    <g id="team-in-icon" stroke="none" stroke-width="1" fill="none" fill-rule="evenodd">
        <g id="About" transform="translate(-574.000000, -1898.000000)" fill="#26578A">
            <g id="Group-10" transform="translate(514.000000, 1896.000000)">
                <g id="Group-4-Copy-2" transform="translate(58.000000, 0.000000)">
                    <path d="M2,17 C2,8.71572834 8.71572834,2 17,2 C25.2842717,2 32,8.71572834 32,17 C32,25.2842717 25.2842717,32 17,32 C8.71572834,32 2,25.2842717 2,17 Z M13.3624963,14.098393 L10.1877317,14.098393 L10.1877317,23.6372428 L13.3624963,23.6372428 L13.3624963,14.098393 Z M13.5715943,11.147642 C13.5509888,10.2123638 12.8821669,9.5 11.7960999,9.5 C10.7100329,9.5 10,10.2123638 10,11.147642 C10,12.0635473 10.689047,12.7964235 11.7548889,12.7964235 L11.7751774,12.7964235 C12.8821669,12.7964235 13.5715943,12.0635473 13.5715943,11.147642 Z M24.8119119,18.1679578 C24.8119119,15.2380358 23.2457057,13.8744023 21.1565643,13.8744023 C19.4709731,13.8744023 18.7163056,14.8002473 18.2949395,15.4497443 L18.2949395,14.0986462 L15.1197945,14.0986462 C15.1616395,14.9937226 15.1197945,23.637496 15.1197945,23.637496 L18.2949395,23.637496 L18.2949395,18.3102153 C18.2949395,18.0251305 18.315545,17.7407422 18.3994885,17.5366308 C18.6289384,16.9670943 19.1513664,16.3774253 20.0284622,16.3774253 C21.1777404,16.3774253 21.6371474,17.2521158 21.6371474,18.5339528 L21.6371474,23.6372428 L24.8117851,23.6372428 L24.8119119,18.1679578 Z" id="Combined-Shape-Copy"></path>
                </g>
            </g>
        </g>
    </g>
</svg>