<?xml version="1.0" encoding="UTF-8"?>
<svg width="30px" height="30px" viewBox="0 0 30 30" version="1.1" xmlns="http://www.w3.org/2000/svg" xmlns:xlink="http://www.w3.org/1999/xlink">
    <!-- Generator: Sketch 50.2 (55047) - http://www.bohemiancoding.com/sketch -->
    <title>Group</title>
    <desc>Created with Sketch.</desc>
    <defs></defs>
    <g id="team-tw-icon" stroke="none" stroke-width="1" fill="none" fill-rule="evenodd">
        <g id="About" transform="translate(-516.000000, -1898.000000)">
            <g id="Group-10" transform="translate(514.000000, 1896.000000)">
                <g id="Group-8">
                    <g id="Group" transform="translate(2.000000, 2.000000)">
                        <path d="M0,15 C0,6.71572834 6.71572834,0 15,0 C23.2842717,0 30,6.71572834 30,15 C30,23.2842717 23.2842717,30 15,30 C6.71572834,30 0,23.2842717 0,15 Z" id="LinkedIN" fill="#26578A"></path>
                        <path d="M15.0507516,13.1921879 L15.0822282,13.7112217 L14.5576187,13.6476666 C12.6480401,13.4040384 10.9797819,12.5778213 9.5633363,11.1902002 L8.87085177,10.5016859 L8.69248454,11.0101273 C8.3147657,12.1435277 8.55608607,13.3404833 9.34300031,14.1455154 C9.76268791,14.5904015 9.6682582,14.6539567 8.94429709,14.3891435 C8.69248454,14.3044033 8.47214855,14.2408481 8.45116417,14.2726257 C8.37771884,14.3467734 8.6295314,15.3106934 8.82888301,15.6920243 C9.10167994,16.2216507 9.65776601,16.7406846 10.266313,17.0478679 L10.7804303,17.291496 L10.1718833,17.3020885 C9.58432068,17.3020885 9.5633363,17.312681 9.62628944,17.5351241 C9.83613324,18.2236384 10.6650162,18.9545228 11.588329,19.2722986 L12.2388447,19.4947417 L11.6722665,19.8337025 C10.8328913,20.3209588 9.84662543,20.5963645 8.86035958,20.6175496 C8.38821103,20.6281421 8,20.6705122 8,20.7022898 C8,20.8082151 9.28004717,21.4013966 10.0249927,21.6344322 C12.2598291,22.3229465 14.9143532,22.0263557 16.9078693,20.8505852 C18.3243149,20.0137755 19.7407605,18.3507487 20.4017685,16.7406846 C20.758503,15.8826898 21.1152374,14.3149958 21.1152374,13.5629263 C21.1152374,13.0756701 21.146714,13.0121149 21.7342766,12.4295259 C22.0805189,12.090565 22.4057768,11.7198266 22.4687299,11.6139013 C22.5736518,11.4126433 22.5631596,11.4126433 22.028058,11.5927163 C21.1362218,11.9104921 21.0103155,11.868122 21.4509875,11.3914582 C21.7762454,11.0524974 22.1644564,10.4381308 22.1644564,10.2580578 C22.1644564,10.2262802 22.0070736,10.2792429 21.8287063,10.3745756 C21.6398469,10.4805009 21.2201593,10.6393888 20.9053936,10.7347215 L20.3388154,10.9147945 L19.8246981,10.5652411 C19.5414089,10.3745756 19.1427057,10.1627251 18.9328619,10.0991699 C18.3977602,9.95087452 17.5793694,9.97205957 17.0967287,10.14154 C15.7852049,10.6182037 14.9563219,11.8469369 15.0507516,13.1921879 Z" id="Combined-Shape" fill="#FFFFFF"></path>
                    </g>
                </g>
            </g>
        </g>
    </g>
</svg>