<?xml version="1.0" encoding="UTF-8"?>
<svg width="18px" height="15px" viewBox="0 0 18 15" version="1.1" xmlns="http://www.w3.org/2000/svg" xmlns:xlink="http://www.w3.org/1999/xlink">
    <!-- Generator: Sketch 50.2 (55047) - http://www.bohemiancoding.com/sketch -->
    <title>Combined Shape</title>
    <desc>Created with Sketch.</desc>
    <defs></defs>
    <g id="tw-blog-icon" stroke="none" stroke-width="1" fill="none" fill-rule="evenodd">
        <g id="Blog-Article" transform="translate(-1208.000000, -532.000000)" fill="#26578A">
            <path d="M1216.74003,535.990235 L1216.77905,536.639027 L1216.12875,536.559583 C1213.76165,536.255048 1211.6937,535.222277 1209.93789,533.48775 L1209.0795,532.627107 L1208.8584,533.262659 C1208.39018,534.67941 1208.68932,536.175604 1209.66477,537.181894 C1210.18501,537.738002 1210.06795,537.817446 1209.17054,537.486429 C1208.8584,537.380504 1208.58527,537.30106 1208.55926,537.340782 C1208.46822,537.433467 1208.78036,538.638367 1209.02747,539.11503 C1209.36563,539.777063 1210.05495,540.425856 1210.80929,540.809835 L1211.44659,541.11437 L1210.69224,541.127611 C1209.9639,541.127611 1209.93789,541.140851 1210.01593,541.418905 C1210.27605,542.279548 1211.30352,543.193153 1212.44805,543.590373 L1213.25442,543.868427 L1212.5521,544.292128 C1211.51162,544.901199 1210.28905,545.245456 1209.06649,545.271937 C1208.48122,545.285178 1208,545.33814 1208,545.377862 C1208,545.510269 1209.58673,546.251746 1210.51016,546.54304 C1213.28043,547.403683 1216.57095,547.032945 1219.04209,545.563231 C1220.7979,544.517219 1222.55371,542.438436 1223.37308,540.425856 C1223.81529,539.353362 1224.25749,537.393745 1224.25749,536.453658 C1224.25749,535.844588 1224.29651,535.765144 1225.02484,535.036907 C1225.45404,534.613206 1225.85723,534.149783 1225.93526,534.017377 C1226.06532,533.765804 1226.05232,533.765804 1225.38901,533.990895 C1224.2835,534.388115 1224.12743,534.335152 1224.67368,533.739323 C1225.07687,533.315622 1225.55809,532.547663 1225.55809,532.322572 C1225.55809,532.28285 1225.363,532.349054 1225.1419,532.46822 C1224.90779,532.600626 1224.38755,532.799236 1223.99737,532.918402 L1223.29505,533.143493 L1222.65775,532.706551 C1222.30659,532.46822 1221.81236,532.203406 1221.55224,532.123962 C1220.88894,531.938593 1219.87447,531.965074 1219.2762,532.176925 C1217.65045,532.772755 1216.62297,534.308671 1216.74003,535.990235 Z" id="Combined-Shape"></path>
        </g>
    </g>
</svg>