<?xml version="1.0" encoding="utf-8"?><svg xmlns="http://www.w3.org/2000/svg" xmlns:xlink="http://www.w3.org/1999/xlink"><symbol viewBox="0 0 123 40" id="Logo"><path d="M121.914 32.609c-1.793 2.449-3.072 3.673-3.837 3.673-.481 0-.907-.148-1.279-.443-.372-.295-1.593-2.246-3.665-5.852.956-1.751 1.631-2.839 2.025-3.266.394-.426.787-.64 1.181-.64.459 0 .973.47 1.541 1.41 1.427-.971 1.794-4.654-.221-4.402-2.33.21-3.957 2.922-5.405 5.349l-1.867-3.253c-.659-1.152-1.451-1.728-2.373-1.728-.638 0-1.489.638-2.555 1.914-1.066 1.275-4.181 5.914-5.626 7.847a10.016 10.016 0 0 1-2.96 2.637c-1.258.743-2.4 1.115-3.427 1.115-2.143 0-3.553-.787-4.231-2.361 5.007-2.755 7.511-5.554 7.511-8.396 0-.831-.29-1.509-.869-2.033-.58-.525-1.317-.787-2.214-.787-1.618 0-3.193.629-4.723 1.886-1.438 1.182-3.269 3.728-6.054 7.21-1.078 1.348-3.873 4.351-5.36 4.351-.59 0-.951-.257-1.082-.772-.131-.515-.197-1.539-.197-3.074V22.902l6.33-9.971s-.19-1.07-1.292-.96c-.072.072-5.038 7.9-5.038 7.9V7.421s-2.501.766-3.28 3.214v13.419c0 .175-.412.988-1.235 2.438a81.88 81.88 0 0 1-2.091 3.519 145.52 145.52 0 0 1-2.074 3.142l.005.003c-1.942 2.455-3.369 3.685-4.28 3.685-.459 0-.744-.246-.853-.738-.11-.492-.164-1.415-.164-2.771v-9.478c3.432-5.335 5.871-9.484 7.314-12.447 1.443-2.963 2.165-5.318 2.165-7.068 0-1.312-.323-2.361-.968-3.149C70.121.403 69.23.009 68.093.009c-2.143 0-4.198 1.268-6.166 3.805s-2.952 5.368-2.952 8.495V25c0 .35-.213 1.066-.64 2.148-.426 1.082-.815 1.957-1.164 2.624-.35.667-.694 1.258-1.033 1.771-.227.343-.472.705-.732 1.082-.961 1.337-1.849 2.371-2.662 3.099-.831.744-1.454 1.115-1.869 1.115-.481 0-.776-.12-.886-.361-.11-.24-.164-.951-.164-2.132v-11.15s-2.106.209-2.886 1.476c-.815-.623-2.242-1.017-3.378-1.017-1.596 0-3.46.848-5.592 2.542-1.954 1.553-4.374 4.559-5.625 6.248-2.131 2.876-3.826 4.395-5.313 4.395-.59 0-.951-.257-1.082-.772-.131-.515-.197-1.539-.197-3.074V22.902l6.33-9.971s-.105-1.056-1.292-.96c-.072.072-5.038 7.9-5.038 7.9V7.421s-2.451.731-3.28 3.214v13.419c-5.21 9.637-8.702 12.786-9.61 12.786-.481 0-.782-.208-.902-.623-.12-.415-.18-1.268-.18-2.558V23.262S9.506 23.563 8.5 25v9.937c0 1.596.153 2.711.459 3.345.306.634 1.05.951 2.23.951 1.05 0 2.23-.503 3.542-1.509 1.312-1.005 2.591-2.448 3.837-4.329l-.002-.002c1.275-1.731 2.576-3.715 3.905-5.958v7.887c0 1.369.164 2.363.492 2.982.328.619 1.148.929 2.46.929 2.613 0 4.981-1.862 7.455-5.342.42-.59 1.52-1.994 1.761-2.3v1.41c0 1.946.497 3.499 1.492 4.657.995 1.159 2.334 1.738 4.018 1.738 1.159 0 2.192-.246 3.099-.738s2.017-1.547 3.329-3.165c.021 1.531.23 2.537.623 3.017.394.481 1.038.722 1.935.722 2.29 0 4.63-1.797 7.021-5.39 1.223-1.585 2.164-3.209 2.818-4.875v5.969c0 1.837.197 3.012.59 3.526.394.513.973.771 1.738.771 2.558 0 5.138-1.946 7.74-5.838l-.002-.002c1.275-1.731 2.576-3.715 3.905-5.958v7.887c0 1.369.164 2.363.492 2.982.328.619 1.148.929 2.46.929 2.613 0 4.927-1.9 7.455-5.342.448-.61 1.105-1.36 1.892-2.366a11.36 11.36 0 0 0-.131 1.673c0 1.968.53 3.493 1.591 4.575 1.06 1.082 2.498 1.623 4.313 1.623 2.493 0 4.504-.476 6.035-1.427 1.693-.923 2.771-2.336 4.107-4.218.761-1.072 1.787-2.514 3.043-4.326 1.399-2.011 2.285-3.017 2.657-3.017.328 0 .722.448 1.181 1.345l2.215 4.032-1.723 2.888c-.897 1.487-1.75 2.23-2.558 2.23-.547 0-1.192-.677-1.935-2.033-.7.59-1.857 1.211-1.869 2.755.438 1.137 1.356 1.705 2.757 1.705.722 0 1.433-.235 2.133-.705s1.477-1.371 2.331-2.703c.846-1.365 1.41-2.234 1.692-2.609 1.587 2.642 2.637 4.289 3.152 4.941.515.651 1.145.977 1.89.977.855 0 1.912-.514 3.173-1.541 1.26-1.028 2.482-2.46 3.666-4.296l-1.05-.785zM62.256 10.307c0-2.667.476-4.777 1.427-6.33.951-1.552 2.115-2.329 3.493-2.329 1.509 0 2.263 1.225 2.263 3.673 0 1.596-.465 3.482-1.394 5.658-.93 2.176-2.859 5.669-5.789 10.479V10.307zM46.513 33.003c0 .284-.434.924-1.301 1.919s-1.806 1.492-2.815 1.492c-1.296 0-2.316-.431-3.062-1.295-.746-.864-1.119-2.083-1.119-3.657 0-1.815.527-3.334 1.581-4.559 1.053-1.224 2.239-1.837 3.556-1.837 1.229 0 2.283.448 3.161 1.345v6.592zm41.817-.558c-.175-.546-.262-1.214-.262-2.001 0-1.443.382-2.678 1.148-3.706.765-1.028 1.705-1.541 2.821-1.541.612 0 1.099.208 1.459.623.361.416.541.951.541 1.607 0 2.165-1.815 4.132-5.444 5.904-.001-.066-.088-.361-.263-.886z"/><path d="M11.106 26.092c.618-.836 1.075-1.894.677-2.833 1.137 1.88.603 4.277-.643 6.1-1.246 1.823-3.103 3.225-4.806 4.72C4.632 35.573 3 37.148 2.433 39.227c-1.198-1.525-.983-3.545.001-5.19.983-1.644 2.61-2.889 4.228-4.058s3.296-2.332 4.444-3.887z"/><path d="M10.603 25.6c.71-.62 1.269-1.456 1.181-2.34.592 1.822-.374 3.809-1.836 5.177-1.462 1.368-3.467 2.042-5.255 3.047C2.905 32.49 1.24 33.915.313 35.62c-.719-1.525-.086-3.351 1.111-4.609s2.867-2.06 4.514-2.798c1.646-.737 3.344-1.461 4.665-2.613z"/><path d="M10.453 24.819c.649-.35 1.272-.879 1.331-1.559.091 1.452-1.012 2.782-2.366 3.572s-2.947 1.162-4.475 1.63c-1.528.469-3.077 1.085-4.097 2.211-.243-1.25.581-2.512 1.716-3.262s2.536-1.085 3.907-1.376c1.37-.293 2.776-.565 3.984-1.216z"/><circle cx="10.126" cy="20.666" r="1.524"/></symbol><symbol viewBox="0 0 49.906 36.151" id="arrowLeft"><path d="M33.597 1.597c-.68-.703-1.811-.703-2.514 0-.68.68-.68 1.811 0 2.489l12.749 12.75H1.76c-.98.001-1.76.781-1.76 1.761 0 .981.78 1.786 1.76 1.786h42.072l-12.75 12.726c-.68.703-.68 1.836 0 2.514.703.703 1.836.703 2.514 0l15.768-15.768a1.732 1.732 0 0 0 0-2.489L33.597 1.597z"/></symbol><symbol viewBox="0 0 295 295" id="shape1"><path d="M144.075.484L.5 144.068c-.18.961-.272 1.934-.299 2.909L146.984.184c-.975.028-1.948.119-2.909.3zm9.654.757L1.261 153.718c.221.625.475 1.24.766 1.844L155.574 2.006a18.44 18.44 0 0 0-1.845-.765zm6.941 4.36c-.15-.15-.313-.278-.467-.422L5.2 160.189c.142.152.269.314.418.462l.864.864L161.525 6.455l-.855-.854zM10.38 165.418l155.051-155.05 1.304 1.303-155.05 155.05zm5.207 5.205l155.05-155.05 1.303 1.303-155.05 155.05zm5.205 5.205l155.05-155.05 1.292 1.292-155.05 155.05zm5.198 5.192L181.04 25.97l1.304 1.304-155.05 155.05zm5.206 5.205l155.05-155.05 1.303 1.303-155.05 155.05zm5.206 5.205l155.05-155.05 1.303 1.304-155.05 155.05zm5.205 5.207l155.05-155.05 1.303 1.303L42.91 197.94zM201.865 46.796L46.82 201.854l1.295 1.294L203.166 48.097zM52.014 207.048l155.05-155.05 1.305 1.305-155.05 155.05zm6.509 6.509l-1.3-1.3 155.05-155.05 1.3 1.3zM218.778 63.712l-155.05 155.05-1.3-1.3 155.05-155.05zm5.206 5.205l-155.05 155.05-1.305-1.305 155.05-155.05zm5.204 5.201l-155.05 155.05-1.3-1.3 155.05-155.05zm5.206 5.206l-155.05 155.05-1.304-1.303L233.09 78.02zm5.205 5.206L84.549 239.58l-1.305-1.305 155.05-155.05zm5.201 5.203L89.75 244.783l-1.3-1.3L243.5 88.432zm5.206 5.206l-155.05 155.05-1.304-1.304 155.05-155.05zm5.206 5.198l-155.05 155.05-1.3-1.3 155.05-155.05zm5.203 5.208l-155.05 155.05-1.299-1.298 155.05-155.05zm5.205 5.2l-155.05 155.05-1.3-1.299 155.05-155.05zM115.772 270.806l155.049-155.053-1.296-1.297-155.056 155.047zm160.259-149.844l-155.05 155.05-1.299-1.3 155.05-155.05zm5.201 5.205l-155.05 155.05-1.299-1.298 155.05-155.05zm-149.849 160.25L286.44 131.371l-1.304-1.303-155.052 155.051zm5.41 5.012l154.653-154.653a18.402 18.402 0 0 0-1.151-1.458l-154.96 154.96c.471.412.957.795 1.458 1.151zm7.299 3.113L294.56 144.074a18.711 18.711 0 0 0-.523-2.086L142.005 294.019a18.51 18.51 0 0 0 2.087.523zm12.376-1.978l136.099-136.087a18.457 18.457 0 0 0 1.708-4.316L152.179 294.257a18.423 18.423 0 0 0 4.289-1.693zM134.39 5.601L5.618 134.371a18.519 18.519 0 0 0-4.106 6.215L140.591 1.5a18.514 18.514 0 0 0-6.201 4.101zM149.607.286L.304 149.597c.084.745.221 1.483.395 2.215L151.822.679c-.732-.173-1.47-.31-2.215-.393zm7.726 2.684L2.991 157.32c.328.526.684 1.039 1.07 1.537L158.866 4.036a18.522 18.522 0 0 0-1.533-1.066zM7.842 162.878l155.05-155.05 1.304 1.304-155.05 155.05zm5.206 5.206l155.05-155.05 1.303 1.303-155.05 155.05zm5.205 5.205l155.05-155.05 1.292 1.292-155.05 155.05zm5.199 5.193l155.05-155.05 1.303 1.303-155.05 155.05zm5.205 5.204l155.05-155.05 1.303 1.303L29.96 184.99zm5.206 5.206l155.05-155.05 1.303 1.303-155.05 155.05zm5.205 5.206l155.05-155.05 1.303 1.303-155.05 155.05zM199.326 44.257L44.281 199.315l1.295 1.294L200.627 45.558zM49.475 204.51l155.05-155.05 1.305 1.304-155.05 155.05zm5.206 5.205l155.05-155.05 1.3 1.3-155.05 155.05zM216.24 61.172L61.19 216.222l-1.301-1.3 155.05-155.05zm5.205 5.205l-155.05 155.05-1.305-1.304 155.05-155.05zm5.203 5.203L71.598 226.63l-1.3-1.301 155.05-155.05zm5.206 5.205l-155.05 155.05-1.303-1.303 155.05-155.05zm5.206 5.205L82.01 237.04l-1.305-1.304 155.05-155.05zm5.2 5.204L87.21 242.244l-1.3-1.3 155.05-155.05zm5.207 5.206L92.417 247.45l-1.304-1.304 155.05-155.05zm5.206 5.198l-155.05 155.05-1.3-1.3 155.05-155.05zm5.203 5.208l-155.05 155.05-1.298-1.298 155.05-155.05zm5.204 5.201l-155.05 155.05-1.3-1.3 155.05-155.05zm-149.847 160.26l155.049-155.053-1.296-1.297L111.93 266.964zm160.259-149.844l-155.05 155.05-1.299-1.3 155.05-155.05zm5.201 5.205l-155.05 155.05-1.299-1.298 155.05-155.05zm-149.849 160.25l155.057-155.046-1.304-1.304L127.545 282.58zM289.108 134.04l-155.05 155.05-1.304-1.305 155.05-155.05zM140.204 293.352l153.164-153.164a18.597 18.597 0 0 0-.864-1.745L138.459 292.487c.57.32 1.151.61 1.745.865zm8.962 1.436l145.639-145.627c.078-.878.078-1.76.031-2.64L146.539 294.819c.876.046 1.753.046 2.627-.031z"/></symbol><symbol viewBox="0 0 132 132" id="shape2"><path d="M71.82 129.545l57.486-57.486a8.268 8.268 0 0 0 1.833-2.775l-62.087 62.091a8.246 8.246 0 0 0 2.768-1.83zm-6.793 2.373l66.651-66.655a8.363 8.363 0 0 0-.176-.989l-67.464 67.468c.327.077.657.138.989.176zm-3.449-1.199l68.901-68.905a8.107 8.107 0 0 0-.478-.686l-69.107 69.115c.222.172.45.33.684.476zm66.737-71.389l-69.217 69.217-.582-.582 69.217-69.216zm-2.325-2.322l-69.216 69.216-.582-.582 69.216-69.216zm-2.323-2.324L54.45 123.901l-.577-.577 69.217-69.217zm-2.321-2.314L52.13 121.585l-.582-.582 69.216-69.217zm-2.324-2.325l-69.216 69.217-.582-.582 69.216-69.217zm-2.324-2.324l-69.216 69.217-.582-.582 69.216-69.217zm-2.324-2.323l-69.217 69.216-.582-.582 69.217-69.216zm-2.325-2.333l-69.217 69.217-.578-.579 69.216-69.216zm-2.321-2.316l-69.216 69.216-.583-.582 69.217-69.217zm-2.324-2.325l-69.216 69.217-.58-.58 69.216-69.217zm-72.123 66.313l69.217-69.217.58.58-69.216 69.217zm-2.323-2.324l69.216-69.217.583.583-69.217 69.217zm-2.323-2.323L99.85 30.875l.58.58-69.216 69.217zm-2.324-2.323L97.528 28.55l.582.582L28.893 98.35zm-2.324-2.324l69.216-69.216.583.582-69.217 69.217zm-2.321-2.323l69.216-69.216.58.58-69.216 69.217zm-2.324-2.323L90.56 21.58l.582.582-69.217 69.217zm-2.325-2.322l69.216-69.217.58.58-69.216 69.217zm-2.323-2.325l69.217-69.216.58.58-69.217 69.217zm-2.322-2.322l69.217-69.216.58.58-69.217 69.216zm-2.325-2.323l69.217-69.217.578.578-69.216 69.217zM9.724 79.18L78.94 9.963l.58.58L10.303 79.76zm-2.322-2.324L76.62 7.64l.58.58L7.982 77.435zm-2.325-2.325L74.294 5.315l.582.582L5.659 75.113zm-2.325-2.323L71.97 2.992l.582.582L3.335 72.791zm66.473-71.12L.85 69.463c.114.265.243.525.386.779L70.004 1.474a8.287 8.287 0 0 0-.779-.386zM65.224.447L.209 65.457a8.272 8.272 0 0 0-.014 1.178L66.397.433a8.2 8.2 0 0 0-1.173.014z"/></symbol><symbol viewBox="0 0 438.536 438.536" id="telephone"><path d="M414.41 24.123C398.333 8.042 378.963 0 356.315 0H82.228C59.58 0 40.21 8.042 24.126 24.123 8.045 40.207.003 59.576.003 82.225v274.084c0 22.647 8.042 42.018 24.123 58.102 16.084 16.084 35.454 24.126 58.102 24.126h274.084c22.648 0 42.018-8.042 58.095-24.126 16.084-16.084 24.126-35.454 24.126-58.102V82.225c-.001-22.649-8.043-42.021-24.123-58.102zm-55.251 308.751c-3.997 8.754-12.99 16.371-26.977 22.846-13.99 6.475-26.413 9.712-37.265 9.712-3.046 0-6.283-.235-9.708-.711-3.426-.479-6.324-.952-8.703-1.428-2.378-.476-5.523-1.331-9.421-2.57-3.905-1.234-6.715-2.189-8.422-2.854-1.718-.664-4.856-1.854-9.421-3.566-4.569-1.718-7.427-2.765-8.562-3.138-31.215-11.427-61.721-32.028-91.507-61.814-29.786-29.793-50.391-60.292-61.812-91.502-.378-1.143-1.425-3.999-3.14-8.565a952.564 952.564 0 0 0-3.571-9.419c-.662-1.713-1.615-4.521-2.853-8.42-1.237-3.903-2.091-7.041-2.568-9.423-.478-2.376-.95-5.277-1.427-8.704-.476-3.427-.713-6.667-.713-9.71 0-10.85 3.237-23.269 9.71-37.259 6.472-13.988 14.084-22.981 22.841-26.979 10.088-4.189 19.7-6.283 28.837-6.283 2.091 0 3.616.192 4.565.572.953.385 2.524 2.094 4.714 5.14 2.19 3.046 4.568 6.899 7.137 11.563 2.57 4.665 5.092 9.186 7.566 13.562a601.267 601.267 0 0 1 7.139 12.991c2.284 4.279 3.711 6.995 4.281 8.133.571.957 1.809 2.762 3.711 5.429 1.902 2.663 3.333 5.039 4.283 7.135.95 2.094 1.427 4.093 1.427 5.996 0 2.859-1.953 6.331-5.854 10.42-3.903 4.093-8.186 7.854-12.85 11.281s-8.945 7.092-12.847 10.994c-3.899 3.899-5.852 7.087-5.852 9.562 0 1.333.333 2.902 1 4.71.666 1.812 1.285 3.287 1.856 4.427.571 1.141 1.477 2.76 2.712 4.856 1.237 2.096 2.048 3.427 2.426 3.999 10.467 18.843 22.508 35.07 36.114 48.681 13.612 13.613 29.836 25.648 48.682 36.117.567.384 1.902 1.191 4.004 2.43 2.091 1.232 3.713 2.136 4.853 2.707 1.143.571 2.614 1.191 4.425 1.852 1.811.664 3.381.999 4.719.999 3.036 0 7.225-3.138 12.56-9.418a976.681 976.681 0 0 1 16.276-18.705c5.516-6.181 9.985-9.274 13.418-9.274 1.902 0 3.897.473 5.999 1.424 2.095.951 4.469 2.382 7.132 4.284 2.669 1.91 4.476 3.142 5.428 3.721l15.125 8.271c10.089 5.332 18.511 10.041 25.27 14.134s10.424 6.899 10.996 8.419c.379.951.564 2.478.564 4.572-.007 9.128-2.102 18.741-6.297 28.803z"/></symbol></svg>