<?xml version="1.0" encoding="utf-8"?>
<!-- Generator: Adobe Illustrator 17.0.0, SVG Export Plug-In . SVG Version: 6.00 Build 0)  -->
<!DOCTYPE svg PUBLIC "-//W3C//DTD SVG 1.1//EN" "http://www.w3.org/Graphics/SVG/1.1/DTD/svg11.dtd">
<svg version="1.1" id="shape2" xmlns="http://www.w3.org/2000/svg" xmlns:xlink="http://www.w3.org/1999/xlink" x="0px" y="0px"
	 width="132px" height="132px" viewBox="0 0 132 132" enable-background="new 0 0 132 132" xml:space="preserve">
<path d="M71.82,129.545l57.486-57.486c0.818-0.818,1.428-1.765,1.833-2.775l-62.087,62.091
	C70.06,130.971,71.004,130.361,71.82,129.545z"/>
<path d="M65.027,131.918l66.651-66.655c-0.037-0.332-0.099-0.662-0.176-0.989l-67.464,67.468
	C64.365,131.819,64.695,131.88,65.027,131.918z"/>
<path d="M61.578,130.719l68.901-68.905c-0.146-0.235-0.306-0.464-0.478-0.686l-69.107,69.115
	C61.116,130.415,61.344,130.573,61.578,130.719z"/>
<rect x="44.469" y="93.241" transform="matrix(-0.7071 0.7071 -0.7071 -0.7071 225.6893 93.8175)" width="97.888" height="0.823"/>
<rect x="42.146" y="90.917" transform="matrix(-0.7071 0.7071 -0.7071 -0.7071 220.079 91.4938)" width="97.888" height="0.823"/>
<rect x="39.824" y="88.599" transform="matrix(-0.7071 0.7071 -0.7071 -0.7071 214.4746 89.1729)" width="97.888" height="0.816"/>
<rect x="37.501" y="86.272" transform="matrix(-0.7071 0.7071 -0.7071 -0.7071 208.8661 86.8553)" width="97.888" height="0.823"/>
<rect x="35.177" y="83.949" transform="matrix(-0.7071 0.7071 -0.7071 -0.7071 203.2561 84.5317)" width="97.888" height="0.823"/>
<rect x="32.853" y="81.625" transform="matrix(-0.7071 0.7071 -0.7071 -0.7071 197.6458 82.2077)" width="97.888" height="0.823"/>
<rect x="30.53" y="79.301" transform="matrix(-0.7071 0.7071 -0.7071 -0.7071 192.0354 79.8835)" width="97.888" height="0.823"/>
<rect x="28.206" y="76.98" transform="matrix(-0.7071 0.7071 -0.7071 -0.7071 186.4259 77.5531)" width="97.888" height="0.818"/>
<rect x="25.883" y="74.654" transform="matrix(-0.7071 0.7071 -0.7071 -0.7071 180.8181 75.2346)" width="97.888" height="0.824"/>
<rect x="23.56" y="72.333" transform="matrix(-0.7071 0.7071 -0.7071 -0.7071 175.2103 72.9118)" width="97.888" height="0.821"/>
<rect x="21.237" y="70.009" transform="matrix(0.7071 -0.7071 0.7071 0.7071 -29.2386 70.2499)" width="97.888" height="0.821"/>
<rect x="18.914" y="67.685" transform="matrix(0.7071 -0.7071 0.7071 0.7071 -28.2764 67.927)" width="97.888" height="0.824"/>
<rect x="16.59" y="65.362" transform="matrix(0.7071 -0.7071 0.7071 0.7071 -27.3137 65.604)" width="97.888" height="0.821"/>
<rect x="14.267" y="63.038" transform="matrix(0.7071 -0.7071 0.7071 0.7071 -26.3514 63.2808)" width="97.888" height="0.823"/>
<rect x="11.943" y="60.714" transform="matrix(0.7071 -0.7071 0.7071 0.7071 -25.389 60.9573)" width="97.888" height="0.824"/>
<rect x="9.621" y="58.393" transform="matrix(0.7071 -0.7071 0.7071 0.7071 -24.427 58.6338)" width="97.888" height="0.821"/>
<rect x="7.298" y="56.069" transform="matrix(0.7071 -0.7071 0.7071 0.7071 -23.4646 56.3106)" width="97.888" height="0.823"/>
<rect x="4.972" y="53.744" transform="matrix(0.7071 -0.7071 0.7071 0.7071 -22.5014 53.9881)" width="97.888" height="0.82"/>
<rect x="2.649" y="51.422" transform="matrix(0.7071 -0.7071 0.7071 0.7071 -21.5393 51.6635)" width="97.888" height="0.82"/>
<rect x="0.327" y="49.099" transform="matrix(0.7071 -0.7071 0.7071 0.7071 -20.5772 49.3417)" width="97.888" height="0.82"/>
<rect x="-1.998" y="46.775" transform="matrix(0.7071 -0.7071 0.7071 0.7071 -19.6144 47.0172)" width="97.888" height="0.818"/>
<rect x="-4.322" y="44.451" transform="matrix(0.7071 -0.7071 0.7071 0.7071 -18.6517 44.6923)" width="97.888" height="0.82"/>
<rect x="-6.643" y="42.129" transform="matrix(0.7071 -0.7071 0.7071 0.7071 -17.69 42.3695)" width="97.888" height="0.82"/>
<rect x="-8.967" y="39.804" transform="matrix(0.7071 -0.7071 0.7071 0.7071 -16.7276 40.0452)" width="97.888" height="0.823"/>
<rect x="-11.292" y="37.479" transform="matrix(0.7071 -0.7071 0.7071 0.7071 -15.7646 37.7222)" width="97.888" height="0.824"/>
<path d="M69.225,1.088L0.85,69.463c0.114,0.265,0.243,0.525,0.386,0.779L70.004,1.474C69.749,1.331,69.49,1.202,69.225,1.088z"/>
<path d="M65.224,0.447L0.209,65.457c-0.035,0.392-0.035,0.786-0.014,1.178L66.397,0.433C66.006,0.412,65.614,0.412,65.224,0.447z"/>
</svg>
