<?xml version="1.0" encoding="UTF-8"?>
<svg width="50px" height="50px" viewBox="0 0 50 50" version="1.1" xmlns="http://www.w3.org/2000/svg" xmlns:xlink="http://www.w3.org/1999/xlink">
    <!-- Generator: Sketch 51.1 (57501) - http://www.bohemiancoding.com/sketch -->
    <title>conversation</title>
    <desc>Created with Sketch.</desc>
    <defs></defs>
    <g id="Page-1" stroke="none" stroke-width="1" fill="none" fill-rule="evenodd">
        <g id="Apple-TV" transform="translate(-815.000000, -6714.000000)" fill-rule="nonzero">
            <g id="Group-18-Copy" transform="translate(815.000000, 6714.000000)">
                <g id="conversation">
                    <path d="M17.3830078,50 C17.1288086,50 16.8791016,49.9007812 16.6922852,49.7139648 L12.6814453,45.703125 L6.8359375,45.703125 C3.06660156,45.703125 0,42.6365234 0,38.8671875 L0,23.828125 C0,20.0587891 3.06660156,16.9921875 6.8359375,16.9921875 L16.6992188,16.9921875 C17.2384766,16.9921875 17.6757812,17.4293945 17.6757812,17.96875 C17.6757812,18.5081055 17.2384766,18.9453125 16.6992188,18.9453125 L6.8359375,18.9453125 C4.14355469,18.9453125 1.953125,21.1357422 1.953125,23.828125 L1.953125,38.8671875 C1.953125,41.5595703 4.14355469,43.75 6.8359375,43.75 L13.181543,43.75 C13.580957,43.75 13.9262695,43.990332 14.0771484,44.3367188 L16.4080078,46.6674805 L16.409375,44.7258789 C16.4097656,44.1868164 16.8467773,43.75 17.3859375,43.75 L27.9296875,43.75 C30.6220703,43.75 32.8125,41.5595703 32.8125,38.8671875 L32.8125,32.1289062 C32.8125,31.5895508 33.2498047,31.1523438 33.7890625,31.1523438 C34.3283203,31.1523438 34.765625,31.5895508 34.765625,32.1289062 L34.765625,38.8671875 C34.765625,42.6365234 31.6990234,45.703125 27.9296875,45.703125 L18.3617187,45.703125 L18.359375,49.0241211 C18.359082,49.4189453 18.1210938,49.7748047 17.7561523,49.9257812 C17.6355469,49.9756836 17.5086914,50 17.3830078,50 Z" id="Shape" fill="#000000"></path>
                    <path d="M35.8061523,0.9765625 L33.3345703,0.9765625 C26.0348633,0.9765625 20.1171875,6.89414063 20.1171875,14.1939453 C20.1171875,21.4936523 26.0347656,27.4113281 33.3345703,27.4113281 L35.8061523,27.4113281 C37.159082,27.4113281 38.4643555,27.2076172 39.6933594,26.8299805 L43.75,30.8842773 L43.75,24.7580078 C46.9525391,22.3459961 49.0234375,18.5119141 49.0234375,14.1938477 C49.0234375,6.89414063 43.1058594,0.9765625 35.8061523,0.9765625 Z" id="Shape" fill="#FFBC53"></path>
                    <path d="M43.7501953,31.8608398 C43.4960938,31.8608398 43.2464844,31.7616211 43.059668,31.575 L39.4085937,27.9259766 C38.2367187,28.2326172 37.0276367,28.387793 35.8060547,28.387793 L33.3344727,28.387793 C25.5080078,28.387793 19.140625,22.0205078 19.140625,14.1939453 C19.140625,6.36738281 25.5080078,0 33.3345703,0 L35.8061523,0 C43.6326172,0 50,6.36738281 50,14.1939453 C50,16.4611328 49.4811523,18.6280273 48.4576172,20.6344727 C47.5564453,22.4010742 46.2723633,23.9824219 44.7265625,25.2342773 L44.7265625,30.8842773 C44.7265625,31.2791992 44.4886719,31.6352539 44.1238281,31.7864258 C44.0030273,31.8365234 43.8760742,31.8608398 43.7501953,31.8608398 Z M39.6932617,25.8533203 C39.9483398,25.8533203 40.1977539,25.953418 40.3836914,26.1391602 L42.7734375,28.5276367 L42.7734375,24.7581055 C42.7734375,24.4513672 42.9175781,24.1625 43.1624023,23.9780273 C46.2666016,21.6401367 48.046875,18.0739258 48.046875,14.1939453 C48.046875,7.44433594 42.5557617,1.953125 35.8061523,1.953125 L33.3345703,1.953125 C26.5849609,1.953125 21.09375,7.44433594 21.09375,14.1939453 C21.09375,20.9435547 26.5848633,26.4347656 33.3345703,26.4347656 L35.8061523,26.4347656 C37.0328125,26.4347656 38.2441406,26.2537109 39.406543,25.8964844 C39.5008789,25.8674805 39.5975586,25.8533203 39.6932617,25.8533203 Z" id="Shape" fill="#000000"></path>
                    <path d="M34.84375,18.2396484 C34.3044922,18.2396484 33.8671875,17.8024414 33.8671875,17.2630859 L33.8671875,14.9168945 C33.8671875,14.0421875 34.4658203,13.2972656 35.3230469,13.1054687 C36.3810547,12.86875 37.0946289,11.9076172 37.0196289,10.8200195 C36.9454102,9.74316406 36.0773438,8.87509766 35.0003906,8.80087891 C34.3861328,8.75849609 33.8023437,8.96484375 33.3556641,9.38173828 C32.9085938,9.79902344 32.6623047,10.3655273 32.6623047,10.9767578 C32.6623047,11.5161133 32.225,11.9533203 31.6857422,11.9533203 C31.1464844,11.9533203 30.7091797,11.5161133 30.7091797,10.9767578 C30.7091797,9.83505859 31.1879883,8.73330078 32.0229492,7.95390625 C32.8695312,7.16357422 33.9755859,6.77265625 35.1345703,6.85224609 C37.1791016,6.99316406 38.8271484,8.64121094 38.9680664,10.6856445 C39.1082031,12.7189453 37.7879883,14.5195312 35.8202148,14.9949219 L35.8202148,17.2630859 C35.8203125,17.8024414 35.3831055,18.2396484 34.84375,18.2396484 Z" id="Shape" fill="#000000"></path>
                    <path d="M34.84375,22.1025391 C34.5869141,22.1025391 34.3349609,21.9990234 34.1533203,21.8173828 C33.9717773,21.6357422 33.8671875,21.3837891 33.8671875,21.1259766 C33.8671875,20.8691406 33.9716797,20.6171875 34.1533203,20.4355469 C34.3349609,20.2539063 34.5869141,20.1494141 34.84375,20.1494141 C35.1005859,20.1494141 35.3525391,20.2539062 35.5341797,20.4355469 C35.7157227,20.6171875 35.8203125,20.8691406 35.8203125,21.1259766 C35.8203125,21.3837891 35.7158203,21.6347656 35.5341797,21.8173828 C35.3525391,21.9990234 35.1005859,22.1025391 34.84375,22.1025391 Z" id="Shape" fill="#000000"></path>
                    <path d="M26.8554688,32.2265625 L6.25,32.2265625 C5.71074219,32.2265625 5.2734375,31.7893555 5.2734375,31.25 C5.2734375,30.7106445 5.71074219,30.2734375 6.25,30.2734375 L26.8554688,30.2734375 C27.3947266,30.2734375 27.8320312,30.7106445 27.8320312,31.25 C27.8320312,31.7893555 27.3948242,32.2265625 26.8554688,32.2265625 Z" id="Shape" fill="#000000"></path>
                    <path d="M26.8554688,37.6953125 C26.5986328,37.6953125 26.3466797,37.5908203 26.1650391,37.4091797 C25.9833984,37.2275391 25.8789062,36.9755859 25.8789062,36.71875 C25.8789062,36.4619141 25.9833008,36.2099609 26.1650391,36.0283203 C26.3466797,35.8466797 26.5986328,35.7421875 26.8554688,35.7421875 C27.1123047,35.7421875 27.3642578,35.8466797 27.5458008,36.0283203 C27.7274414,36.2099609 27.8320312,36.4619141 27.8320312,36.71875 C27.8320312,36.9765625 27.7275391,37.2275391 27.5458008,37.4091797 C27.3642578,37.5908203 27.1123047,37.6953125 26.8554688,37.6953125 Z" id="Shape" fill="#000000"></path>
                    <path d="M23.0143555,37.6953125 L6.25,37.6953125 C5.71074219,37.6953125 5.2734375,37.2581055 5.2734375,36.71875 C5.2734375,36.1793945 5.71074219,35.7421875 6.25,35.7421875 L23.0143555,35.7421875 C23.5536133,35.7421875 23.990918,36.1793945 23.990918,36.71875 C23.990918,37.2581055 23.5537109,37.6953125 23.0143555,37.6953125 Z" id="Shape" fill="#000000"></path>
                    <path d="M20.5078125,26.7578125 L6.25,26.7578125 C5.71074219,26.7578125 5.2734375,26.3206055 5.2734375,25.78125 C5.2734375,25.2418945 5.71074219,24.8046875 6.25,24.8046875 L20.5078125,24.8046875 C21.0470703,24.8046875 21.484375,25.2418945 21.484375,25.78125 C21.484375,26.3206055 21.047168,26.7578125 20.5078125,26.7578125 Z" id="Shape" fill="#000000"></path>
                </g>
            </g>
        </g>
    </g>
</svg>