<?xml version="1.0" encoding="UTF-8"?>
<svg width="32px" height="31px" viewBox="0 0 32 31" version="1.1" xmlns="http://www.w3.org/2000/svg" xmlns:xlink="http://www.w3.org/1999/xlink">
    <!-- Generator: Sketch 51.1 (57501) - http://www.bohemiancoding.com/sketch -->
    <title>check copy 6</title>
    <desc>Created with Sketch.</desc>
    <defs>
        <linearGradient x1="50%" y1="0%" x2="50%" y2="100%" id="linearGradient-1">
            <stop stop-color="#53C487" offset="0%"></stop>
            <stop stop-color="#088040" offset="100%"></stop>
        </linearGradient>
    </defs>
    <g id="Page-1" stroke="none" stroke-width="1" fill="none" fill-rule="evenodd">
        <g id="Apple-TV" transform="translate(-725.000000, -5729.000000)" fill="url(#linearGradient-1)" fill-rule="nonzero">
            <g id="check-copy-6" transform="translate(725.000000, 5729.000000)">
                <path d="M29.3066875,12.72525 C28.59275,12.72525 28.0140625,13.304 28.0140625,14.017875 L28.0140625,15.3198125 C28.012125,18.7159375 26.68775,21.9080625 24.2849375,24.3080625 C21.883875,26.7063125 18.69325,28.0268125 15.299875,28.0268125 C15.297375,28.0268125 15.294875,28.0268125 15.292375,28.0268125 C8.281625,28.0228125 2.58125,22.316 2.58525,15.3051875 C2.5871875,11.909125 3.9115625,8.717 6.3144375,6.316875 C8.7155,3.918625 11.9061875,2.598125 15.2995,2.598125 C15.302,2.598125 15.3045,2.598125 15.307,2.598125 C17.099,2.599125 18.837625,2.9695 20.4745,3.6988125 C21.12675,3.9894375 21.8906875,3.69625 22.1813125,3.0441875 C22.4718125,2.392125 22.1788125,1.628 21.5266875,1.337375 C19.5569375,0.4596875 17.464875,0.0140625 15.3084375,0.012875 C15.3051875,0.012875 15.3026875,0.012875 15.2994375,0.012875 C11.216375,0.012875 7.3765,1.602125 4.487375,4.487875 C1.596,7.375875 0.002375,11.2170625 -9.0069672e-17,15.3038125 C-0.0023125,19.3904375 1.5868125,23.2334375 4.4749375,26.1248125 C7.3630625,29.0161875 11.2041875,30.6098125 15.290875,30.6121875 C15.2940625,30.6121875 15.296625,30.6121875 15.299875,30.6121875 C19.3829375,30.6121875 23.2228125,29.023 26.1119375,26.1371875 C29.0033125,23.249125 30.5969375,19.4079375 30.5993125,15.3205625 L30.5993125,14.0179375 C30.5993125,13.304 30.020625,12.72525 29.3066875,12.72525 Z" id="Shape"></path>
                <path d="M31.621375,1.8001875 C31.1165625,1.2954375 30.298125,1.2954375 29.7933125,1.8001875 L15.299625,16.2938125 L12.0115625,13.00575 C11.5068125,12.5009375 10.6883125,12.5009375 10.1835625,13.00575 C9.67875,13.5105625 9.67875,14.329 10.1835625,14.8338125 L14.3856875,19.0359375 C14.6380625,19.288375 14.9689375,19.4145625 15.29975,19.4145625 C15.6305625,19.4145625 15.961375,19.288375 16.2138125,19.0359375 L31.621375,3.62825 C32.1261875,3.1234375 32.1261875,2.305 31.621375,1.8001875 Z" id="Shape"></path>
            </g>
        </g>
    </g>
</svg>