<?xml version="1.0" encoding="UTF-8"?>
<svg width="34px" height="34px" viewBox="0 0 34 34" version="1.1" xmlns="http://www.w3.org/2000/svg" xmlns:xlink="http://www.w3.org/1999/xlink">
    <!-- Generator: Sketch 51.1 (57501) - http://www.bohemiancoding.com/sketch -->
    <title>clock</title>
    <desc>Created with Sketch.</desc>
    <defs></defs>
    <g id="Page-1" stroke="none" stroke-width="1" fill="none" fill-rule="evenodd">
        <g id="Apple-TV" transform="translate(-266.000000, -688.000000)" fill-rule="nonzero">
            <g id="1" transform="translate(-320.000000, -221.000000)">
                <g id="form" transform="translate(550.000000, 621.000000)">
                    <g id="Group-4" transform="translate(36.000000, 122.000000)">
                        <g id="clock" transform="translate(0.000000, 166.000000)">
                            <circle id="Oval" fill="#F9BA48" cx="17" cy="17" r="11.8709677"></circle>
                            <g id="Group">
                                <path d="M17,0.677419355 C7.99958065,0.677419355 0.677419355,7.99958065 0.677419355,17 C0.677419355,26.0004194 7.99958065,33.3225806 17,33.3225806 C26.0004194,33.3225806 33.3225806,26.0004194 33.3225806,17 C33.3225806,7.99958065 26.0004194,0.677419355 17,0.677419355 Z M17,31.8387097 C8.81793548,31.8387097 2.16129032,25.1820645 2.16129032,17 C2.16129032,8.81793548 8.81793548,2.16129032 17,2.16129032 C25.1820645,2.16129032 31.8387097,8.81793548 31.8387097,17 C31.8387097,25.1820645 25.1820645,31.8387097 17,31.8387097 Z" id="Shape" fill="#FFFFFF"></path>
                                <polygon id="Shape" fill="#333333" points="16.4430108 16.4430108 8 16.4430108 8 17.7419355 17.7419355 17.7419355 17.7419355 8 16.4430108 8"></polygon>
                            </g>
                        </g>
                    </g>
                </g>
            </g>
        </g>
    </g>
</svg>