<?xml version="1.0" encoding="UTF-8"?>
<svg width="232px" height="72px" viewBox="0 0 232 72" version="1.1" xmlns="http://www.w3.org/2000/svg" xmlns:xlink="http://www.w3.org/1999/xlink">
    <!-- Generator: Sketch 51.1 (57501) - http://www.bohemiancoding.com/sketch -->
    <title>Group 6</title>
    <desc>Created with Sketch.</desc>
    <defs></defs>
    <g id="Page-1" stroke="none" stroke-width="1" fill="none" fill-rule="evenodd">
        <g id="Apple-TV" transform="translate(-230.000000, -16.000000)">
            <g id="1" transform="translate(-320.000000, -221.000000)">
                <g id="header" transform="translate(315.000000, 219.000000)">
                    <g id="Group-6" transform="translate(223.000000, 12.000000)">
                        <path d="M12.2071068,40.3578644 L43.3198052,71.4705627 L61.7077752,53.0825927 L30.5950768,21.9698943 L12.2071068,40.3578644 Z M21.1482323,12.5294373 L71.1482323,62.5294373 L21.1482323,62.5294373 L21.1482323,12.5294373 Z" id="Rectangle" fill="#F9BA48" fill-rule="nonzero" transform="translate(41.677670, 42.000000) rotate(45.000000) translate(-41.677670, -42.000000) "></path>
                        <path d="M51.816,44.2 L48.808,47.336 L48.808,53 L43.656,53 L43.656,30.6 L48.808,30.6 L48.808,41.064 L58.728,30.6 L64.488,30.6 L55.208,40.584 L65.032,53 L58.984,53 L51.816,44.2 Z M87.72,53 L87.688,39.56 L81.096,50.632 L78.76,50.632 L72.2,39.848 L72.2,53 L67.336,53 L67.336,30.6 L71.624,30.6 L80.008,44.52 L88.264,30.6 L92.52,30.6 L92.584,53 L87.72,53 Z" id="KM" fill="#FFFFFF"></path>
                        <path d="M99.6625,40.5875 C98.9774966,40.2324982 98.4425019,39.7400031 98.0575,39.11 C97.6724981,38.4799968 97.48,37.765004 97.48,36.965 C97.48,36.164996 97.6724981,35.4500032 98.0575,34.82 C98.4425019,34.1899968 98.9774966,33.6975018 99.6625,33.3425 C100.347503,32.9874982 101.119996,32.81 101.98,32.81 C102.830004,32.81 103.572497,32.9874982 104.2075,33.3425 C104.842503,33.6975018 105.304999,34.2049967 105.595,34.865 L103.78,35.84 C103.359998,35.0999963 102.755004,34.73 101.965,34.73 C101.354997,34.73 100.850002,34.929998 100.45,35.33 C100.049998,35.730002 99.85,36.2749965 99.85,36.965 C99.85,37.6550035 100.049998,38.199998 100.45,38.6 C100.850002,39.000002 101.354997,39.2 101.965,39.2 C102.765004,39.2 103.369998,38.8300037 103.78,38.09 L105.595,39.08 C105.304999,39.7200032 104.842503,40.2199982 104.2075,40.58 C103.572497,40.9400018 102.830004,41.12 101.98,41.12 C101.119996,41.12 100.347503,40.9425018 99.6625,40.5875 Z M108.4975,40.5875 C107.822497,40.2324982 107.295002,39.7400031 106.915,39.11 C106.534998,38.4799968 106.345,37.765004 106.345,36.965 C106.345,36.164996 106.534998,35.4500032 106.915,34.82 C107.295002,34.1899968 107.822497,33.6975018 108.4975,33.3425 C109.172503,32.9874982 109.934996,32.81 110.785,32.81 C111.635004,32.81 112.394997,32.9874982 113.065,33.3425 C113.735003,33.6975018 114.259998,34.1899968 114.64,34.82 C115.020002,35.4500032 115.21,36.164996 115.21,36.965 C115.21,37.765004 115.020002,38.4799968 114.64,39.11 C114.259998,39.7400031 113.735003,40.2324982 113.065,40.5875 C112.394997,40.9425018 111.635004,41.12 110.785,41.12 C109.934996,41.12 109.172503,40.9425018 108.4975,40.5875 Z M112.2625,38.5925 C112.647502,38.187498 112.84,37.6450034 112.84,36.965 C112.84,36.2849966 112.647502,35.742502 112.2625,35.3375 C111.877498,34.932498 111.385003,34.73 110.785,34.73 C110.184997,34.73 109.690002,34.932498 109.3,35.3375 C108.909998,35.742502 108.715,36.2849966 108.715,36.965 C108.715,37.6450034 108.909998,38.187498 109.3,38.5925 C109.690002,38.997502 110.184997,39.2 110.785,39.2 C111.385003,39.2 111.877498,38.997502 112.2625,38.5925 Z M124.0975,33.71 C124.712503,34.310003 125.02,35.1999941 125.02,36.38 L125.02,41 L122.68,41 L122.68,36.74 C122.68,36.0999968 122.540001,35.6225016 122.26,35.3075 C121.979999,34.9924984 121.575003,34.835 121.045,34.835 C120.454997,34.835 119.985002,35.0174982 119.635,35.3825 C119.284998,35.7475018 119.11,36.2899964 119.11,37.01 L119.11,41 L116.77,41 L116.77,32.93 L119.005,32.93 L119.005,33.875 C119.315002,33.5349983 119.699998,33.2725009 120.16,33.0875 C120.620002,32.9024991 121.124997,32.81 121.675,32.81 C122.675005,32.81 123.482497,33.109997 124.0975,33.71 Z M132.34,40.61 C132.109999,40.7800009 131.827502,40.9074996 131.4925,40.9925 C131.157498,41.0775004 130.805002,41.12 130.435,41.12 C129.474995,41.12 128.732503,40.8750024 128.2075,40.385 C127.682497,39.8949975 127.42,39.1750047 127.42,38.225 L127.42,34.91 L126.175,34.91 L126.175,33.11 L127.42,33.11 L127.42,31.145 L129.76,31.145 L129.76,33.11 L131.77,33.11 L131.77,34.91 L129.76,34.91 L129.76,38.195 C129.76,38.5350017 129.847499,38.7974991 130.0225,38.9825 C130.197501,39.1675009 130.444998,39.26 130.765,39.26 C131.135002,39.26 131.449999,39.160001 131.71,38.96 L132.34,40.61 Z M141.52,37.625 L135.415,37.625 C135.525001,38.1250025 135.784998,38.5199985 136.195,38.81 C136.605002,39.1000015 137.114997,39.245 137.725,39.245 C138.145002,39.245 138.517498,39.1825006 138.8425,39.0575 C139.167502,38.9324994 139.469999,38.7350014 139.75,38.465 L140.995,39.815 C140.234996,40.6850043 139.125007,41.12 137.665,41.12 C136.754995,41.12 135.950004,40.9425018 135.25,40.5875 C134.549996,40.2324982 134.010002,39.7400031 133.63,39.11 C133.249998,38.4799968 133.06,37.765004 133.06,36.965 C133.06,36.1749961 133.247498,35.4625032 133.6225,34.8275 C133.997502,34.1924968 134.512497,33.6975018 135.1675,33.3425 C135.822503,32.9874982 136.554996,32.81 137.365,32.81 C138.155004,32.81 138.869997,32.9799983 139.51,33.32 C140.150003,33.6600017 140.652498,34.1474968 141.0175,34.7825 C141.382502,35.4175032 141.565,36.1549958 141.565,36.995 C141.565,37.0250001 141.55,37.2349981 141.52,37.625 Z M136.045,35.03 C135.684998,35.3300015 135.465,35.7399974 135.385,36.26 L139.36,36.26 C139.28,35.7499975 139.060002,35.3425015 138.7,35.0375 C138.339998,34.7324985 137.900003,34.58 137.38,34.58 C136.849997,34.58 136.405002,34.7299985 136.045,35.03 Z M148.255,41 L146.485,38.525 L144.655,41 L142.105,41 L145.21,36.935 L142.21,32.93 L144.835,32.93 L146.545,35.285 L148.3,32.93 L150.79,32.93 L147.79,36.875 L150.91,41 L148.255,41 Z M157.255,40.61 C157.024999,40.7800009 156.742502,40.9074996 156.4075,40.9925 C156.072498,41.0775004 155.720002,41.12 155.35,41.12 C154.389995,41.12 153.647503,40.8750024 153.1225,40.385 C152.597497,39.8949975 152.335,39.1750047 152.335,38.225 L152.335,34.91 L151.09,34.91 L151.09,33.11 L152.335,33.11 L152.335,31.145 L154.675,31.145 L154.675,33.11 L156.685,33.11 L156.685,34.91 L154.675,34.91 L154.675,38.195 C154.675,38.5350017 154.762499,38.7974991 154.9375,38.9825 C155.112501,39.1675009 155.359998,39.26 155.68,39.26 C156.050002,39.26 156.364999,39.160001 156.625,38.96 L157.255,40.61 Z" id="context" fill="#FFFFFF"></path>
                        <path d="M100.092,47.036 C100.430668,47.2200009 100.697332,47.474665 100.892,47.8 C101.086668,48.125335 101.184,48.4906646 101.184,48.896 C101.184,49.3013354 101.086668,49.6679984 100.892,49.996 C100.697332,50.3240016 100.430668,50.5813324 100.092,50.768 C99.7533316,50.9546676 99.3733354,51.048 98.952,51.048 C98.5999982,51.048 98.2773348,50.9933339 97.984,50.884 C97.6906652,50.7746661 97.4426677,50.616001 97.24,50.408 L97.576,50.072 C97.9333351,50.4080017 98.3839973,50.576 98.928,50.576 C99.2320015,50.576 99.5079988,50.5120006 99.756,50.384 C100.004001,50.2559994 100.206666,50.0773345 100.364,49.848 C100.521334,49.6186655 100.613333,49.3626681 100.64,49.08 L98.392,49.08 L98.392,48.648 L100.632,48.648 C100.573333,48.2266646 100.386668,47.8840013 100.072,47.62 C99.7573318,47.3559987 99.3760022,47.224 98.928,47.224 C98.3839973,47.224 97.9333351,47.3919983 97.576,47.728 L97.24,47.4 C97.4426677,47.191999 97.6906652,47.0333339 97.984,46.924 C98.2773348,46.8146661 98.5999982,46.76 98.952,46.76 C99.3733354,46.76 99.7533316,46.8519991 100.092,47.036 Z M106.808,50.432 C106.375998,50.8053352 105.765337,51.0079998 104.976,51.04 L104.976,52.552 L104.424,52.552 L104.424,51.048 C103.639996,51.0159998 103.033335,50.8120019 102.604,50.436 C102.174665,50.0599981 101.96,49.5440033 101.96,48.888 C101.96,48.2373301 102.174665,47.7280018 102.604,47.36 C103.033335,46.9919982 103.639996,46.7920002 104.424,46.76 L104.424,45.064 L104.976,45.064 L104.976,46.76 C105.765337,46.7973335 106.375998,46.9999982 106.808,47.368 C107.240002,47.7360018 107.456,48.2426634 107.456,48.888 C107.456,49.5440033 107.240002,50.0586648 106.808,50.432 Z M103.004,50.064 C103.326668,50.3466681 103.799997,50.5066665 104.424,50.544 L104.424,47.264 C103.80533,47.2960002 103.333335,47.4519986 103.008,47.732 C102.682665,48.0120014 102.52,48.3973309 102.52,48.888 C102.52,49.3893358 102.681332,49.7813319 103.004,50.064 Z M106.404,50.072 C106.732002,49.7893319 106.896,49.3946692 106.896,48.888 C106.896,48.3919975 106.732002,48.0053347 106.404,47.728 C106.075998,47.4506653 105.600003,47.2960002 104.976,47.264 L104.976,50.544 C105.600003,50.5119998 106.075998,50.3546681 106.404,50.072 Z M113.088,50.432 C112.655998,50.8053352 112.045337,51.0079998 111.256,51.04 L111.256,52.552 L110.704,52.552 L110.704,51.048 C109.919996,51.0159998 109.313335,50.8120019 108.884,50.436 C108.454665,50.0599981 108.24,49.5440033 108.24,48.888 C108.24,48.2373301 108.454665,47.7280018 108.884,47.36 C109.313335,46.9919982 109.919996,46.7920002 110.704,46.76 L110.704,45.064 L111.256,45.064 L111.256,46.76 C112.045337,46.7973335 112.655998,46.9999982 113.088,47.368 C113.520002,47.7360018 113.736,48.2426634 113.736,48.888 C113.736,49.5440033 113.520002,50.0586648 113.088,50.432 Z M109.284,50.064 C109.606668,50.3466681 110.079997,50.5066665 110.704,50.544 L110.704,47.264 C110.08533,47.2960002 109.613335,47.4519986 109.288,47.732 C108.962665,48.0120014 108.8,48.3973309 108.8,48.888 C108.8,49.3893358 108.961332,49.7813319 109.284,50.064 Z M112.684,50.072 C113.012002,49.7893319 113.176,49.3946692 113.176,48.888 C113.176,48.3919975 113.012002,48.0053347 112.684,47.728 C112.355998,47.4506653 111.880003,47.2960002 111.256,47.264 L111.256,50.544 C111.880003,50.5119998 112.355998,50.3546681 112.684,50.072 Z M118.616,49.072 L115.096,49.072 C115.128,49.5093355 115.295998,49.8626653 115.6,50.132 C115.904002,50.4013347 116.287998,50.536 116.752,50.536 C117.013335,50.536 117.253332,50.4893338 117.472,50.396 C117.690668,50.3026662 117.879999,50.1653342 118.04,49.984 L118.36,50.352 C118.173332,50.5760011 117.940001,50.7466661 117.66,50.864 C117.379999,50.9813339 117.072002,51.04 116.736,51.04 C116.303998,51.04 115.921335,50.9480009 115.588,50.764 C115.254665,50.5799991 114.994668,50.325335 114.808,50 C114.621332,49.674665 114.528,49.3066687 114.528,48.896 C114.528,48.4853313 114.617332,48.117335 114.796,47.792 C114.974668,47.466665 115.219998,47.2133342 115.532,47.032 C115.844002,46.8506658 116.194665,46.76 116.584,46.76 C116.973335,46.76 117.322665,46.8506658 117.632,47.032 C117.941335,47.2133342 118.183999,47.4653317 118.36,47.788 C118.536001,48.1106683 118.624,48.4799979 118.624,48.896 L118.616,49.072 Z M115.564,47.636 C115.289332,47.894668 115.133334,48.2319979 115.096,48.648 L118.08,48.648 C118.042666,48.2319979 117.886668,47.894668 117.612,47.636 C117.337332,47.377332 116.994669,47.248 116.584,47.248 C116.178665,47.248 115.838668,47.377332 115.564,47.636 Z M121.408,49.128 L120.448,49.128 L120.448,51 L119.88,51 L119.88,46.792 L120.448,46.792 L120.448,48.64 L121.416,48.64 L122.896,46.792 L123.512,46.792 L121.856,48.832 L123.632,51 L122.96,51 L121.408,49.128 Z M127.488,47.296 L125.896,47.296 L125.896,51 L125.328,51 L125.328,47.296 L123.736,47.296 L123.736,46.792 L127.488,46.792 L127.488,47.296 Z M128.312,46.792 L128.88,46.792 L128.88,50.136 L131.688,46.792 L132.192,46.792 L132.192,51 L131.624,51 L131.624,47.656 L128.824,51 L128.312,51 L128.312,46.792 Z M137.352,49.856 C137.352,50.2240018 137.216001,50.5066657 136.944,50.704 C136.671999,50.9013343 136.266669,51 135.728,51 L133.816,51 L133.816,46.792 L135.672,46.792 C136.152002,46.792 136.527999,46.8853324 136.8,47.072 C137.072001,47.2586676 137.208,47.5253316 137.208,47.872 C137.208,48.1013345 137.145334,48.2973325 137.02,48.46 C136.894666,48.6226675 136.720001,48.7439996 136.496,48.824 C137.06667,48.957334 137.352,49.3013306 137.352,49.856 Z M134.368,48.664 L135.632,48.664 C135.957335,48.664 136.206666,48.6026673 136.38,48.48 C136.553334,48.3573327 136.64,48.1786678 136.64,47.944 C136.64,47.7093322 136.553334,47.5333339 136.38,47.416 C136.206666,47.2986661 135.957335,47.24 135.632,47.24 L134.368,47.24 L134.368,48.664 Z M136.52,50.376 C136.701334,50.2586661 136.792,50.0746679 136.792,49.824 C136.792,49.5733321 136.709334,49.3880006 136.544,49.268 C136.378666,49.1479994 136.117335,49.088 135.76,49.088 L134.368,49.088 L134.368,50.552 L135.704,50.552 C136.066668,50.552 136.338666,50.4933339 136.52,50.376 Z M138.68,46.792 L139.248,46.792 L139.248,48.656 L141.896,48.656 L141.896,46.792 L142.464,46.792 L142.464,51 L141.896,51 L141.896,49.144 L139.248,49.144 L139.248,51 L138.68,51 L138.68,46.792 Z M146.792,47.172 C147.085335,47.446668 147.232,47.8533306 147.232,48.392 L147.232,51 L146.688,51 L146.688,50.344 C146.559999,50.5626678 146.372001,50.7333327 146.124,50.856 C145.875999,50.9786673 145.581335,51.04 145.24,51.04 C144.770664,51.04 144.397335,50.9280011 144.12,50.704 C143.842665,50.4799989 143.704,50.1840018 143.704,49.816 C143.704,49.4586649 143.833332,49.1706678 144.092,48.952 C144.350668,48.7333322 144.762664,48.624 145.328,48.624 L146.664,48.624 L146.664,48.368 C146.664,48.0053315 146.562668,47.7293343 146.36,47.54 C146.157332,47.3506657 145.861335,47.256 145.472,47.256 C145.205332,47.256 144.949335,47.2999996 144.704,47.388 C144.458665,47.4760004 144.248001,47.5973326 144.072,47.752 L143.816,47.328 C144.029334,47.1466658 144.285332,47.0066672 144.584,46.908 C144.882668,46.8093328 145.197332,46.76 145.528,46.76 C146.077336,46.76 146.498665,46.897332 146.792,47.172 Z M146.152,50.372 C146.381334,50.2253326 146.551999,50.0133347 146.664,49.736 L146.664,49.048 L145.344,49.048 C144.623996,49.048 144.264,49.2986642 144.264,49.8 C144.264,50.0453346 144.357332,50.238666 144.544,50.38 C144.730668,50.521334 144.991998,50.592 145.328,50.592 C145.648002,50.592 145.922666,50.5186674 146.152,50.372 Z M151.976,46.792 L151.976,51 L151.456,51 L151.456,49.608 L149.976,49.608 L149,51 L148.384,51 L149.432,49.528 C149.106665,49.4373329 148.856001,49.2826678 148.68,49.064 C148.503999,48.8453322 148.416,48.5680017 148.416,48.232 C148.416,47.7626643 148.575998,47.4053346 148.896,47.16 C149.216002,46.9146654 149.653331,46.792 150.208,46.792 L151.976,46.792 Z M150.184,49.184 L151.456,49.184 L151.456,47.296 L150.224,47.296 C149.402663,47.296 148.992,47.6133302 148.992,48.248 C148.992,48.8720031 149.389329,49.184 150.184,49.184 Z M157.216,49.128 L156.256,49.128 L156.256,51 L155.688,51 L155.688,46.792 L156.256,46.792 L156.256,48.64 L157.224,48.64 L158.704,46.792 L159.32,46.792 L157.664,48.832 L159.44,51 L158.768,51 L157.216,49.128 Z M160.976,50.764 C160.650665,50.5799991 160.394668,50.325335 160.208,50 C160.021332,49.674665 159.928,49.3066687 159.928,48.896 C159.928,48.4853313 160.021332,48.117335 160.208,47.792 C160.394668,47.466665 160.650665,47.2133342 160.976,47.032 C161.301335,46.8506658 161.666665,46.76 162.072,46.76 C162.477335,46.76 162.842665,46.8506658 163.168,47.032 C163.493335,47.2133342 163.747999,47.466665 163.932,47.792 C164.116001,48.117335 164.208,48.4853313 164.208,48.896 C164.208,49.3066687 164.116001,49.674665 163.932,50 C163.747999,50.325335 163.493335,50.5799991 163.168,50.764 C162.842665,50.9480009 162.477335,51.04 162.072,51.04 C161.666665,51.04 161.301335,50.9480009 160.976,50.764 Z M162.876,50.332 C163.113335,50.1959993 163.298666,50.0026679 163.432,49.752 C163.565334,49.5013321 163.632,49.2160016 163.632,48.896 C163.632,48.5759984 163.565334,48.2906679 163.432,48.04 C163.298666,47.7893321 163.113335,47.5960007 162.876,47.46 C162.638665,47.3239993 162.370668,47.256 162.072,47.256 C161.773332,47.256 161.505335,47.3239993 161.268,47.46 C161.030665,47.5960007 160.844001,47.7893321 160.708,48.04 C160.571999,48.2906679 160.504,48.5759984 160.504,48.896 C160.504,49.2160016 160.571999,49.5013321 160.708,49.752 C160.844001,50.0026679 161.030665,50.1959993 161.268,50.332 C161.505335,50.4680007 161.773332,50.536 162.072,50.536 C162.370668,50.536 162.638665,50.4680007 162.876,50.332 Z M165.424,46.792 L165.992,46.792 L165.992,48.656 L168.64,48.656 L168.64,46.792 L169.208,46.792 L169.208,51 L168.64,51 L168.64,49.144 L165.992,49.144 L165.992,51 L165.424,51 L165.424,46.792 Z M173.784,47.296 L172.192,47.296 L172.192,51 L171.624,51 L171.624,47.296 L170.032,47.296 L170.032,46.792 L173.784,46.792 L173.784,47.296 Z M178.288,49.072 L174.768,49.072 C174.8,49.5093355 174.967998,49.8626653 175.272,50.132 C175.576002,50.4013347 175.959998,50.536 176.424,50.536 C176.685335,50.536 176.925332,50.4893338 177.144,50.396 C177.362668,50.3026662 177.551999,50.1653342 177.712,49.984 L178.032,50.352 C177.845332,50.5760011 177.612001,50.7466661 177.332,50.864 C177.051999,50.9813339 176.744002,51.04 176.408,51.04 C175.975998,51.04 175.593335,50.9480009 175.26,50.764 C174.926665,50.5799991 174.666668,50.325335 174.48,50 C174.293332,49.674665 174.2,49.3066687 174.2,48.896 C174.2,48.4853313 174.289332,48.117335 174.468,47.792 C174.646668,47.466665 174.891998,47.2133342 175.204,47.032 C175.516002,46.8506658 175.866665,46.76 176.256,46.76 C176.645335,46.76 176.994665,46.8506658 177.304,47.032 C177.613335,47.2133342 177.855999,47.4653317 178.032,47.788 C178.208001,48.1106683 178.296,48.4799979 178.296,48.896 L178.288,49.072 Z M175.236,47.636 C174.961332,47.894668 174.805334,48.2319979 174.768,48.648 L177.752,48.648 C177.714666,48.2319979 177.558668,47.894668 177.284,47.636 C177.009332,47.377332 176.666669,47.248 176.256,47.248 C175.850665,47.248 175.510668,47.377332 175.236,47.636 Z M181.08,49.128 L180.12,49.128 L180.12,51 L179.552,51 L179.552,46.792 L180.12,46.792 L180.12,48.64 L181.088,48.64 L182.568,46.792 L183.184,46.792 L181.528,48.832 L183.304,51 L182.632,51 L181.08,49.128 Z M184.844,50.768 C184.515998,50.5866658 184.258668,50.3320016 184.072,50.004 C183.885332,49.6759984 183.792,49.3066687 183.792,48.896 C183.792,48.4853313 183.885332,48.117335 184.072,47.792 C184.258668,47.466665 184.515998,47.2133342 184.844,47.032 C185.172002,46.8506658 185.543998,46.76 185.96,46.76 C186.322668,46.76 186.646665,46.830666 186.932,46.972 C187.217335,47.113334 187.442666,47.3199986 187.608,47.592 L187.184,47.88 C187.045333,47.671999 186.869334,47.5160005 186.656,47.412 C186.442666,47.3079995 186.210668,47.256 185.96,47.256 C185.655998,47.256 185.382668,47.3239993 185.14,47.46 C184.897332,47.5960007 184.708001,47.7893321 184.572,48.04 C184.435999,48.2906679 184.368,48.5759984 184.368,48.896 C184.368,49.221335 184.435999,49.5079988 184.572,49.756 C184.708001,50.0040012 184.897332,50.1959993 185.14,50.332 C185.382668,50.4680007 185.655998,50.536 185.96,50.536 C186.210668,50.536 186.442666,50.4853338 186.656,50.384 C186.869334,50.2826662 187.045333,50.128001 187.184,49.92 L187.608,50.208 C187.442666,50.4800014 187.216001,50.686666 186.928,50.828 C186.639999,50.969334 186.317335,51.04 185.96,51.04 C185.543998,51.04 185.172002,50.9493342 184.844,50.768 Z M191.664,47.296 L190.072,47.296 L190.072,51 L189.504,51 L189.504,47.296 L187.912,47.296 L187.912,46.792 L191.664,46.792 L191.664,47.296 Z M192.488,46.792 L193.056,46.792 L193.056,48.656 L195.704,48.656 L195.704,46.792 L196.272,46.792 L196.272,51 L195.704,51 L195.704,49.144 L193.056,49.144 L193.056,51 L192.488,51 L192.488,46.792 Z M200.6,47.172 C200.893335,47.446668 201.04,47.8533306 201.04,48.392 L201.04,51 L200.496,51 L200.496,50.344 C200.367999,50.5626678 200.180001,50.7333327 199.932,50.856 C199.683999,50.9786673 199.389335,51.04 199.048,51.04 C198.578664,51.04 198.205335,50.9280011 197.928,50.704 C197.650665,50.4799989 197.512,50.1840018 197.512,49.816 C197.512,49.4586649 197.641332,49.1706678 197.9,48.952 C198.158668,48.7333322 198.570664,48.624 199.136,48.624 L200.472,48.624 L200.472,48.368 C200.472,48.0053315 200.370668,47.7293343 200.168,47.54 C199.965332,47.3506657 199.669335,47.256 199.28,47.256 C199.013332,47.256 198.757335,47.2999996 198.512,47.388 C198.266665,47.4760004 198.056001,47.5973326 197.88,47.752 L197.624,47.328 C197.837334,47.1466658 198.093332,47.0066672 198.392,46.908 C198.690668,46.8093328 199.005332,46.76 199.336,46.76 C199.885336,46.76 200.306665,46.897332 200.6,47.172 Z M199.96,50.372 C200.189334,50.2253326 200.359999,50.0133347 200.472,49.736 L200.472,49.048 L199.152,49.048 C198.431996,49.048 198.072,49.2986642 198.072,49.8 C198.072,50.0453346 198.165332,50.238666 198.352,50.38 C198.538668,50.521334 198.799998,50.592 199.136,50.592 C199.456002,50.592 199.730666,50.5186674 199.96,50.372 Z M205.784,46.792 L205.784,51 L205.264,51 L205.264,49.608 L203.784,49.608 L202.808,51 L202.192,51 L203.24,49.528 C202.914665,49.4373329 202.664001,49.2826678 202.488,49.064 C202.311999,48.8453322 202.224,48.5680017 202.224,48.232 C202.224,47.7626643 202.383998,47.4053346 202.704,47.16 C203.024002,46.9146654 203.461331,46.792 204.016,46.792 L205.784,46.792 Z M203.992,49.184 L205.264,49.184 L205.264,47.296 L204.032,47.296 C203.210663,47.296 202.8,47.6133302 202.8,48.248 C202.8,48.8720031 203.197329,49.184 203.992,49.184 Z M212.736,47.028 C213.056002,47.2066676 213.306666,47.458665 213.488,47.784 C213.669334,48.109335 213.76,48.4799979 213.76,48.896 C213.76,49.3173354 213.669334,49.690665 213.488,50.016 C213.306666,50.341335 213.057335,50.5933324 212.74,50.772 C212.422665,50.9506676 212.064002,51.04 211.664,51.04 C211.322665,51.04 211.014668,50.969334 210.74,50.828 C210.465332,50.686666 210.240001,50.4800014 210.064,50.208 L210.064,52.552 L209.496,52.552 L209.496,46.792 L210.04,46.792 L210.04,47.624 C210.210668,47.3466653 210.435999,47.1333341 210.716,46.984 C210.996001,46.8346659 211.311998,46.76 211.664,46.76 C212.058669,46.76 212.415998,46.8493324 212.736,47.028 Z M212.424,50.332 C212.664001,50.1959993 212.851999,50.0026679 212.988,49.752 C213.124001,49.5013321 213.192,49.2160016 213.192,48.896 C213.192,48.5759984 213.124001,48.2920012 212.988,48.044 C212.851999,47.7959988 212.664001,47.6026674 212.424,47.464 C212.183999,47.3253326 211.917335,47.256 211.624,47.256 C211.325332,47.256 211.057335,47.3253326 210.82,47.464 C210.582665,47.6026674 210.396001,47.7959988 210.26,48.044 C210.123999,48.2920012 210.056,48.5759984 210.056,48.896 C210.056,49.2160016 210.123999,49.5013321 210.26,49.752 C210.396001,50.0026679 210.582665,50.1959993 210.82,50.332 C211.057335,50.4680007 211.325332,50.536 211.624,50.536 C211.917335,50.536 212.183999,50.4680007 212.424,50.332 Z M218.664,49.072 L215.144,49.072 C215.176,49.5093355 215.343998,49.8626653 215.648,50.132 C215.952002,50.4013347 216.335998,50.536 216.8,50.536 C217.061335,50.536 217.301332,50.4893338 217.52,50.396 C217.738668,50.3026662 217.927999,50.1653342 218.088,49.984 L218.408,50.352 C218.221332,50.5760011 217.988001,50.7466661 217.708,50.864 C217.427999,50.9813339 217.120002,51.04 216.784,51.04 C216.351998,51.04 215.969335,50.9480009 215.636,50.764 C215.302665,50.5799991 215.042668,50.325335 214.856,50 C214.669332,49.674665 214.576,49.3066687 214.576,48.896 C214.576,48.4853313 214.665332,48.117335 214.844,47.792 C215.022668,47.466665 215.267998,47.2133342 215.58,47.032 C215.892002,46.8506658 216.242665,46.76 216.632,46.76 C217.021335,46.76 217.370665,46.8506658 217.68,47.032 C217.989335,47.2133342 218.231999,47.4653317 218.408,47.788 C218.584001,48.1106683 218.672,48.4799979 218.672,48.896 L218.664,49.072 Z M215.612,47.636 C215.337332,47.894668 215.181334,48.2319979 215.144,48.648 L218.128,48.648 C218.090666,48.2319979 217.934668,47.894668 217.66,47.636 C217.385332,47.377332 217.042669,47.248 216.632,47.248 C216.226665,47.248 215.886668,47.377332 215.612,47.636 Z M221.456,49.128 L220.496,49.128 L220.496,51 L219.928,51 L219.928,46.792 L220.496,46.792 L220.496,48.64 L221.464,48.64 L222.944,46.792 L223.56,46.792 L221.904,48.832 L223.68,51 L223.008,51 L221.456,49.128 Z M228.016,46.792 L228.016,51 L227.448,51 L227.448,47.296 L225.432,47.296 L225.376,48.336 C225.333333,49.210671 225.232001,49.8826643 225.072,50.352 C224.911999,50.8213357 224.626669,51.056 224.216,51.056 C224.103999,51.056 223.968001,51.0346669 223.808,50.992 L223.848,50.504 C223.944,50.5253334 224.010666,50.536 224.048,50.536 C224.266668,50.536 224.431999,50.4346677 224.544,50.232 C224.656001,50.0293323 224.730666,49.7786682 224.768,49.48 C224.805334,49.1813318 224.837333,48.7866691 224.864,48.296 L224.936,46.792 L228.016,46.792 Z M232.344,47.172 C232.637335,47.446668 232.784,47.8533306 232.784,48.392 L232.784,51 L232.24,51 L232.24,50.344 C232.111999,50.5626678 231.924001,50.7333327 231.676,50.856 C231.427999,50.9786673 231.133335,51.04 230.792,51.04 C230.322664,51.04 229.949335,50.9280011 229.672,50.704 C229.394665,50.4799989 229.256,50.1840018 229.256,49.816 C229.256,49.4586649 229.385332,49.1706678 229.644,48.952 C229.902668,48.7333322 230.314664,48.624 230.88,48.624 L232.216,48.624 L232.216,48.368 C232.216,48.0053315 232.114668,47.7293343 231.912,47.54 C231.709332,47.3506657 231.413335,47.256 231.024,47.256 C230.757332,47.256 230.501335,47.2999996 230.256,47.388 C230.010665,47.4760004 229.800001,47.5973326 229.624,47.752 L229.368,47.328 C229.581334,47.1466658 229.837332,47.0066672 230.136,46.908 C230.434668,46.8093328 230.749332,46.76 231.08,46.76 C231.629336,46.76 232.050665,46.897332 232.344,47.172 Z M231.704,50.372 C231.933334,50.2253326 232.103999,50.0133347 232.216,49.736 L232.216,49.048 L230.896,49.048 C230.175996,49.048 229.816,49.2986642 229.816,49.8 C229.816,50.0453346 229.909332,50.238666 230.096,50.38 C230.282668,50.521334 230.543998,50.592 230.88,50.592 C231.200002,50.592 231.474666,50.5186674 231.704,50.372 Z M239,46.792 L239,51 L238.48,51 L238.48,47.672 L236.776,50.488 L236.52,50.488 L234.816,47.664 L234.816,51 L234.296,51 L234.296,46.792 L234.872,46.792 L236.656,49.824 L238.472,46.792 L239,46.792 Z M243.328,47.172 C243.621335,47.446668 243.768,47.8533306 243.768,48.392 L243.768,51 L243.224,51 L243.224,50.344 C243.095999,50.5626678 242.908001,50.7333327 242.66,50.856 C242.411999,50.9786673 242.117335,51.04 241.776,51.04 C241.306664,51.04 240.933335,50.9280011 240.656,50.704 C240.378665,50.4799989 240.24,50.1840018 240.24,49.816 C240.24,49.4586649 240.369332,49.1706678 240.628,48.952 C240.886668,48.7333322 241.298664,48.624 241.864,48.624 L243.2,48.624 L243.2,48.368 C243.2,48.0053315 243.098668,47.7293343 242.896,47.54 C242.693332,47.3506657 242.397335,47.256 242.008,47.256 C241.741332,47.256 241.485335,47.2999996 241.24,47.388 C240.994665,47.4760004 240.784001,47.5973326 240.608,47.752 L240.352,47.328 C240.565334,47.1466658 240.821332,47.0066672 241.12,46.908 C241.418668,46.8093328 241.733332,46.76 242.064,46.76 C242.613336,46.76 243.034665,46.897332 243.328,47.172 Z M242.688,50.372 C242.917334,50.2253326 243.087999,50.0133347 243.2,49.736 L243.2,49.048 L241.88,49.048 C241.159996,49.048 240.8,49.2986642 240.8,49.8 C240.8,50.0453346 240.893332,50.238666 241.08,50.38 C241.266668,50.521334 241.527998,50.592 241.864,50.592 C242.184002,50.592 242.458666,50.5186674 242.688,50.372 Z" id="эффективная-контекст" fill="#FFFFFF"></path>
                    </g>
                </g>
            </g>
        </g>
    </g>
</svg>