<?xml version="1.0" encoding="UTF-8"?>
<svg width="50px" height="50px" viewBox="0 0 50 50" version="1.1" xmlns="http://www.w3.org/2000/svg" xmlns:xlink="http://www.w3.org/1999/xlink">
    <!-- Generator: Sketch 51.1 (57501) - http://www.bohemiancoding.com/sketch -->
    <title>Group 21</title>
    <desc>Created with Sketch.</desc>
    <defs></defs>
    <g id="Page-1" stroke="none" stroke-width="1" fill="none" fill-rule="evenodd">
        <g id="Apple-TV" transform="translate(-655.000000, -8461.000000)" fill-rule="nonzero">
            <g id="Group-21" transform="translate(655.000000, 8461.000000)">
                <rect id="Rectangle-16-Copy" fill="#F9BA48" x="0" y="0" width="50" height="50" rx="8"></rect>
                <g id="email" transform="translate(8.000000, 8.000000)" fill="#000000">
                    <path d="M33.9915,12.9973633 C33.9879805,12.9583164 33.9802109,12.9197344 33.9682578,12.8823477 C33.9604883,12.8489453 33.9496641,12.8163398 33.9359844,12.7848633 C33.9201133,12.7541172 33.9011211,12.7250312 33.8793398,12.6981367 C33.8574922,12.6661953 33.8321914,12.6367773 33.8039688,12.6102812 C33.7948711,12.6023789 33.7909531,12.5915547 33.7813242,12.5836523 L28.3316953,8.35125 L28.3316953,3.96471875 C28.3316953,3.02586719 27.5705469,2.26471875 26.6316953,2.26471875 L20.4907109,2.26471875 L18.0318867,0.355605469 C17.4244688,-0.118136719 16.5726758,-0.118136719 15.9652578,0.355605469 L13.5059023,2.26471875 L7.36491797,2.26471875 C6.42606641,2.26471875 5.66491797,3.02580078 5.66491797,3.96471875 L5.66491797,8.35131641 L0.217015625,12.5837188 C0.207386719,12.5916875 0.203402344,12.6024453 0.194371094,12.6103477 C0.166148438,12.6367773 0.140847656,12.6662617 0.119,12.6982031 C0.09721875,12.7250977 0.0782265625,12.7541172 0.0623554688,12.7849297 C0.048609375,12.8163398 0.0378515625,12.8490117 0.0300820313,12.8824141 C0.0182617188,12.9192695 0.0104921875,12.9572539 0.00683984375,12.9957695 C0.00683984375,13.0076563 6.640625e-05,13.0178828 6.640625e-05,13.0297695 L6.640625e-05,32.2980078 C0.00086328125,32.6584609 0.117472656,33.0090859 0.332695313,33.2981523 C0.336082031,33.3032656 0.336679688,33.3095078 0.340597656,33.3140234 C0.344582031,33.3185391 0.353082031,33.3236523 0.358726563,33.3298945 C0.677078125,33.7487852 1.17220313,33.99575 1.69833984,33.9980078 L32.2983398,33.9980078 C32.8265352,33.9964141 33.3237188,33.7482539 33.6424688,33.3271055 C33.6469844,33.3214609 33.6538242,33.3197344 33.6577422,33.3140898 C33.6617266,33.3084453 33.6622578,33.303332 33.6657109,33.2982187 C33.8809336,33.0090859 33.997543,32.6584609 33.9983398,32.2980742 L33.9983398,13.0313633 C33.9982734,13.0194766 33.9920977,13.00925 33.9915,12.9973633 Z M16.6582734,1.24976563 C16.8561641,1.09251563 17.1363984,1.09251563 17.3342891,1.24976563 L18.6415625,2.26465234 L15.354918,2.26465234 L16.6582734,1.24976563 Z M1.84111328,32.8647187 L16.6583398,21.3551211 C16.8563633,21.1981367 17.1363984,21.1981367 17.3343555,21.3551211 L32.1555,32.8647187 L1.84111328,32.8647187 Z M32.8649844,31.98125 L18.0318867,20.4608945 C17.4243359,19.9875508 16.5728086,19.9875508 15.9652578,20.4608945 L1.13162891,31.98125 L1.13162891,13.8943789 L10.4176133,21.1052344 C10.665043,21.297082 11.0211133,21.2520586 11.2129609,21.0046289 C11.4048086,20.7571992 11.3597852,20.4011289 11.1123555,20.2092813 L1.67848438,12.8840078 L5.66498438,9.78602344 L5.66498438,14.1646523 C5.66498438,14.477625 5.91872266,14.7312969 6.23162891,14.7312969 C6.54460156,14.7312969 6.79827344,14.4775586 6.79827344,14.1646523 L6.79827344,3.96465234 C6.79827344,3.65167969 7.05194531,3.39800781 7.36491797,3.39800781 L26.6315625,3.39800781 C26.9445352,3.39800781 27.198207,3.65167969 27.198207,3.96465234 L27.198207,14.1646523 C27.198207,14.477625 27.4518789,14.7312969 27.7648516,14.7312969 C28.0778242,14.7312969 28.3314961,14.4775586 28.3314961,14.1646523 L28.3314961,9.78602344 L32.3179961,12.8840078 L22.8677227,20.2223633 C22.7051602,20.3455469 22.6212891,20.546625 22.64825,20.748832 C22.6752109,20.9510391 22.8087539,21.1231641 22.9979453,21.1994648 C23.1871367,21.2757656 23.4027578,21.2445547 23.5624648,21.1176523 L32.8648516,13.8943789 L32.8649844,31.98125 Z" id="Shape"></path>
                    <path d="M23.7982734,13.5980078 L23.7982734,11.3313633 C23.7982734,7.57582422 20.7538125,4.53136328 16.9982734,4.53136328 C13.2427344,4.53136328 10.1982734,7.57582422 10.1982734,11.3313633 C10.1982734,15.0869023 13.2427344,18.1313633 16.9982734,18.1313633 C17.3112461,18.1313633 17.564918,17.8776914 17.564918,17.5647188 C17.564918,17.2517461 17.3112461,16.9980742 16.9982734,16.9980742 C13.8686797,16.9980742 11.3316289,14.4610234 11.3316289,11.3314297 C11.3316289,8.20183594 13.8686797,5.66478516 16.9982734,5.66478516 C20.1278672,5.66478516 22.664918,8.20183594 22.664918,11.3314297 L22.664918,13.5980742 C22.664918,14.2240195 22.1575078,14.7314297 21.5315625,14.7314297 C20.9056172,14.7314297 20.398207,14.2240195 20.398207,13.5980742 L20.398207,11.3314297 C20.398207,11.018457 20.1445352,10.7647852 19.8315625,10.7647852 C19.5185898,10.7647852 19.264918,11.018457 19.264918,11.3314297 C19.264918,12.5832539 18.2500977,13.5980742 16.9982734,13.5980742 C15.7464492,13.5980742 14.7316289,12.5832539 14.7316289,11.3314297 C14.7316289,10.0796055 15.7464492,9.06478516 16.9982734,9.06478516 C17.3112461,9.06478516 17.564918,8.81111328 17.564918,8.49814063 C17.564918,8.18516797 17.3112461,7.93149609 16.9982734,7.93149609 C15.4765742,7.92810938 14.1378906,8.93622266 13.7208594,10.3996836 C13.3038281,11.8631445 13.909918,13.4254844 15.2048398,14.22475 C16.4997617,15.0240156 18.1680195,14.8655703 19.2892891,13.8367383 C19.4126719,15.0351055 20.4542539,15.9261445 21.6572695,15.8624609 C22.8603516,15.7987109 23.8020586,14.80275 23.7982734,13.5980078 Z" id="Shape"></path>
                </g>
            </g>
        </g>
    </g>
</svg>