<?xml version="1.0" encoding="UTF-8"?>
<svg width="35px" height="40px" viewBox="0 0 35 40" version="1.1" xmlns="http://www.w3.org/2000/svg" xmlns:xlink="http://www.w3.org/1999/xlink">
    <!-- Generator: Sketch 51.1 (57501) - http://www.bohemiancoding.com/sketch -->
    <title>businessman</title>
    <desc>Created with Sketch.</desc>
    <defs></defs>
    <g id="Page-1" stroke="none" stroke-width="1" fill="none" fill-rule="evenodd">
        <g id="Apple-TV" transform="translate(-661.000000, -3709.000000)" fill-rule="nonzero">
            <g id="Group-15" transform="translate(0.000000, 3610.000000)">
                <g id="Group-11" transform="translate(230.000000, 99.000000)">
                    <g id="businessman" transform="translate(431.000000, 0.000000)">
                        <g id="Group" transform="translate(14.288991, 27.919540)" fill="#333333">
                            <polygon id="Shape" points="1.27830275 11.4362299 0.00674311927 11.2534253 1.25646789 2.48588506 0.108211009 0.75954023 1.17683486 0.0450574713 2.59738532 2.18078161"></polygon>
                            <polygon id="Shape" points="5.1443578 11.4362299 3.82527523 2.18078161 5.24582569 0.0450574713 6.31444954 0.75954023 5.16619266 2.48588506 6.41591743 11.2534253"></polygon>
                        </g>
                        <path d="M25.2067431,11.5862069 C23.6127982,11.5862069 22.1363761,10.7481379 21.3162844,9.3783908 L20.7113303,8.36781609 C18.6556422,10.4282299 15.8665596,11.5862069 12.9593119,11.5862069 L9.79389908,11.5862069 L8.50949541,11.5862069 L8.50949541,9.65517241 C8.50949541,4.67825287 12.5348165,0.643678161 17.5003211,0.643678161 L17.9627064,0.643678161 C20.7299541,0.643678161 23.1619725,2.48266667 23.9223394,5.14942529 C25.3409633,5.14942529 26.4911468,6.30225287 26.4911468,7.72413793 L26.4911468,11.5862069 L25.2067431,11.5862069 Z" id="Shape" fill="#FFCB57"></path>
                        <g id="Group" fill="#3F3A34">
                            <path d="M33.5399541,31.3947586 C33.1090367,28.8013793 31.2948165,26.6733793 28.8056422,25.8417471 L23.2801376,23.9956782 L23.2801376,23.1724138 L21.9957339,23.1724138 L21.9957339,24.379954 L21.0369266,28.2233563 L18.4430734,25.1034483 L16.5569266,25.1034483 L13.9630734,28.2233563 L13.0049083,24.379954 L13.0049083,23.1724138 L11.7205046,23.1724138 L11.7205046,23.9956782 L6.195,25.8417471 C3.70646789,26.6733793 1.89224771,28.8013793 1.46068807,31.3947586 L0.0446330275,39.908046 L34.955367,39.908046 L33.5399541,31.3947586 Z M28.998945,38.6206897 L28.4145413,32.7632184 L27.1365596,32.8913103 L27.7081193,38.620046 L7.29252294,38.620046 L7.86408257,32.8913103 L6.58610092,32.7632184 L6.00169725,38.6206897 L1.56151376,38.6206897 L2.72775229,31.6071724 C3.0803211,29.4849655 4.56509174,27.7444598 6.60151376,27.0634483 L11.9080275,25.2901149 L13.3311468,30.9950345 L17.1586697,26.3908046 L17.8413303,26.3908046 L21.6694954,30.9950345 L23.0926147,25.2901149 L28.3991284,27.0634483 C30.4355505,27.7438161 31.9196789,29.4849655 32.2728899,31.6071724 L33.4391284,38.6206897 L28.998945,38.6206897 Z" id="Shape"></path>
                            <path d="M9.43555046,17.3432644 C9.76307339,18.4729195 10.3680275,19.5085977 11.2208716,20.3634023 L13.7254587,22.8737471 C14.3316972,23.4813793 15.1376606,23.816092 15.9956422,23.816092 L19.0056422,23.816092 C19.8629817,23.816092 20.6695872,23.4813793 21.2758257,22.8737471 L23.7804128,20.3634023 C24.6332569,19.5085977 25.238211,18.4722759 25.5657339,17.3432644 C27.1654587,17.1617471 28.4177523,15.8125977 28.4177523,14.1609195 C28.4177523,13.1046437 27.9001376,12.1732414 27.1134404,11.5862069 L27.1333486,11.5862069 L27.1333486,7.72413793 C27.1333486,6.11301149 25.9452752,4.77416092 24.401422,4.5417931 C23.4349083,1.84606897 20.8487615,0 17.9627064,0 L17.5003211,0 C12.1886697,0 7.86729358,4.33131034 7.86729358,9.65517241 L7.86729358,11.5862069 L7.88720183,11.5862069 C7.10050459,12.1732414 6.58288991,13.1046437 6.58288991,14.1609195 C6.58288991,15.8125977 7.83518349,17.1617471 9.43555046,17.3432644 Z M22.8716972,19.4532414 L20.3671101,21.9635862 C20.0087615,22.3227586 19.5123394,22.5287356 19.005,22.5287356 L15.995,22.5287356 C15.4876606,22.5287356 14.9918807,22.3227586 14.6328899,21.9635862 L12.1283028,19.4532414 C11.0365596,18.3589885 10.4354587,16.9042759 10.4354587,15.3568736 L10.4354587,12.2298851 L12.9586697,12.2298851 C15.785,12.2298851 18.4572018,11.2238161 20.5687615,9.38096552 L20.7652752,9.70924138 C21.5847248,11.0783448 23.0027064,11.9885057 24.5645413,12.1867586 L24.5645413,15.3562299 C24.5645413,16.9042759 23.9634404,18.3589885 22.8716972,19.4532414 Z M25.8187615,15.9825287 C25.8367431,15.775908 25.848945,15.5673563 25.848945,15.3568736 L25.848945,12.3483218 C26.5945413,12.6148046 27.1333486,13.3228506 27.1333486,14.1609195 C27.1333486,15.009931 26.5797706,15.7250575 25.8187615,15.9825287 Z M9.15169725,9.65517241 C9.15169725,5.04128736 12.8970183,1.28735632 17.5003211,1.28735632 L17.9627064,1.28735632 C20.4300459,1.28735632 22.6270183,2.94804598 23.3051835,5.32643678 L23.4381193,5.79310345 L23.9223394,5.79310345 C24.9845413,5.79310345 25.848945,6.65949425 25.848945,7.72413793 L25.848945,11.0075402 C25.6415138,10.9650575 25.4263761,10.9425287 25.2067431,10.9425287 C23.8465596,10.9425287 22.5666514,10.2164598 21.8666514,9.04689655 L20.8384862,7.32956322 L20.2566514,7.91273563 C18.3075688,9.86629885 15.7162844,10.9425287 12.9593119,10.9425287 L9.79389908,10.9425287 C9.57426606,10.9425287 9.35912844,10.9650575 9.15169725,11.0075402 L9.15169725,9.65517241 Z M9.15169725,12.3483218 L9.15169725,15.3568736 C9.15169725,15.5673563 9.16389908,15.775908 9.18188073,15.9831724 C8.42087156,15.7250575 7.86729358,15.009931 7.86729358,14.1609195 C7.86729358,13.3228506 8.40610092,12.6148046 9.15169725,12.3483218 Z" id="Shape"></path>
                        </g>
                    </g>
                </g>
            </g>
        </g>
    </g>
</svg>