<?xml version="1.0" encoding="UTF-8"?>
<svg width="50px" height="50px" viewBox="0 0 50 50" version="1.1" xmlns="http://www.w3.org/2000/svg" xmlns:xlink="http://www.w3.org/1999/xlink">
    <!-- Generator: Sketch 51.1 (57501) - http://www.bohemiancoding.com/sketch -->
    <title>income</title>
    <desc>Created with Sketch.</desc>
    <defs></defs>
    <g id="Page-1" stroke="none" stroke-width="1" fill="none" fill-rule="evenodd">
        <g id="Apple-TV" transform="translate(-230.000000, -1496.000000)" fill-rule="nonzero">
            <g id="2" transform="translate(0.000000, 937.000000)">
                <g id="Group-9" transform="translate(230.000000, 310.000000)">
                    <g id="Group-7-Copy" transform="translate(0.000000, 238.000000)">
                        <g id="income" transform="translate(0.000000, 11.000000)">
                            <g id="Group" transform="translate(0.000000, 0.806452)" fill="#F0BC5E">
                                <rect id="Rectangle-path" x="33.0645161" y="45.1612903" width="12.9032258" height="3.22580645"></rect>
                                <rect id="Rectangle-path" x="33.0645161" y="38.7096774" width="12.9032258" height="3.22580645"></rect>
                                <rect id="Rectangle-path" x="33.0645161" y="32.2580645" width="12.9032258" height="3.22580645"></rect>
                                <rect id="Rectangle-path" x="16.9354839" y="45.1612903" width="12.9032258" height="3.22580645"></rect>
                                <rect id="Rectangle-path" x="16.9354839" y="38.7096774" width="12.9032258" height="3.22580645"></rect>
                                <rect id="Rectangle-path" x="16.9354839" y="32.2580645" width="12.9032258" height="3.22580645"></rect>
                                <rect id="Rectangle-path" x="0.806451613" y="45.1612903" width="12.9032258" height="3.22580645"></rect>
                                <rect id="Rectangle-path" x="0.806451613" y="38.7096774" width="12.9032258" height="3.22580645"></rect>
                                <rect id="Rectangle-path" x="33.0645161" y="25.8064516" width="12.9032258" height="3.22580645"></rect>
                                <path d="M10.483871,20.9677419 C4.70322581,20.9677419 0,16.2645161 0,10.483871 C0,4.70322581 4.70322581,0 10.483871,0 C16.2645161,0 20.9677419,4.70322581 20.9677419,10.483871 C20.9677419,16.2645161 16.2645161,20.9677419 10.483871,20.9677419 Z" id="Shape"></path>
                            </g>
                            <path d="M10.483871,15.3225806 C9.59435484,15.3225806 8.87096774,14.5991935 8.87096774,13.7096774 L7.25806452,13.7096774 C7.25806452,15.2080645 8.28951613,16.4604839 9.67741935,16.8209677 L9.67741935,18.5483871 L11.2903226,18.5483871 L11.2903226,16.8209677 C12.6782258,16.4604839 13.7096774,15.2080645 13.7096774,13.7096774 C13.7096774,11.9306452 12.2629032,10.483871 10.483871,10.483871 C9.59435484,10.483871 8.87096774,9.76048387 8.87096774,8.87096774 C8.87096774,7.98145161 9.59435484,7.25806452 10.483871,7.25806452 C11.3733871,7.25806452 12.0967742,7.98145161 12.0967742,8.87096774 L13.7096774,8.87096774 C13.7096774,7.37258065 12.6782258,6.12016129 11.2903226,5.75967742 L11.2903226,4.03225806 L9.67741935,4.03225806 L9.67741935,5.75967742 C8.28951613,6.12016129 7.25806452,7.37258065 7.25806452,8.87096774 C7.25806452,10.65 8.70483871,12.0967742 10.483871,12.0967742 C11.3733871,12.0967742 12.0967742,12.8201613 12.0967742,13.7096774 C12.0967742,14.5991935 11.3733871,15.3225806 10.483871,15.3225806 Z" id="Shape" fill="#000000"></path>
                            <path d="M0,41.9354839 L0,43.5483871 L0,45.1612903 L0,46.7741935 L0,50 L14.516129,50 L14.516129,46.7741935 L14.516129,45.1612903 L14.516129,43.5483871 L14.516129,41.9354839 L14.516129,38.7096774 L0,38.7096774 L0,41.9354839 Z M12.9032258,48.3870968 L1.61290323,48.3870968 L1.61290323,46.7741935 L12.9032258,46.7741935 L12.9032258,48.3870968 Z M12.9032258,45.1612903 L1.61290323,45.1612903 L1.61290323,43.5483871 L12.9032258,43.5483871 L12.9032258,45.1612903 Z M1.61290323,40.3225806 L12.9032258,40.3225806 L12.9032258,41.9354839 L1.61290323,41.9354839 L1.61290323,40.3225806 Z" id="Shape" fill="#000000"></path>
                            <path d="M16.1290323,35.483871 L16.1290323,37.0967742 L16.1290323,38.7096774 L16.1290323,40.3225806 L16.1290323,41.9354839 L16.1290323,43.5483871 L16.1290323,45.1612903 L16.1290323,45.9677419 L16.1290323,50 L30.6451613,50 L30.6451613,45.9677419 L30.6451613,45.1612903 L30.6451613,43.5483871 L30.6451613,41.9354839 L30.6451613,40.3225806 L30.6451613,38.7096774 L30.6451613,37.0967742 L30.6451613,35.483871 L30.6451613,32.2580645 L16.1290323,32.2580645 L16.1290323,35.483871 Z M29.0322581,45.1612903 L20.9677419,45.1612903 L20.9677419,46.7741935 L29.0322581,46.7741935 L29.0322581,48.3870968 L17.7419355,48.3870968 L17.7419355,46.7741935 L19.3548387,46.7741935 L19.3548387,45.1612903 L17.7419355,45.1612903 L17.7419355,43.5483871 L29.0322581,43.5483871 L29.0322581,45.1612903 Z M29.0322581,41.9354839 L17.7419355,41.9354839 L17.7419355,40.3225806 L29.0322581,40.3225806 L29.0322581,41.9354839 Z M29.0322581,38.7096774 L17.7419355,38.7096774 L17.7419355,37.0967742 L29.0322581,37.0967742 L29.0322581,38.7096774 Z M17.7419355,33.8709677 L29.0322581,33.8709677 L29.0322581,35.483871 L17.7419355,35.483871 L17.7419355,33.8709677 Z" id="Shape" fill="#000000"></path>
                            <path d="M32.2580645,29.0322581 L32.2580645,30.6451613 L32.2580645,32.2580645 L32.2580645,33.0645161 L32.2580645,35.483871 L32.2580645,37.0967742 L32.2580645,38.7096774 L32.2580645,40.3225806 L32.2580645,41.9354839 L32.2580645,43.5483871 L32.2580645,45.1612903 L32.2580645,46.7741935 L32.2580645,50 L46.7741935,50 L46.7741935,46.7741935 L46.7741935,45.1612903 L46.7741935,43.5483871 L46.7741935,41.9354839 L46.7741935,40.3225806 L46.7741935,38.7096774 L46.7741935,37.0967742 L46.7741935,35.483871 L46.7741935,33.0645161 L46.7741935,32.2580645 L46.7741935,30.6451613 L46.7741935,29.0322581 L46.7741935,25.8064516 L32.2580645,25.8064516 L32.2580645,29.0322581 Z M45.1612903,48.3870968 L33.8709677,48.3870968 L33.8709677,46.7741935 L45.1612903,46.7741935 L45.1612903,48.3870968 Z M45.1612903,45.1612903 L33.8709677,45.1612903 L33.8709677,43.5483871 L45.1612903,43.5483871 L45.1612903,45.1612903 Z M45.1612903,41.9354839 L33.8709677,41.9354839 L33.8709677,40.3225806 L45.1612903,40.3225806 L45.1612903,41.9354839 Z M45.1612903,38.7096774 L33.8709677,38.7096774 L33.8709677,37.0967742 L45.1612903,37.0967742 L45.1612903,38.7096774 Z M45.1612903,32.2580645 L43.5483871,32.2580645 L43.5483871,33.8709677 L45.1612903,33.8709677 L45.1612903,35.483871 L33.8709677,35.483871 L33.8709677,33.8709677 L41.9354839,33.8709677 L41.9354839,32.2580645 L33.8709677,32.2580645 L33.8709677,30.6451613 L45.1612903,30.6451613 L45.1612903,32.2580645 Z M33.8709677,27.4193548 L45.1612903,27.4193548 L45.1612903,29.0322581 L33.8709677,29.0322581 L33.8709677,27.4193548 Z" id="Shape" fill="#000000"></path>
                            <path d="M37.9032258,0 C36.5693548,0 35.483871,1.08548387 35.483871,2.41935484 C35.483871,3.75322581 36.5693548,4.83870968 37.9032258,4.83870968 L41.6016129,4.83870968 L29.7225806,16.7177419 L23.3346774,12.725 L0.308064516,30.8120968 L1.30483871,32.0806452 L23.4395161,14.6935484 L29.9548387,18.7653226 L45.4951613,3.22580645 L37.9032258,3.22580645 C37.4580645,3.22580645 37.0967742,2.86370968 37.0967742,2.41935484 C37.0967742,1.975 37.4580645,1.61290323 37.9032258,1.61290323 L48.3870968,1.61290323 L48.3870968,12.0967742 C48.3870968,12.541129 48.0258065,12.9032258 47.5806452,12.9032258 C47.1354839,12.9032258 46.7741935,12.541129 46.7741935,12.0967742 L46.7741935,5.31129032 L30.5048387,21.5798387 L23.3056452,17.5806452 L2.72177419,34.0475806 L3.72983871,35.3072581 L23.4685484,19.516129 L30.7854839,23.5814516 L45.1612903,9.20483871 L45.1612903,12.0967742 C45.1612903,13.4306452 46.2467742,14.516129 47.5806452,14.516129 C48.9145161,14.516129 50,13.4306452 50,12.0967742 L50,0 L37.9032258,0 Z" id="Shape" fill="#000000"></path>
                            <rect id="Rectangle-path" fill="#000000" x="3.22580645" y="10.483871" width="1.61290323" height="1.61290323"></rect>
                            <rect id="Rectangle-path" fill="#000000" x="16.1290323" y="10.483871" width="1.61290323" height="1.61290323"></rect>
                        </g>
                    </g>
                </g>
            </g>
        </g>
    </g>
</svg>