<?xml version="1.0" encoding="UTF-8"?>
<svg width="50px" height="50px" viewBox="0 0 50 50" version="1.1" xmlns="http://www.w3.org/2000/svg" xmlns:xlink="http://www.w3.org/1999/xlink">
    <!-- Generator: Sketch 51.1 (57501) - http://www.bohemiancoding.com/sketch -->
    <title>Group 20</title>
    <desc>Created with Sketch.</desc>
    <defs></defs>
    <g id="Page-1" stroke="none" stroke-width="1" fill="none" fill-rule="evenodd">
        <g id="Apple-TV" transform="translate(-655.000000, -8387.000000)" fill-rule="nonzero">
            <g id="Group-20" transform="translate(655.000000, 8387.000000)">
                <rect id="Rectangle-16" fill="#F9BA48" x="0" y="0" width="50" height="50" rx="8"></rect>
                <g id="whatsapp" transform="translate(8.000000, 8.000000)" fill="#000000">
                    <path d="M17.0550572,0 C7.76769231,0 0.22512426,7.54250099 0.22512426,16.7736686 C0.22512426,19.7006193 1.01315976,22.5149744 2.47663511,25.1042051 L0,33.9975858 L9.06224063,31.577215 C11.7077357,32.984426 14.4658264,33.7723945 17.0550572,33.7723945 C26.2298935,33.7723945 33.9975858,26.0047022 33.9975858,16.7736016 C33.9975858,7.54250099 26.3987535,0 17.0550572,0 Z M17.0550572,32.6467061 C14.5784221,32.6467061 11.932927,31.8586706 9.39996055,30.4515266 L9.17483629,30.338931 L1.57607101,32.4215148 L3.65865483,24.9353452 L3.54605917,24.7102209 C2.13884813,22.2898501 1.35087968,19.5317594 1.35087968,16.7736686 C1.35087968,8.16167653 8.38680079,1.12575542 17.0550572,1.12575542 C25.7795779,1.12575542 32.8718304,8.16167653 32.8718304,16.7736686 C32.8718304,25.3856607 25.610785,32.6467061 17.0550572,32.6467061 Z" id="Shape"></path>
                    <path d="M17.0550572,2.81435503 C9.34369625,2.81435503 3.03947929,9.06224063 3.03947929,16.7736016 C3.03947929,19.5316923 3.82751479,22.1209231 5.23465878,24.4286982 L5.45978304,24.7101538 L3.94011045,30.0574753 L9.45629191,28.6502643 L9.73774753,28.8191243 C12.0455227,30.2263353 14.5784892,30.9580394 17.0551243,30.9580394 C24.8228166,30.9580394 31.1832308,24.5975582 31.1832308,16.7736016 C31.1832308,9.06224063 24.8227495,2.81435503 17.0550572,2.81435503 Z M16.9987929,29.8886154 C14.7472821,29.8886154 12.4395069,29.1569112 10.3005917,27.8622959 L9.62515187,27.4119803 L5.51618146,28.42514 L6.64193688,24.4850296 L6.1916213,23.7533254 C4.84074162,21.6706746 4.16530178,19.2503037 4.16530178,16.7736686 C4.16530178,9.73774753 9.96287179,3.94017751 17.0551243,3.94017751 C24.203641,3.94017751 30.0575424,9.73774753 30.0575424,16.7736686 C30.0574753,23.9784497 24.203574,29.832284 16.9987929,29.8886154 Z" id="Shape"></path>
                    <path d="M25.4981893,19.8694793 L21.9520631,18.237144 C21.4454832,18.0120197 20.9389034,18.1808797 20.6011834,18.5748639 L19.2503037,20.3197949 C18.237144,19.9258107 15.422789,18.6874596 13.7904536,15.6479132 L15.0288047,14.1844379 C15.3102604,13.8467179 15.3665247,13.3964024 15.1976647,13.0024181 L13.677925,9.40002761 C13.5090651,9.00604339 13.1713452,8.72458777 12.7210296,8.72458777 L11.6515385,8.66832347 C11.2012229,8.66832347 10.694643,8.78091913 10.3569231,9.11863905 C9.8503432,9.56895464 8.89344773,10.5258501 8.61199211,11.8204655 C8.21800789,13.677925 8.83711637,15.8731716 10.4131874,18.0120868 C11.3700828,19.3629665 14.2970335,23.3594083 19.9257436,24.9354122 C20.4885878,25.1042722 21.051499,25.1605365 21.5580789,25.1605365 C22.5149744,25.1605365 23.4155385,24.8790809 24.203574,24.4288323 C25.1042051,23.8659882 25.7233136,22.9090927 25.9485049,21.8958659 L26.1173649,21.1078304 C26.2298935,20.6011834 25.9485049,20.0946036 25.4981893,19.8694793 Z M24.7664181,21.6143432 C24.5975582,22.3460473 24.1472426,23.0215542 23.5280671,23.4155385 C22.5711716,24.034714 21.4454162,24.1472426 20.2071321,23.8095227 C14.9724063,22.3460473 12.2143156,18.5747968 11.3137515,17.3364458 C9.96287179,15.4789862 9.39996055,13.5651953 9.73768047,12.0454556 C9.96280473,11.0322959 10.6945759,10.3005247 11.1448915,9.90654043 C11.2574872,9.79394477 11.4263471,9.73768047 11.5952071,9.73768047 L12.7209625,9.85027613 L14.2407022,13.3964024 L12.8898225,14.916142 C12.6646982,15.1975976 12.6083669,15.6478462 12.7772268,15.9856331 C14.6346864,19.5880237 18.0119527,20.9952347 19.0251124,21.3329546 C19.4190966,21.4455503 19.8131479,21.3329546 20.0946036,20.9952347 L21.4454832,19.1940394 L24.9916095,20.8263748 L24.7664181,21.6143432 Z" id="Shape"></path>
                </g>
            </g>
        </g>
    </g>
</svg>