<?xml version="1.0" encoding="UTF-8"?>
<svg width="55px" height="48px" viewBox="0 0 55 48" version="1.1" xmlns="http://www.w3.org/2000/svg" xmlns:xlink="http://www.w3.org/1999/xlink">
    <!-- Generator: Sketch 51.1 (57501) - http://www.bohemiancoding.com/sketch -->
    <title>”</title>
    <desc>Created with Sketch.</desc>
    <defs></defs>
    <g id="Page-1" stroke="none" stroke-width="1" fill="none" fill-rule="evenodd" opacity="0.100000001">
        <g id="Apple-TV" transform="translate(-1176.000000, -3398.000000)" fill="#333333">
            <path d="M1227.56,3405.02 C1229.32001,3408.18002 1230.2,3411.75998 1230.2,3415.76 C1230.2,3422.88004 1227.98002,3428.99997 1223.54,3434.12 C1219.09998,3439.24003 1213.76003,3443.11999 1207.52,3445.76 L1205,3441.44 L1205,3440.24 C1207.08001,3439.52 1209.17999,3438.12001 1211.3,3436.04 C1213.42001,3433.95999 1215.13999,3431.48001 1216.46,3428.6 C1217.78001,3425.71999 1218.44,3422.80001 1218.44,3419.84 C1218.44,3417.11999 1217.82001,3414.78001 1216.58,3412.82 C1215.33999,3410.85999 1213.64001,3409.72 1211.48,3409.4 L1211.84,3407.24 L1219.52,3398.84 C1223.12002,3399.8 1225.79999,3401.85998 1227.56,3405.02 Z M1199.12,3405.02 C1200.88001,3408.18002 1201.76,3411.75998 1201.76,3415.76 C1201.76,3422.88004 1199.54002,3428.99997 1195.1,3434.12 C1190.65998,3439.24003 1185.32003,3443.11999 1179.08,3445.76 L1176.56,3441.44 L1176.56,3440.24 C1178.64001,3439.52 1180.73999,3438.12001 1182.86,3436.04 C1184.98001,3433.95999 1186.69999,3431.48001 1188.02,3428.6 C1189.34001,3425.71999 1190,3422.80001 1190,3419.84 C1190,3417.11999 1189.38001,3414.78001 1188.14,3412.82 C1186.89999,3410.85999 1185.20001,3409.72 1183.04,3409.4 L1183.4,3407.24 L1191.08,3398.84 C1194.68002,3399.8 1197.35999,3401.85998 1199.12,3405.02 Z" id="”"></path>
        </g>
    </g>
</svg>