<?xml version="1.0" encoding="UTF-8"?>
<svg width="54px" height="48px" viewBox="0 0 54 48" version="1.1" xmlns="http://www.w3.org/2000/svg" xmlns:xlink="http://www.w3.org/1999/xlink">
    <!-- Generator: Sketch 51.1 (57501) - http://www.bohemiancoding.com/sketch -->
    <title>“</title>
    <desc>Created with Sketch.</desc>
    <defs></defs>
    <g id="Page-1" stroke="none" stroke-width="1" fill="none" fill-rule="evenodd" opacity="0.100000001">
        <g id="Apple-TV" transform="translate(-652.000000, -3310.000000)" fill="#333333">
            <path d="M683.2,3351.34 C681.439991,3348.17998 680.56,3344.60002 680.56,3340.6 C680.56,3333.47996 682.779978,3327.36003 687.22,3322.24 C691.660022,3317.11997 696.999969,3313.24001 703.24,3310.6 L705.76,3314.92 L705.76,3316.12 C703.67999,3316.84 701.580011,3318.23999 699.46,3320.32 C697.339989,3322.40001 695.620007,3324.87999 694.3,3327.76 C692.979993,3330.64001 692.32,3333.55999 692.32,3336.52 C692.32,3339.24001 692.939994,3341.57999 694.18,3343.54 C695.420006,3345.50001 697.119989,3346.64 699.28,3346.96 L698.92,3349.12 L691.24,3357.52 C687.639982,3356.56 684.960009,3354.50002 683.2,3351.34 Z M654.64,3351.34 C652.879991,3348.17998 652,3344.60002 652,3340.6 C652,3333.47996 654.219978,3327.36003 658.66,3322.24 C663.100022,3317.11997 668.439969,3313.24001 674.68,3310.6 L677.2,3314.92 L677.2,3316.12 C675.11999,3316.84 673.020011,3318.23999 670.9,3320.32 C668.779989,3322.40001 667.060007,3324.87999 665.74,3327.76 C664.419993,3330.64001 663.76,3333.55999 663.76,3336.52 C663.76,3339.24001 664.379994,3341.57999 665.62,3343.54 C666.860006,3345.50001 668.559989,3346.64 670.72,3346.96 L670.36,3349.12 L662.68,3357.52 C659.079982,3356.56 656.400009,3354.50002 654.64,3351.34 Z" id="“"></path>
        </g>
    </g>
</svg>