<?xml version="1.0" encoding="UTF-8"?>
<svg width="50px" height="51px" viewBox="0 0 50 51" version="1.1" xmlns="http://www.w3.org/2000/svg" xmlns:xlink="http://www.w3.org/1999/xlink">
    <!-- Generator: Sketch 51.1 (57501) - http://www.bohemiancoding.com/sketch -->
    <title>analytics</title>
    <desc>Created with Sketch.</desc>
    <defs></defs>
    <g id="Page-1" stroke="none" stroke-width="1" fill="none" fill-rule="evenodd">
        <g id="Apple-TV" transform="translate(-230.000000, -1391.000000)" fill-rule="nonzero">
            <g id="2" transform="translate(0.000000, 937.000000)">
                <g id="Group-9" transform="translate(230.000000, 310.000000)">
                    <g id="analytics" transform="translate(0.000000, 144.000000)">
                        <path d="M7.30875252,33.7336016 L14.5538229,27.3939638 C14.0580483,26.8273642 13.7473843,26.0949698 13.7473843,25.2828974 C13.7473843,23.5050302 15.188833,22.0635815 16.9667002,22.0635815 C17.555835,22.0635815 18.1015091,22.2334004 18.5763581,22.5102616 L18.5763581,18.8442656 L20.1860161,18.8442656 L20.1860161,27.7867203 L28.9288732,34.5867203 C29.5139839,33.8277666 30.4194165,33.3311871 31.4536217,33.3311871 C32.4105634,33.3311871 33.2556338,33.7617706 33.8455734,34.4249497 L42.7212274,26.5352113 L42.7212274,13.2104628 L45.9405433,13.2104628 L37.0874245,4.35734406 L33.0632797,8.38148893 L25.8198189,1.13802817 L16.9667002,9.99114688 L20.1860161,9.99114688 L20.1860161,17.2346076 L12.9425553,9.99114688 L4.08943662,18.8442656 L7.30875252,18.8442656 L7.30875252,33.7336016 Z" id="Shape" fill="#FFCB57"></path>
                        <g id="Group" transform="translate(3.219316, 29.275654)" fill="#333333">
                            <rect id="Rectangle-path" x="0.0652917505" y="12.9086519" width="1.60965795" height="7.24346076"></rect>
                            <rect id="Rectangle-path" x="3.28460765" y="12.1038229" width="1.60965795" height="8.04828974"></rect>
                            <rect id="Rectangle-path" x="6.50392354" y="4.86036217" width="1.60965795" height="15.2917505"></rect>
                            <rect id="Rectangle-path" x="9.72323944" y="1.64104628" width="1.60965795" height="18.5110664"></rect>
                            <rect id="Rectangle-path" x="12.9425553" y="1.64104628" width="1.60965795" height="18.5110664"></rect>
                            <rect id="Rectangle-path" x="16.1618712" y="1.64104628" width="1.60965795" height="18.5110664"></rect>
                            <rect id="Rectangle-path" x="19.3811871" y="4.0555332" width="1.60965795" height="16.0965795"></rect>
                            <rect id="Rectangle-path" x="22.600503" y="9.68933602" width="1.60965795" height="10.4627767"></rect>
                            <rect id="Rectangle-path" x="25.8198189" y="12.9086519" width="1.60965795" height="7.24346076"></rect>
                            <rect id="Rectangle-path" x="29.0391348" y="12.9086519" width="1.60965795" height="7.24346076"></rect>
                            <rect id="Rectangle-path" x="32.2584507" y="9.68933602" width="1.60965795" height="10.4627767"></rect>
                            <rect id="Rectangle-path" x="35.4777666" y="3.25070423" width="1.60965795" height="16.9014085"></rect>
                            <rect id="Rectangle-path" x="38.6970825" y="0.836217304" width="1.60965795" height="19.3158954"></rect>
                            <rect id="Rectangle-path" x="41.9163984" y="0.03138833" width="1.60965795" height="20.1207243"></rect>
                        </g>
                        <g id="Group" fill="#3F3A34">
                            <path d="M4.08943662,40.5746479 C6.3083501,40.5746479 8.11358149,38.7694165 8.11358149,36.550503 C8.11358149,35.8277666 7.90674044,35.1589537 7.57193159,34.5722334 L14.5417505,28.4732394 C15.2186117,28.9891348 16.0524145,29.3070423 16.9667002,29.3070423 C17.9638833,29.3070423 18.8652918,28.9287726 19.5695171,28.3267606 L27.8608652,34.7758551 C27.593662,35.3134809 27.4294769,35.910664 27.4294769,36.550503 C27.4294769,38.7694165 29.2347082,40.5746479 31.4536217,40.5746479 C33.6725352,40.5746479 35.4777666,38.7694165 35.4777666,36.550503 C35.4777666,35.816499 35.2660966,35.1372233 34.9208249,34.5440644 L43.5300805,26.8925553 C43.9349095,27.1959759 44.3960765,27.4253521 44.8990946,27.5597586 C45.2459759,27.6531187 45.5976861,27.698994 45.9469819,27.698994 C46.6439638,27.698994 47.3328974,27.515493 47.9526157,27.1581489 C48.882998,26.6205231 49.5485915,25.7529175 49.8270624,24.7146881 C50.1055332,23.6764588 49.9630785,22.5915493 49.4254527,21.661167 C48.887827,20.7307847 48.0202213,20.0651911 46.981992,19.7867203 C45.9437626,19.5066398 44.8588531,19.6523139 43.9284708,20.18833 C42.9980885,20.7259557 42.332495,21.5935614 42.0540241,22.6317907 C41.7755533,23.6700201 41.918008,24.7549296 42.4556338,25.6853119 C42.4572435,25.6877264 42.4588531,25.689336 42.4596579,25.6909457 L33.8536217,33.3400402 C33.1815895,32.8362173 32.3566398,32.5263581 31.4536217,32.5263581 C30.4564386,32.5263581 29.5550302,32.9046278 28.8508048,33.5066398 L20.5594567,27.0575453 C20.82666,26.5199195 20.9908451,25.9227364 20.9908451,25.2828974 C20.9908451,23.0639839 19.1856137,21.2587525 16.9667002,21.2587525 C14.7477867,21.2587525 12.9425553,23.0639839 12.9425553,25.2828974 C12.9425553,26.0056338 13.1493964,26.6744467 13.4842052,27.261167 L6.51438632,33.360161 C5.83752515,32.8442656 5.00372233,32.5263581 4.08943662,32.5263581 C1.87052314,32.5263581 0.0652917505,34.3315895 0.0652917505,36.550503 C0.0652917505,38.7694165 1.87052314,40.5746479 4.08943662,40.5746479 Z M44.7332998,21.5822938 C45.1131791,21.3633803 45.5268612,21.2595573 45.9365191,21.2595573 C46.7711268,21.2595573 47.5848089,21.6925553 48.0314889,22.465996 C48.6970825,23.6193159 48.3011066,25.0985915 47.1477867,25.7641851 C45.9944668,26.4313883 44.5151911,26.0338028 43.8495976,24.8804829 C43.184004,23.727163 43.5799799,22.2478873 44.7332998,21.5822938 Z M31.4536217,34.1360161 C32.7848089,34.1360161 33.8681087,35.2193159 33.8681087,36.550503 C33.8681087,37.8816901 32.7848089,38.9649899 31.4536217,38.9649899 C30.1224346,38.9649899 29.0391348,37.8816901 29.0391348,36.550503 C29.0391348,35.2193159 30.1224346,34.1360161 31.4536217,34.1360161 Z M16.9667002,22.8684105 C18.2978873,22.8684105 19.3811871,23.9517103 19.3811871,25.2828974 C19.3811871,26.6140845 18.2978873,27.6973843 16.9667002,27.6973843 C15.6355131,27.6973843 14.5522133,26.6140845 14.5522133,25.2828974 C14.5522133,23.9517103 15.6355131,22.8684105 16.9667002,22.8684105 Z M4.08943662,34.1360161 C5.42062374,34.1360161 6.50392354,35.2193159 6.50392354,36.550503 C6.50392354,37.8816901 5.42062374,38.9649899 4.08943662,38.9649899 C2.7582495,38.9649899 1.6749497,37.8816901 1.6749497,36.550503 C1.6749497,35.2193159 2.7582495,34.1360161 4.08943662,34.1360161 Z" id="Shape"></path>
                            <rect id="Rectangle-path" x="0.0652917505" y="48.6229376" width="49.8993964" height="1.60965795"></rect>
                            <polygon id="Shape" points="6.50392354 30.9167002 8.11358149 30.9167002 8.11358149 18.0394366 6.03229376 18.0394366 12.9425553 11.1291751 19.8528169 18.0394366 17.7715292 18.0394366 17.7715292 20.4539235 19.3811871 20.4539235 19.3811871 19.6490946 23.7385312 19.6490946 12.9425553 8.85311871 2.14657948 19.6490946 6.50392354 19.6490946"></polygon>
                            <polygon id="Shape" points="19.3811871 14.0152918 20.9908451 14.0152918 20.9908451 9.18631791 18.9095573 9.18631791 25.8198189 2.27605634 30.8846076 7.34084507 32.0226358 6.2028169 25.8198189 0 15.0238431 10.7959759 19.3811871 10.7959759"></polygon>
                            <polygon id="Shape" points="30.6487928 14.0152918 30.6487928 30.9167002 32.2584507 30.9167002 32.2584507 12.4056338 30.177163 12.4056338 37.0874245 5.49537223 43.9976861 12.4056338 41.9163984 12.4056338 41.9163984 18.8442656 43.5260563 18.8442656 43.5260563 14.0152918 47.8834004 14.0152918 37.0874245 3.2193159 26.2914487 14.0152918"></polygon>
                            <rect id="Rectangle-path" x="36.2825956" y="24.4780684" width="1.60965795" height="1.60965795"></rect>
                            <rect id="Rectangle-path" x="36.2825956" y="21.2587525" width="1.60965795" height="1.60965795"></rect>
                            <rect id="Rectangle-path" x="36.2825956" y="18.0394366" width="1.60965795" height="1.60965795"></rect>
                            <rect id="Rectangle-path" x="25.0149899" y="26.0877264" width="1.60965795" height="1.60965795"></rect>
                            <rect id="Rectangle-path" x="25.0149899" y="22.8684105" width="1.60965795" height="1.60965795"></rect>
                            <rect id="Rectangle-path" x="25.0149899" y="19.6490946" width="1.60965795" height="1.60965795"></rect>
                            <rect id="Rectangle-path" x="12.1377264" y="21.2587525" width="1.60965795" height="1.60965795"></rect>
                            <rect id="Rectangle-path" x="12.1377264" y="18.0394366" width="1.60965795" height="1.60965795"></rect>
                        </g>
                    </g>
                </g>
            </g>
        </g>
    </g>
</svg>