<?xml version="1.0" encoding="UTF-8"?>
<svg width="50px" height="50px" viewBox="0 0 50 50" version="1.1" xmlns="http://www.w3.org/2000/svg" xmlns:xlink="http://www.w3.org/1999/xlink">
    <!-- Generator: Sketch 51.1 (57501) - http://www.bohemiancoding.com/sketch -->
    <title>Group 24</title>
    <desc>Created with Sketch.</desc>
    <defs></defs>
    <g id="Page-1" stroke="none" stroke-width="1" fill="none" fill-rule="evenodd">
        <g id="Apple-TV" transform="translate(-655.000000, -8535.000000)" fill-rule="nonzero">
            <g id="Group-22" transform="translate(655.000000, 8535.000000)">
                <g id="Group-24">
                    <rect id="Rectangle-16-Copy-2" fill="#F9BA48" x="0" y="0" width="50" height="50" rx="8"></rect>
                    <g id="skype" transform="translate(8.000000, 8.000000)" fill="#000000">
                        <path d="M32.98,19.9466445 C33.15,18.9832891 33.2633555,18.02 33.2633555,17.0566445 C33.2633555,8.16 26.01,0.906644531 17.1133555,0.906644531 C16.15,0.906644531 15.1867109,1.02 14.2233555,1.19 C12.8066445,0.396644531 11.22,0 9.57664453,0 C4.30664453,0 0,4.30664453 0,9.57664453 C0,11.1632891 0.396644531,12.8066445 1.19,14.2232891 C1.02,15.1866445 0.906644531,16.1499336 0.906644531,17.1132891 C0.906644531,26.0099336 8.16,33.2632891 17.0566445,33.2632891 C18.02,33.2632891 18.9832891,33.1499336 19.9466445,32.9799336 C21.1932891,33.6599336 22.7232891,33.9999336 24.5932891,33.9999336 C29.8633555,34 34,29.8633555 34,24.5933555 C34,22.7233555 33.66,21.1933555 32.98,19.9466445 Z M24.5933555,32.8666445 C22.8367109,32.8666445 21.4767109,32.5266445 20.3433555,31.9032891 L20.1733555,31.7899336 L19.9467109,31.8465781 C18.9833555,32.0165781 18.0200664,32.1299336 17.0567109,32.1299336 C8.78335547,32.1299336 2.04006641,25.3865781 2.04006641,17.1132891 C2.04006641,16.1499336 2.15342187,15.1866445 2.32342187,14.2232891 L2.38006641,13.9966445 L2.26671094,13.8266445 C1.53006641,12.5232891 1.13335547,11.05 1.13335547,9.57664453 C1.13335547,4.93 4.93,1.13328906 9.57671094,1.13328906 C11.0500664,1.13328906 12.5233555,1.52993359 13.8267109,2.26664453 L13.9967109,2.38 L14.2233555,2.32335547 C15.1867109,2.15335547 16.15,2.04 17.1133555,2.04 C25.3867109,2.04 32.13,8.78335547 32.13,17.0566445 C32.13,18.02 32.0166445,18.9832891 31.8466445,19.9466445 L31.79,20.1732891 L31.9033555,20.3432891 C32.5267109,21.4766445 32.8667109,22.8366445 32.8667109,24.5932891 C32.8666445,29.24 29.24,32.8666445 24.5933555,32.8666445 Z" id="Shape"></path>
                        <path d="M18.4733555,14.28 C14.2233555,13.43 13.6,12.3533555 13.5433555,12.07 C13.43,11.6733555 13.7133555,11.3333555 13.9967109,11.1066445 C14.7333555,10.4832891 16.4900664,9.97328906 18.0200664,10.2566445 C18.5867109,10.37 19.3800664,10.6532891 19.7767109,11.3332891 C20.7400664,13.2032891 21.7600664,14.6766445 23.8567109,14.1666445 C24.5367109,13.9966445 25.0467109,13.5432891 25.3867109,12.8632891 C25.7833555,11.9566445 25.7833555,10.7099336 25.2733555,9.74664453 C24.7067109,8.67 22.27,5.89328906 17.51,5.89328906 C12.9766445,5.89328906 7.76335547,7.53664453 7.76335547,12.1832891 C7.76335547,15.8666445 10.9933555,18.4732891 16.6033555,19.2666445 C19.4367109,19.6632891 20.3433555,20.57 20.6267109,21.08 C20.7967109,21.42 20.7967109,21.76 20.6833555,22.1 C20.23,23.1766445 18.7,24.1966445 16.32,23.97 C13.6,23.6866445 12.6933555,21.25 12.5233555,20.74 C12.07,19.3233555 10.54,19.0966445 9.74671094,19.1533555 C9.35006641,19.21 8.44335547,19.4933555 7.87671094,20.3433555 C7.53671094,20.8533555 7.19671094,21.8167109 7.70671094,23.29 C8.33006641,25.2166445 10.4267109,28.39 17.3967109,28.39 C23.2333555,28.39 26.7467109,24.7066445 26.8033555,21.3066445 C26.8033555,17.5666445 24.2533555,15.4133555 18.4733555,14.28 Z M17.34,27.2566445 C12.6933555,27.2566445 9.63335547,25.7266445 8.72664453,22.95 C8.44328906,22.1 8.44328906,21.42 8.78328906,20.9666445 C9.12328906,20.5132891 9.63328906,20.2866445 9.85993359,20.2866445 C9.85993359,20.2866445 9.91657813,20.2866445 10.0299336,20.2866445 C10.3699336,20.2866445 11.2199336,20.3432891 11.3332891,21.0232891 C11.5599336,21.6466445 12.6932891,24.7066445 16.0932891,25.0466445 C19.0966445,25.33 21.0232891,23.9132891 21.6466445,22.44 C21.93,21.76 21.8732891,21.0233555 21.5332891,20.4 C21.0799336,19.55 19.8332891,18.4733555 16.7166445,18.02 C13.77,17.5666445 8.84,16.2633555 8.84,12.07 C8.84,8.27335547 13.4866445,6.91335547 17.4533555,6.91335547 C21.6467109,6.91335547 23.7433555,9.23671094 24.1967109,10.1433555 C24.4800664,10.7667109 24.5367109,11.6733555 24.2533555,12.2967109 C24.0833555,12.6933555 23.8,12.9200664 23.46,12.9767109 C22.44,13.2033555 21.8166445,12.9767109 20.6266445,10.7100664 C20.1732891,9.86006641 19.2666445,9.29342187 18.0766445,9.06671094 C16.32,8.78335547 14.1666445,9.23671094 13.09,10.2000664 C12.41,10.8234219 12.1266445,11.5600664 12.2966445,12.2967109 C12.6932891,13.6567109 14.5632891,14.6200664 18.1332891,15.3000664 C24.6499336,16.6034219 25.5566445,18.9834219 25.5566445,21.1934219 C25.5566445,24.14 22.4966445,27.2566445 17.34,27.2566445 Z" id="Shape"></path>
                    </g>
                </g>
            </g>
        </g>
    </g>
</svg>