<?xml version="1.0" encoding="UTF-8"?>
<svg width="25px" height="40px" viewBox="0 0 25 40" version="1.1" xmlns="http://www.w3.org/2000/svg" xmlns:xlink="http://www.w3.org/1999/xlink">
    <!-- Generator: Sketch 51.1 (57501) - http://www.bohemiancoding.com/sketch -->
    <title>smartphone</title>
    <desc>Created with Sketch.</desc>
    <defs></defs>
    <g id="Page-1" stroke="none" stroke-width="1" fill="none" fill-rule="evenodd">
        <g id="Apple-TV" transform="translate(-1162.000000, -39.000000)" fill-rule="nonzero">
            <g id="1" transform="translate(-320.000000, -221.000000)">
                <g id="header" transform="translate(315.000000, 219.000000)">
                    <g id="Group-2" transform="translate(1167.000000, 41.000000)">
                        <g id="smartphone">
                            <polygon id="Shape" fill="#F9BA48" points="1 5.16129032 1 32.9032258 23.516129 32.9032258 23.516129 27.8980645 23.516129 9.36193548 23.516129 5.16129032"></polygon>
                            <g id="Group" fill="#FFFFFF">
                                <rect id="Rectangle-path" x="11.6129032" y="2.58064516" width="5.16129032" height="1.29032258"></rect>
                                <rect id="Rectangle-path" x="7.74193548" y="2.58064516" width="1.29032258" height="1.29032258"></rect>
                                <path d="M14.516129,35.8064516 C14.516129,34.5612903 13.5032258,33.5483871 12.2580645,33.5483871 C11.0129032,33.5483871 10,34.5612903 10,35.8064516 C10,37.0516129 11.0129032,38.0645161 12.2580645,38.0645161 C13.5032258,38.0645161 14.516129,37.0516129 14.516129,35.8064516 Z M11.2903226,35.8064516 C11.2903226,35.2729032 11.7245161,34.8387097 12.2580645,34.8387097 C12.7916129,34.8387097 13.2258065,35.2729032 13.2258065,35.8064516 C13.2258065,36.34 12.7916129,36.7741935 12.2580645,36.7741935 C11.7245161,36.7741935 11.2903226,36.34 11.2903226,35.8064516 Z" id="Shape"></path>
                                <path d="M1.29032258,3.22580645 C1.29032258,2.15870968 2.15870968,1.29032258 3.22580645,1.29032258 L21.2903226,1.29032258 C22.3574194,1.29032258 23.2258065,2.15870968 23.2258065,3.22580645 L23.2258065,34.1612903 L24.516129,34.1612903 L24.516129,3.22580645 C24.516129,1.44709677 23.0690323,0 21.2903226,0 L3.22580645,0 C1.44709677,0 0,1.44709677 0,3.22580645 L0,5.16129032 L1.29032258,5.16129032 L1.29032258,3.22580645 Z" id="Shape"></path>
                                <path d="M23.2258065,36.7741935 C23.2258065,37.8412903 22.3574194,38.7096774 21.2903226,38.7096774 L3.22580645,38.7096774 C2.15870968,38.7096774 1.29032258,37.8412903 1.29032258,36.7741935 L1.29032258,2.90322581 L0,2.90322581 L0,36.7741935 C0,38.5529032 1.44709677,40 3.22580645,40 L21.2903226,40 C23.0690323,40 24.516129,38.5529032 24.516129,36.7741935 L24.516129,32.9032258 L23.2258065,32.9032258 L23.2258065,36.7741935 Z" id="Shape"></path>
                            </g>
                        </g>
                    </g>
                </g>
            </g>
        </g>
    </g>
</svg>